<svg width="96" height="64" viewBox="0 0 96 64" fill="none" xmlns="http://www.w3.org/2000/svg">
<path d="M11.2992 63.3052C18.5088 61.2955 22 56.2223 22 50.7749C22 39.6612 6.65542 47.1068 6.65542 42.3734C6.65542 40.5883 8.01866 39.0048 10.4625 38.3253C13.1889 37.5652 16.0705 37.7898 18.2373 39.4194L21.4015 33.8971C18.7582 31.9105 15.2338 31.4671 10.9834 32.6475C4.69373 34.3981 0.847859 39.5749 0.847859 44.5271C0.847859 55.7271 16.2312 47.8266 16.2312 53.0955C16.2312 54.7885 14.7073 56.8212 11.5819 57.6907C7.89673 58.7157 4.97079 57.7022 3.08666 56.0381L0 61.7158C2.48262 63.8407 6.16775 64.7332 11.2992 63.3052Z" fill="#E5472F"/>
<path d="M41.2451 24L33.7954 26.0081L23 59L29.7783 57.1781L31.5379 51.6019L43.5084 48.3772L45.2217 53.0163L52 51.1886L41.2451 24ZM33.1703 45.525L37.5232 31.4098L41.8761 43.1793L33.1703 45.525Z" fill="#EADEF7"/>
<path d="M72 46.3249V40.8071L60.0254 43.9219V20L54 21.5716V51L72 46.3249Z" fill="#F3B537"/>
<path d="M96 39.8913V34.4753L82.0182 38.0524V31.5073L95.7011 28.014V22.5979L82.0182 26.0968V19.9877L96 16.4161V11L76 16.1087V45L96 39.8913Z" fill="#50B078"/>
<path d="M45.0647 21.9166C45.0647 21.9166 42.2811 14.4846 34.6739 9.64275C29.9116 6.61081 15.5995 13.6695 15.5995 13.6695C15.5995 13.6695 27.1918 13.1273 27.0338 18.7376C26.8759 24.3478 27.1802 30.6911 27.1802 30.6911L45.0647 21.9166Z" fill="#E5472F"/>
<path d="M29.1922 36.9059L49.2867 29.423C51.2275 28.7002 52.2156 26.5395 51.4923 24.5972L50.503 21.9406C49.7797 19.9982 47.6196 19.0116 45.6788 19.7344L25.5843 27.2173C23.6419 27.9406 22.6554 30.1007 23.3781 32.0416L24.3674 34.6982C25.0891 36.6411 27.2498 37.6292 29.1922 36.9059Z" fill="white"/>
<path d="M16.9057 17.177C15.0363 17.8731 12.9566 16.922 12.2604 15.0527C11.5643 13.1833 12.5154 11.1036 14.3848 10.4074C16.2541 9.7113 18.3339 10.6624 19.03 12.5318C19.7261 14.4011 18.7751 16.4809 16.9057 17.177Z" fill="white"/>
</svg>
