<svg class="tec-stellar-sale-text" viewBox="0 0 585 52" fill="none" xmlns="http://www.w3.org/2000/svg">
	<title>Stellar Sale Logo Text</title>
	<path d="M.066 51.325h33.02c2.27 0 16.62.878 16.181-13.033 0 0 .293-4.979-3.807-8.932-2.929-2.856-7.175-4.54-14.058-6.517-3.075-.878-6.736-2.123-11.055-3.367-3.149-.952-4.1-1.684-4.027-2.93.146-1.61 2.05-2.122 4.905-2.269 4.76-.293 16.547.293 27.31 3.954l.073-4.32.66-13.838H18.955c-6.15 0-19.403.952-18.89 14.936 0 0 .293 6.224 4.1 9.152 1.757 1.318 3.66 2.05 7.541 3.661 2.929 1.245 11.934 3.515 16.986 5.125 2.49.806 4.32 1.83 4.174 3.149-.073 1.318-1.245 1.684-3.808 1.684-4.32 0-17.498-.952-28.261-4.613l-.073 4.32-.66 13.838ZM54.544.073v15.449l5.711-.806 10.104-.22v36.829h15.815l-.366-21.013.512-15.45 10.544.66 5.857.805V.073H54.544ZM108.596.073v51.325h46.053V35.51l-19.549.44-10.909-.513-.073-3.002 20.281.44V18.523h-19.915l.146-2.929 4.979-.073 25.04 1.171V.073h-46.053ZM184.809 37.414s-7.688 1.171-7.688-7.615V6.15l.146-6.077L160.354 0l.22 6.077v32.947c.293 4.174 1.537 12.3 9.811 12.3h31.922V36.682l-17.498.733ZM231.924 37.414s-7.687 1.171-7.687-7.615V6.15l.146-6.077L207.47 0l.22 6.077v32.947c.293 4.174 1.537 12.3 9.811 12.3h31.922V36.682l-17.499.733ZM290.094 51.325h17.06L290.826.073h-19.402L254.95 51.325h17.06l3.075-11.495 7.981-.147 4.1.366 2.928 11.276ZM278.453 27.31l2.196-8.274h1.245l2.123 8.274h-5.564ZM337.66 14.35s.219-.073.659 0c6.296.293 6.003 6.297-.293 6.297h-11.129V14.35h10.763Zm9.811 11.349c11.861 0 11.055-11.349 11.055-11.349v-.073c-.292-4.173-1.464-14.204-18.523-14.204h-29.287l.073 1.245.659 12.593v37.413H326.897V33.68h10.031c2.855 1.171 6.077 4.32 6.077 12.373v1.098l.146 1.465v2.636h15.375v-9.885c0-8.346-5.271-13.471-11.055-13.471v-2.197ZM385.716 51.325h33.021c2.269 0 16.62.878 16.181-13.033 0 0 .292-4.979-3.808-8.932-2.928-2.856-7.175-4.54-14.057-6.517-3.075-.878-6.736-2.123-11.056-3.367-3.148-.952-4.1-1.684-4.027-2.93.147-1.61 2.05-2.122 4.906-2.269 4.759-.293 16.547.293 27.309 3.954l.074-4.32.659-13.838h-30.312c-6.15 0-19.402.952-18.89 14.936 0 0 .293 6.224 4.1 9.152 1.757 1.318 3.661 2.05 7.542 3.661 2.928 1.245 11.934 3.515 16.986 5.125 2.489.806 4.319 1.83 4.173 3.149-.073 1.318-1.245 1.684-3.807 1.684-4.32 0-17.499-.952-28.262-4.613l-.073 4.32-.659 13.838ZM471.765 51.325h17.06L472.498.073h-19.403l-16.473 51.252h17.059l3.075-11.495 7.981-.147 4.1.366 2.928 11.276ZM460.124 27.31l2.196-8.274h1.245l2.123 8.274h-5.564ZM515.692 37.414s-7.687 1.171-7.687-7.615V6.15l.146-6.077L491.238 0l.22 6.077v32.947c.293 4.174 1.537 12.3 9.811 12.3h31.922V36.682l-17.499.733ZM538.574.073v51.325h46.053V35.51l-19.549.44-10.909-.513-.073-3.002 20.281.44V18.523h-19.915l.146-2.929 4.979-.073 25.04 1.171V.073h-46.053Z"/>
</svg>
