<svg xmlns="http://www.w3.org/2000/svg" fill="none" viewBox="0 0 256 137"><g clip-path="url(#a)"><path fill="#fff" d="M255.449.089H1.445v136.007H255.45V.089Z"/><mask id="b" width="217" height="128" x="20" y="1" maskUnits="userSpaceOnUse" style="mask-type:luminance"><path fill="#fff" d="M236.447 1.089h-216v127.167h216V1.089Z"/></mask><g mask="url(#b)"><path fill="#0F1031" d="M129.307 27.957a1.006 1.006 0 0 0 0-1.428l-6.431-6.422a1.013 1.013 0 0 0-1.43 0 1.008 1.008 0 0 0 0 1.427l5.717 5.709-5.717 5.709a1.008 1.008 0 0 0 0 1.427 1.013 1.013 0 0 0 1.43 0l6.431-6.422Zm-28.153.295h27.438v-2.018h-27.438v2.018ZM183.773 85.661c0 .557.453 1.01 1.011 1.01h9.096a1.01 1.01 0 0 0 0-2.019h-8.086v-8.074a1.01 1.01 0 0 0-2.021 0v9.083Zm15.819-16.213-15.522 15.5 1.428 1.427 15.522-15.5-1.428-1.427ZM47.964 70.836a1.01 1.01 0 0 0-1.01 1.009v9.083a1.01 1.01 0 0 0 2.02 0v-8.074h8.086a1.01 1.01 0 1 0 0-2.018h-9.096ZM64.2 86.63 48.678 71.131 47.25 72.56l15.522 15.5L64.2 86.63Z"/><path fill="#50B078" d="M123.656 118.208c5.152 0 9.328-4.171 9.328-9.316 0-5.145-4.176-9.315-9.328-9.315-5.153 0-9.33 4.17-9.33 9.315s4.177 9.316 9.33 9.316Z"/><path fill="#0F1031" d="M50.125 44.665c2.204-.382 4.576-2.003 4.576-2.455 0-.453-3.07.78-4.576 1.113-5.329 1.176-5.399-2.504-6.205-2.239-.806.265.1 1.135 1.294 2.51 1.194 1.376 2.708 1.452 4.911 1.07ZM39.443 25.56c1.174 0 2.125-.405 2.125-.905s-.951-.905-2.125-.905c-1.173 0-2.125.405-2.125.905s.952.905 2.125.905ZM59.365 25.56c1.174 0 2.125-.405 2.125-.905s-.951-.905-2.125-.905c-1.173 0-2.125.405-2.125.905s.952.905 2.125.905Z"/><path stroke="#0F1031" stroke-linecap="round" stroke-linejoin="round" stroke-width=".9" d="M50.124 53.61c10.508 0 19.027-11.546 19.027-25.787 0-14.242-8.519-25.787-19.027-25.787-10.51 0-19.028 11.545-19.028 25.787 0 14.241 8.519 25.786 19.028 25.786Z"/><path fill="#0F1031" d="M62.524 8.263c-3.33-3.881-7.663-6.227-12.4-6.227-5.186 0-9.887 2.812-13.32 7.371-.701.933-3.855 6.746-3.855 6.746h8.623l1.546-2.356s1.167 2.374 1.427 2.382c4.684.149 22.614-.026 22.614-.026s-3.456-6.516-4.635-7.89Z"/><path stroke="#0F1031" stroke-linecap="round" stroke-linejoin="round" stroke-width=".9" d="M37.318 20.872c0-1.514 4.847-1.295 6.597.985M45.934 35.394c-2.983 2.47 10.502 4.46 7.345 0-3.157-4.46-4.878-19.093 8.518-14.855"/><path fill="#0F1031" d="M36.52 9.094S29.084 20.708 25.976 33.41c-3.109 12.702-2.992 14.558-2.992 14.558H38.3s-5.37-5.112-6.514-16.597C30.643 19.886 36.52 9.094 36.52 9.094ZM63.271 9.094s7.434 11.614 10.543 24.317c3.109 12.702 2.992 14.558 2.992 14.558H61.49s5.37-5.112 6.514-16.597C69.148 19.886 63.27 9.094 63.27 9.094Z"/><path fill="#fff" stroke="#333452" stroke-linecap="round" stroke-linejoin="round" d="m217.592 2.534 8.718 29.208a1.273 1.273 0 0 1-.87 1.587l-53.293 15.314a1.23 1.23 0 0 1-1.517-.83l-8.581-28.749c-.2-.673.184-1.382.859-1.583l53.098-15.803c.675-.2 1.385.182 1.586.856Z"/><mask id="c" width="66" height="49" x="161" y="1" maskUnits="userSpaceOnUse" style="mask-type:luminance"><path fill="#fff" stroke="#fff" stroke-linecap="round" stroke-linejoin="round" d="m217.592 2.534 8.718 29.208a1.273 1.273 0 0 1-.87 1.587l-53.293 15.314a1.23 1.23 0 0 1-1.517-.83l-8.581-28.749c-.2-.673.184-1.382.859-1.583l53.098-15.803c.675-.2 1.385.182 1.586.856Z"/></mask><g mask="url(#c)"><path fill="#FFCF48" d="m214.314 35.815-9.142-30.632 11.157-3.321a.768.768 0 0 1 .956.515l9.056 30.13-12.027 3.308Z"/><path stroke="#769BF7" stroke-linecap="round" stroke-linejoin="round" d="M170.94 36.206c1.482 4.891 6.625 7.686 11.544 6.271l33.113-9.525c3.959-1.179 6.25-5.216 5.115-9.018l-3.492-11.702c-1.135-3.802-5.265-5.928-9.224-4.75l-35.548 10.58c-3.535 1.051-5.578 4.654-4.566 8.047l3.058 10.096Z"/><path stroke="#333452" stroke-linecap="square" stroke-linejoin="round" stroke-width=".5" d="m213.078 26.014-5.933 1.936M213.44 27.297l-5.934 1.936M212.349 23.448l-5.935 1.936M212.711 24.731l-5.934 1.936M211.615 20.883l-5.933 1.935M211.981 22.165l-5.934 1.936M210.885 18.317l-5.934 1.936M211.248 19.6l-5.934 1.936M210.156 15.751l-5.933 1.936M210.523 17.034l-5.933 1.936M209.428 13.185l-5.934 1.936M209.791 14.468l-5.934 1.936"/></g><path fill="#fff" stroke="#333452" stroke-linecap="round" stroke-linejoin="round" d="m230.684 22.597.245 30.477a1.274 1.274 0 0 1-1.277 1.283l-55.455-.081a1.228 1.228 0 0 1-1.228-1.218l-.24-29.998a1.273 1.273 0 0 1 1.263-1.283l55.407-.442c.705-.006 1.28.56 1.285 1.262Z"/><mask id="d" width="60" height="35" x="172" y="20" maskUnits="userSpaceOnUse" style="mask-type:luminance"><path fill="#fff" stroke="#fff" stroke-linecap="round" stroke-linejoin="round" d="m230.686 22.598.245 30.476a1.275 1.275 0 0 1-1.277 1.283l-55.455-.08a1.227 1.227 0 0 1-1.228-1.219l-.24-29.997a1.273 1.273 0 0 1 1.263-1.284l55.407-.442c.704-.006 1.28.56 1.285 1.263Z"/></mask><g mask="url(#d)"><path fill="#FFCF48" d="m218.315 53.913-.256-31.963 11.642-.093a.767.767 0 0 1 .774.76l.293 29.39a2.02 2.02 0 0 1-2.048 2.039l-10.405-.133Z"/><path stroke="#769BF7" stroke-linecap="round" stroke-linejoin="round" d="M176.503 41.995c.061 5.11 4.225 9.223 9.344 9.228l34.458.041c4.133-.033 7.458-3.276 7.425-7.242l-.097-12.211c-.033-3.967-3.408-7.156-7.54-7.123l-37.091.296c-3.688.03-6.655 2.923-6.627 6.463l.128 10.548Z"/><path stroke="#333452" stroke-linecap="square" stroke-linejoin="round" stroke-width=".5" d="m219.622 43.998-6.243.008M219.571 45.331l-6.241.008M219.722 41.333l-6.242.008M219.673 42.666l-6.243.007M219.827 38.667l-6.243.008M219.777 40l-6.242.008M219.926 36.002l-6.242.008M219.879 37.335l-6.242.008M220.028 33.337l-6.241.008M219.98 34.67l-6.244.008M220.13 30.672l-6.243.008M220.082 32.005l-6.242.008"/></g><path stroke="#0F1031" stroke-width="1.3" d="M91.116 95.33h64.773m5.471 4.52v18.084m-5.183 5.086H91.116m32.243-27.69H90.252m-5.47 4.52v18.084m5.182 5.086h33.395m38.001-22.606c-3.18 0-5.758-2.529-5.758-5.65m-70.82 5.65c3.18 0 5.758-2.529 5.758-5.65m70.82 22.605c-3.18 0-5.758 2.53-5.758 5.651m-70.82-5.651c3.18 0 5.758 2.53 5.758 5.651m-9.788-32.212h84.638v36.168H80.752V90.808Zm51.819 18.367c0 4.836-3.995 8.759-8.924 8.759-4.929 0-8.924-3.923-8.924-8.759 0-4.838 3.995-8.761 8.924-8.761 4.929 0 8.924 3.923 8.924 8.761Zm-28.212-.001c0 1.093-.903 1.978-2.016 1.978s-2.015-.885-2.015-1.978c0-1.092.902-1.978 2.015-1.978s2.016.886 2.016 1.978Zm42.606 0c0 1.093-.902 1.978-2.015 1.978s-2.016-.885-2.016-1.978c0-1.092.903-1.978 2.016-1.978s2.015.886 2.015 1.978Zm-20.775 2.012c0-1.302-.901-1.709-2.01-1.993-.964-.244-1.679-.448-1.679-1.211 0-.701.508-1.098 1.306-1.098.684 0 1.161.365 1.472 1.068l.797-.397c-.258-.681-.839-1.343-1.823-1.496v-.965h-.83v.955c-1.181.143-1.834.935-1.834 1.882 0 1.323 1.067 1.821 2.093 2.076 1.088.264 1.597.559 1.597 1.301 0 .722-.705 1.149-1.442 1.149-1.036 0-1.595-.63-1.854-1.585l-.85.325c.249 1.25 1.129 1.963 2.29 2.094v.957h.83v-.966c1.057-.143 1.937-.844 1.937-2.096Z"/></g></g><defs><clipPath id="a"><path fill="#fff" d="M0 0h255v137H0z" transform="translate(.5)"/></clipPath></defs></svg>
