<svg fill="none" xmlns="http://www.w3.org/2000/svg" viewBox="0 0 256 137"><g clip-path="url(#a)"><path d="M255.449.089H1.445v136.007H255.45V.089Z" fill="#fff"/><mask id="b" style="mask-type:luminance" maskUnits="userSpaceOnUse" x="12" y="0" width="232" height="137"><path d="M243.955.089H12.939v136.007h231.016V.089Z" fill="#fff"/></mask><g mask="url(#b)"><path d="M129.367 28.824a1.075 1.075 0 0 0 0-1.526l-6.878-6.87a1.083 1.083 0 0 0-1.529 0 1.079 1.079 0 0 0 0 1.527l6.114 6.106-6.114 6.106a1.079 1.079 0 0 0 0 1.526 1.083 1.083 0 0 0 1.529 0l6.878-6.869Zm-30.11.316h29.346v-2.159H99.258v2.16ZM187.621 90.54c0 .596.484 1.08 1.081 1.08h9.728a1.08 1.08 0 0 0 0-2.16h-8.647v-8.634a1.08 1.08 0 0 0-2.162 0v9.714Zm16.918-17.34-16.601 16.577 1.528 1.526 16.601-16.576-1.528-1.527ZM42.37 74.684a1.08 1.08 0 0 0-1.08 1.08v9.714a1.08 1.08 0 0 0 2.16 0v-8.635h8.648a1.08 1.08 0 1 0 0-2.159H42.37Zm17.365 16.892L43.135 75l-1.53 1.527 16.601 16.577 1.529-1.528Z" fill="#0F1031"/><path d="M123.324 125.349c5.51 0 9.976-4.461 9.976-9.963 0-5.503-4.466-9.963-9.976-9.963-5.511 0-9.978 4.46-9.978 9.963 0 5.502 4.467 9.963 9.978 9.963Z" fill="#50B078"/><path d="M44.681 46.694c2.357-.408 4.894-2.142 4.894-2.626s-3.284.835-4.894 1.19c-5.699 1.258-5.774-2.677-6.636-2.394-.863.283.108 1.214 1.384 2.685 1.276 1.47 2.896 1.553 5.252 1.145ZM33.257 26.26c1.255 0 2.273-.433 2.273-.967s-1.018-.968-2.273-.968c-1.255 0-2.273.434-2.273.968s1.018.968 2.273.968ZM54.564 26.26c1.255 0 2.273-.433 2.273-.967s-1.018-.968-2.273-.968c-1.255 0-2.273.434-2.273.968s1.018.968 2.273.968Z" fill="#0F1031"/><path d="M44.68 56.26c11.24 0 20.351-12.348 20.351-27.58 0-15.23-9.111-27.578-20.35-27.578-11.24 0-20.35 12.347-20.35 27.579 0 15.231 9.11 27.579 20.35 27.579Z" stroke="#0F1031" stroke-width=".9" stroke-linecap="round" stroke-linejoin="round"/><path d="M57.944 7.762c-3.563-4.151-8.196-6.66-13.263-6.66-5.546 0-10.574 3.007-14.245 7.884-.75.997-4.123 7.214-4.123 7.214h9.222l1.653-2.52s1.249 2.539 1.526 2.548c5.01.16 24.186-.028 24.186-.028s-3.696-6.97-4.956-8.438Z" fill="#0F1031"/><path d="M30.984 21.247c0-1.62 5.183-1.385 7.056 1.053M40.198 36.778c-3.19 2.642 11.232 4.771 7.856 0-3.377-4.77-5.217-20.42 9.11-15.887" stroke="#0F1031" stroke-width=".9" stroke-linecap="round" stroke-linejoin="round"/><path d="M30.13 8.65s-7.95 12.422-11.275 26.008c-3.325 13.585-3.2 15.57-3.2 15.57h16.38s-5.742-5.467-6.966-17.751c-1.224-12.284 5.06-23.827 5.06-23.827ZM58.743 8.65s7.95 12.422 11.275 26.008c3.325 13.585 3.2 15.57 3.2 15.57h-16.38s5.742-5.467 6.966-17.751C65.028 20.193 58.743 8.65 58.743 8.65Z" fill="#0F1031"/><path d="m223.791 1.635 9.323 31.238a1.361 1.361 0 0 1-.93 1.697l-56.998 16.378a1.315 1.315 0 0 1-1.622-.887l-9.177-30.747a1.362 1.362 0 0 1 .918-1.694L222.095.72a1.363 1.363 0 0 1 1.696.916Z" fill="#fff" stroke="#333452" stroke-linecap="round" stroke-linejoin="round"/><mask id="c" style="mask-type:luminance" maskUnits="userSpaceOnUse" x="163" y="0" width="71" height="52"><path d="m223.791 1.635 9.323 31.238a1.361 1.361 0 0 1-.93 1.697l-56.998 16.378a1.315 1.315 0 0 1-1.622-.887l-9.177-30.747a1.362 1.362 0 0 1 .918-1.694L222.095.72a1.363 1.363 0 0 1 1.696.916Z" fill="#fff" stroke="#fff" stroke-linecap="round" stroke-linejoin="round"/></mask><g mask="url(#c)"><path d="m220.285 37.229-9.777-32.762L222.441.916a.822.822 0 0 1 1.022.55l9.685 32.224-12.863 3.539Z" fill="#FFCF48"/><path d="M173.897 37.646c1.585 5.232 7.085 8.221 12.347 6.708l35.415-10.188c4.234-1.26 6.683-5.578 5.47-9.644l-3.735-12.516c-1.213-4.066-5.631-6.34-9.865-5.08L175.51 18.241c-3.781 1.125-5.966 4.978-4.883 8.607l3.27 10.798Z" stroke="#769BF7" stroke-linecap="round" stroke-linejoin="round"/><path d="m218.965 26.746-6.346 2.07M219.351 28.118l-6.347 2.07M218.185 24.002l-6.347 2.07M218.573 25.375l-6.346 2.07M217.401 21.258l-6.346 2.07M217.792 22.63l-6.347 2.07M216.62 18.514l-6.347 2.07M217.008 19.887l-6.346 2.07M215.84 15.77l-6.346 2.07M216.233 17.142l-6.346 2.07M215.061 13.026l-6.346 2.07M215.45 14.398l-6.346 2.07" stroke="#333452" stroke-width=".5" stroke-linecap="square" stroke-linejoin="round"/></g><path d="m237.793 23.092.262 32.596a1.363 1.363 0 0 1-1.366 1.372l-59.31-.087a1.313 1.313 0 0 1-1.313-1.303l-.257-32.083a1.362 1.362 0 0 1 1.351-1.372l59.259-.473a1.361 1.361 0 0 1 1.374 1.35Z" fill="#fff" stroke="#333452" stroke-linecap="round" stroke-linejoin="round"/><mask id="d" style="mask-type:luminance" maskUnits="userSpaceOnUse" x="175" y="21" width="64" height="37"><path d="m237.795 23.093.261 32.595a1.363 1.363 0 0 1-1.365 1.372l-59.31-.087a1.312 1.312 0 0 1-1.313-1.302l-.257-32.083a1.362 1.362 0 0 1 1.351-1.373l59.259-.473a1.362 1.362 0 0 1 1.374 1.35Z" fill="#fff" stroke="#fff" stroke-linecap="round" stroke-linejoin="round"/></mask><g mask="url(#d)"><path d="m224.565 56.584-.274-34.185 12.452-.099a.821.821 0 0 1 .828.812l.313 31.435a2.16 2.16 0 0 1-2.191 2.18l-11.128-.142Z" fill="#FFCF48"/><path d="M179.846 43.838c.065 5.466 4.519 9.864 9.993 9.87l36.854.044c4.42-.036 7.976-3.504 7.941-7.746l-.104-13.06c-.035-4.242-3.644-7.653-8.064-7.618l-39.67.317c-3.944.031-7.117 3.126-7.087 6.912l.137 11.281Z" stroke="#769BF7" stroke-linecap="round" stroke-linejoin="round"/><path d="m225.962 45.98-6.677.01M225.907 47.406l-6.675.009M226.07 43.13l-6.675.009M226.017 44.555l-6.677.009M226.181 40.28l-6.677.008M226.129 41.705l-6.676.008M226.288 37.429l-6.677.008M226.236 38.855l-6.675.008M226.397 34.579l-6.674.008M226.346 36.004l-6.678.008M226.505 31.728l-6.677.008M226.453 33.154l-6.676.008" stroke="#333452" stroke-width=".5" stroke-linecap="square" stroke-linejoin="round"/></g><path d="M88.522 100.881h69.276m5.851 4.834v19.341m-5.543 5.439H88.522m34.485-29.614h-35.41m-5.85 4.834v19.341m5.543 5.439h35.717m40.642-24.176c-3.402 0-6.159-2.705-6.159-6.043m-75.742 6.043c3.401 0 6.158-2.705 6.158-6.043m75.743 24.175c-3.402 0-6.159 2.707-6.159 6.044m-75.742-6.044c3.401 0 6.158 2.707 6.158 6.044m-10.469-34.45h90.522v38.681H77.437V96.045Zm55.422 19.643c0 5.173-4.273 9.368-9.545 9.368-5.271 0-9.544-4.195-9.544-9.368 0-5.174 4.273-9.369 9.544-9.369 5.272 0 9.545 4.195 9.545 9.369Zm-30.174-.001c0 1.169-.965 2.116-2.155 2.116s-2.156-.947-2.156-2.116c0-1.168.965-2.115 2.156-2.115 1.19 0 2.155.947 2.155 2.115Zm45.568 0c0 1.169-.965 2.116-2.155 2.116s-2.156-.947-2.156-2.116c0-1.168.966-2.115 2.156-2.115 1.19 0 2.155.947 2.155 2.115Zm-22.218 2.152c0-1.392-.965-1.828-2.151-2.132-1.031-.261-1.795-.478-1.795-1.294 0-.751.543-1.175 1.397-1.175.731 0 1.241.39 1.573 1.142l.853-.424c-.276-.729-.897-1.436-1.949-1.6v-1.033h-.888v1.022c-1.264.153-1.962 1.001-1.962 2.013 0 1.415 1.141 1.948 2.239 2.22 1.164.283 1.707.598 1.707 1.392 0 .772-.754 1.229-1.542 1.229-1.107 0-1.706-.674-1.983-1.696l-.908.348c.266 1.337 1.207 2.099 2.449 2.239v1.024h.888v-1.034c1.13-.153 2.072-.902 2.072-2.241Z" stroke="#0F1031" stroke-width="1.3"/></g></g><defs><clipPath id="a"><path fill="#fff" transform="translate(.5)" d="M0 0h255v137H0z"/></clipPath></defs></svg>
