<svg xmlns="http://www.w3.org/2000/svg" fill="none" viewBox="0 0 40 41"><path fill="#646970" d="M19.886 30.046a2.221 2.221 0 0 1-1.642-.695 2.294 2.294 0 0 1-.684-1.668h4.652c0 .649-.228 1.205-.684 1.668a2.221 2.221 0 0 1-1.642.695Zm4.652-9.731c.06.71.303 1.359.73 1.946A3.722 3.722 0 0 0 27 23.512v2.966H13v-2.966a4.214 4.214 0 0 0 1.596-1.344 4.078 4.078 0 0 0 .73-1.992V17.58c0-1.144.319-2.132.957-2.966.67-.865 1.52-1.421 2.554-1.669a.822.822 0 0 1-.228-.602c0-.34.122-.633.365-.88.243-.279.532-.418.866-.418.365 0 .684.14.958.418.274.247.44.54.502.88-.061.062-.107.17-.137.324-.03.124-.06.217-.091.278a4.716 4.716 0 0 1 2.508 1.761c.638.834.958 1.792.958 2.873v2.735Z"/></svg>