<svg xmlns="http://www.w3.org/2000/svg" fill="none" viewBox="0 0 32 32"><path stroke="#0F1031" stroke-linecap="round" stroke-width=".366" d="M31.622 9.906 18.81 30.315c-.448.713-1.433 1.011-2.201.666L.914 23.919"/><path fill="#334AFF" stroke="#0F1031" stroke-width=".274" d="M12.938 1.738c.407-.649 1.304-.92 2.003-.606l14.734 6.63c.699.314.935 1.095.527 1.744L18.2 28.624c-.407.65-1.304.92-2.003.606L1.463 22.601c-.699-.314-.935-1.096-.527-1.745L12.938 1.738Z"/><path fill="#4285F4" d="M17.785 6.934c.924-1.846 3.55-2.77 3.55-2.77l8.044 3.531c.781.343 1.045 1.214.586 1.933l-4.474 7.003s-3.924.462-6.695-2.54c-2.77-3.001-1.934-5.31-1.011-7.157Z"/><path fill="#67F" d="M10.062 18.964c3.364 1.528 4.872 5.478 3.361 8.806l-3.454-1.568c.655-1.444.001-3.158-1.459-3.82-1.46-.664-3.18-.028-3.836 1.416L1.22 22.23c1.51-3.329 5.477-4.794 8.842-3.266Z"/><path fill="#fff" fill-rule="evenodd" d="M15.496 16.904c-.34-.05-.628-.14-.807-.259-.23-.154-.27-.319-.248-.359.017-.028.158-.064.445.078.045.022.091.047.138.075.188.11.379.264.472.465Zm-.913 2.729c-1.168-.315-2.08-1.195-2.322-2.245-.171-.743.028-1.428.547-1.88 1.045-.912 3.255-.526 4.412.155l.037.022c.427.26.665.539.618.73-.025.108-.184.228-.425.322-.425.167-.96.23-1.455.215-.084-.4-.396-.744-.905-.996-.566-.28-.912-.13-1.048.105-.148.256-.06.673.392.974.274.182.663.294 1.09.345-.065.225-.231.473-.493.73a.23.23 0 1 0 .324.33c.355-.351.569-.695.638-1.027.59.012 1.195-.077 1.625-.246.404-.158.642-.375.706-.644.047-.195.005-.396-.119-.595.894-1.485 1.766-2.361 2.005-2.223l.002.001c.035.021.078.057.102.149.08.306-.061 1.074-1.19 2.992-1.115 1.893-2.226 3.409-4.541 2.786Zm.702-5.535.008-.015.01-.024c.212-.425.45-.717.676-.817a.386.386 0 0 1 .33 0 .49.49 0 0 1 .296.33c.083.3-.04.767-.31 1.2a6.366 6.366 0 0 0-1.196-.237 4.95 4.95 0 0 1 .186-.437Zm2.12.317a.425.425 0 0 1 .355.05c.19.111.236.222.254.295.043.175-.026.426-.203.745a3.057 3.057 0 0 0-.356-.241 4.704 4.704 0 0 0-.606-.296c.161-.294.36-.493.556-.553Zm3.354-.681a.684.684 0 0 0-.314-.43l-.003-.001c-.526-.306-1.167.37-1.604.904-.128.157-.252.32-.368.481l-.008-.04c-.059-.238-.216-.434-.467-.582a.886.886 0 0 0-.928-.003 1.41 1.41 0 0 0-.018-.615.95.95 0 0 0-.557-.63.852.852 0 0 0-.698.002l-.003.002c.422-1.215.78-2.771.013-3.122a.748.748 0 0 0-.617.01c-1.004.429-2.07 2.837-2.54 4.192a.23.23 0 0 0 .435.151c.79-2.268 1.748-3.689 2.286-3.92.127-.054.2-.033.245-.013.423.194.094 1.877-.734 3.758a5.668 5.668 0 0 0-.26.629l-.001.002c-.8-.007-1.57.173-2.113.646-.652.569-.905 1.419-.694 2.333.206.892.823 1.677 1.665 2.173.303.178.635.319.987.413 2.625.707 3.89-1.014 5.057-2.997 1-1.696 1.393-2.758 1.24-3.343Z" clip-rule="evenodd"/><path stroke="#fff" stroke-linecap="round" stroke-width=".305" d="M13.855 3.952 4.174 19.553"/></svg>