<svg xmlns="http://www.w3.org/2000/svg" fill="none" viewBox="0 0 40 40"><path fill="#334AFF" d="M27.688 26.755c2.192 0 3.979-1.804 3.979-4.022V9.022C31.667 6.806 29.882 5 27.688 5l-19.542.03c-2.192 0-3.979 1.804-3.979 4.022v13.711c0 2.216 1.785 4.022 3.979 4.022h.69L8.699 29c-.32 3.541 1.827 2.835 3.115 1.93 1.563-1.097 2.853-2.491 3.872-4.177l12.002.001ZM12.096 17.35c-1.914-.031-1.914-2.911 0-2.943 1.914.032 1.914 2.912 0 2.943Zm4.54-1.471c.032-1.935 2.881-1.935 2.912 0-.031 1.934-2.88 1.934-2.911 0Zm7.453 1.47c-1.914-.03-1.914-2.91 0-2.941 1.914.03 1.914 2.91 0 2.942Z"/><path fill="#000" d="M33.822 13.335c-1.06-.126-1.275 1.433-.227 1.603.829.119 1.455.841 1.455 1.684v11.316c0 .94-.764 1.704-1.703 1.704h-2.526c-2.012.05-1.744 2.367-1.507 3.731-1.18-.634-2.1-1.8-2.832-2.926a1.632 1.632 0 0 0-1.405-.805h-8.435a.808.808 0 0 0 0 1.619l8.46.025c.882 1.33 3.259 4.622 5.06 3.467 1.294-.792.457-2.239.659-3.492h2.527a3.326 3.326 0 0 0 3.32-3.325V16.62a3.332 3.332 0 0 0-2.846-3.286v.001Z"/></svg>