<svg viewBox="0 0 41 30" fill="none" xmlns="http://www.w3.org/2000/svg">
<rect x="10.7397" y="0.738281" width="20.6302" height="20.6302" rx="10.3151" fill="#FFCF48"/>
<rect x="22.4404" y="13.6719" width="15.3957" height="15.3957" rx="7.69783" fill="#3D54FF"/>
<path d="M9.69779 23.3594H5.81962L5.41318 22.0384H1.34873L0.942281 23.3594H-2.93588L1.23018 12.0636H5.53173L9.69779 23.3594ZM4.49868 19.0578L3.38095 15.4168L2.26323 19.0578H4.49868Z" fill="#0F1031"/>
<path d="M18.9728 23.3594H15.9245V22.5804C15.4673 23.1562 14.4681 23.5626 13.452 23.5626C12.2326 23.5626 10.6407 22.7328 10.6407 20.8699C10.6407 18.8377 12.2326 18.2619 13.452 18.2619C14.5189 18.2619 15.4842 18.6006 15.9245 19.1594V18.3127C15.9245 17.7369 15.3995 17.2966 14.4003 17.2966C13.6382 17.2966 12.7746 17.6014 12.131 18.0925L11.098 16.2127C12.1988 15.3321 13.7229 14.9764 14.9592 14.9764C16.9914 14.9764 18.9728 15.6877 18.9728 18.4143V23.3594ZM14.7221 21.5812C15.1963 21.5812 15.7213 21.4288 15.9245 21.1409V20.6836C15.7213 20.3957 15.1963 20.2433 14.7221 20.2433C14.214 20.2433 13.6552 20.4126 13.6552 20.9207C13.6552 21.4288 14.214 21.5812 14.7221 21.5812Z" fill="#0F1031"/>
</svg>
