<svg xmlns="http://www.w3.org/2000/svg" fill="none" viewBox="0 0 24 24"><path fill="#000" fill-rule="evenodd" d="M11.994 4.405a5.132 5.132 0 0 1 2.234 4.235 5.122 5.122 0 0 1-2.194 4.205c.365.035.741.055 1.125.075 1.318.068 2.731.142 4.145.849 2.564 1.625 4.357.16 5.212-.886.163-.2.518-.084.481.172-.322 2.285-1.818 7.82-8.77 9.945h-6.15S2.95 23 2.95 17.872c0-1.491.722-2.5 1.35-3.378.316-.443.61-.853.773-1.274-.695.238-1.985.008-2.902-.255-.242-.07-.203-.373.047-.406.932-.123 2.31-.366 2.782-.76a.392.392 0 0 1 .036-.007A2.36 2.36 0 0 0 5 11.717c-2.861 0-3.726-1.747-3.988-2.804-.088-.355.278-.6.632-.51.845.218 1.733.154 2.33-.122a5.149 5.149 0 0 1 5.699-4.738c.825-.507 1.307-1.29 1.351-1.543.188.128.772 1.013.39 1.878.374-.288.766-.494.948-.542-.201.347-.315.714-.37 1.07Zm-4.43 2.183c-.85 0-1.537.69-1.537 1.539 0 .842.674.841 1.512.841h.05c.838 0 1.513 0 1.513-.841 0-.85-.689-1.539-1.538-1.539Zm8.666 9.445c.279.132.41.495.293.81-.55 1.487-2.585 4.118-6.381 3.472-.299-.05-.505-.366-.46-.704.045-.339.323-.572.622-.521 3.203.544 4.813-1.65 5.21-2.726.117-.315.438-.464.716-.331Z" clip-rule="evenodd"/></svg>