<svg xmlns="http://www.w3.org/2000/svg" fill="none" viewBox="0 0 20 19"><g fill="#3C434A" fill-rule="evenodd" clip-rule="evenodd"><path d="M3.864 1.838c.412-.411.97-.643 1.552-.643h6.111c.177 0 .347.07.472.196l4.583 4.583a.667.667 0 0 1 .195.471v9.167a2.195 2.195 0 0 1-2.194 2.194H5.416a2.195 2.195 0 0 1-2.194-2.194V3.39c0-.582.23-1.14.642-1.552Zm1.552.69a.861.861 0 0 0-.861.862v12.222a.861.861 0 0 0 .861.861h9.167a.861.861 0 0 0 .86-.861v-8.89l-4.192-4.193H5.416Z"/><path d="M11.527 1.195c.368 0 .667.299.667.667v3.917h3.916a.667.667 0 0 1 0 1.333h-4.583a.667.667 0 0 1-.667-.667V1.862c0-.368.299-.667.667-.667ZM6.277 10.268c0-.368.299-.666.667-.666h6.111a.667.667 0 1 1 0 1.333H6.944a.667.667 0 0 1-.667-.667ZM6.277 13.323c0-.368.299-.667.667-.667h6.111a.667.667 0 0 1 0 1.334H6.944a.667.667 0 0 1-.667-.667ZM6.277 7.214c0-.369.299-.667.667-.667h1.528a.667.667 0 1 1 0 1.333H6.944a.667.667 0 0 1-.667-.666Z"/></g></svg>