<svg xmlns="http://www.w3.org/2000/svg" fill="none" viewBox="0 0 37 46"><g stroke="#fff" stroke-linecap="round" stroke-width="2.25"><path d="M27.216 19.51c.105-4.29-1.151-6.07-3.768-6.07-2.616 0-3.826 2.548-3.535 5.955"/><path d="M27.64 20.034c0-3.212.378-15.488 3.896-15.51 2.909-.017 4.176 5.787 4.176 16.383 0 10.595-1.025 19.953-12.528 23.128-11.216 3.096-21.148-5.373-18.323-13.85 3.234-9.702 23.189-13.412 24.727-8.369 1.052 3.45-8.4 10.218-13.424 9.939-3.486-.194-4.221-3.454.104-3.767 4.326-.314 7.535 1.779 5.861 8.058"/><path d="M19.297 20.104c.326-3.917-1.011-8.6-4.766-8.138-3.353.412-3.575 5.297-2.629 10.004"/><path d="M2.484 24.22C.556 14.584-.156 1.46 4.302.991c4.065-.428 6.443 11.667 7.182 17.996"/></g></svg>