<svg xmlns="http://www.w3.org/2000/svg" fill="none" viewBox="0 0 67 55"><path fill="#FF4B33" d="M8.22 40.703c4.813-.442 7.2-3.144 7.226-6.437.055-6.723-10.258-3.86-10.235-6.695.01-1.08.93-1.866 2.542-2.014 1.829-.168 3.76.275 5.2 1.492l2.148-3.058c-1.761-1.483-4.12-2.13-6.97-1.868-4.222.388-6.823 3.109-6.848 6.106-.055 6.777 10.287 3.641 10.262 6.773-.01 1.053-1.012 2.09-3.136 2.284-2.473.228-4.427-.726-5.68-1.933l-2.121 3.19c1.68 1.545 4.144 2.479 7.612 2.16Z"/><path fill="#B9C1FF" d="m35.475 37.875-6.762-17.373-4.786.44-7.057 18.643 4.328-.398 1.155-3.155 7.69-.706 1.104 2.947 4.328-.398Zm-6.454-5.828-5.592.514 2.86-8.006 2.732 7.492Z"/><path fill="#FF8A6A" d="m49.204 36.614.027-3.375-7.582.696.12-14.633-3.845.353-.147 18.008 11.427-1.05Z"/><path fill="#50B078" d="m65.272 35.137.028-3.375-8.872.815.033-4.103 8.684-.799.028-3.374-8.684.798.03-3.78 8.873-.816.028-3.374-12.69 1.166-.148 18.008 12.69-1.166Z"/><path stroke="#FFCF48" stroke-linecap="round" stroke-linejoin="round" d="m26 16-6-6M40 14.565 43.379 8M31.049 1l1.228 14.741M36 44l1.255 9.847M45 43l4.344 4.344M24.861 44 21 50.758"/></svg>