<svg width="38" height="38" viewBox="0 0 38 38" fill="none" xmlns="http://www.w3.org/2000/svg">
<g id="Frame 1189" clip-path="url(#clip0_5171_2648)">
<g id="Group 10">
<path id="Rectangle 57" d="M10.6455 20C18.5209 18.0013 21.8171 15.2616 23.8897 6.75581C26.0631 14.6779 28.8418 17.6302 37.1339 20C29.1811 22.2849 25.9429 25.0384 23.8897 33.2442C21.283 24.3467 18.3623 21.4765 10.6455 20Z" fill="#334AFF"/>
<path id="Rectangle 58" d="M0.873047 10.7188C5.1678 9.62876 6.96541 8.13471 8.09565 3.49614C9.28088 7.81636 10.7963 9.42639 15.3183 10.7187C10.9813 11.9648 9.21536 13.4664 8.09565 17.9414C6.67409 13.0892 5.08134 11.5239 0.873047 10.7188Z" fill="#E5472F"/>
<path id="Rectangle 59" d="M6.41309 30.4219C8.86642 29.7992 9.89328 28.9458 10.5389 26.296C11.216 28.7639 12.0816 29.6836 14.6648 30.4219C12.1873 31.1337 11.1785 31.9914 10.5389 34.5477C9.72687 31.776 8.81703 30.8818 6.41309 30.4219Z" fill="#F3B537"/>
</g>
</g>
<defs>
<clipPath id="clip0_5171_2648">
<rect width="37.5469" height="37.5469" fill="white"/>
</clipPath>
</defs>
</svg>
