<svg xmlns="http://www.w3.org/2000/svg" fill="none" viewBox="0 0 38 38"><g clip-path="url(#a)"><path fill="#334AFF" d="M10.646 20c7.875-1.999 11.171-4.738 13.244-13.244C26.063 14.678 28.842 17.63 37.134 20c-7.953 2.285-11.191 5.038-13.244 13.244C21.283 24.347 18.362 21.477 10.645 20Z"/><path fill="#E5472F" d="M.873 10.719c4.295-1.09 6.092-2.584 7.223-7.223 1.185 4.32 2.7 5.93 7.222 7.223-4.337 1.246-6.103 2.747-7.222 7.222C6.674 13.09 5.08 11.524.873 10.72Z"/><path fill="#F3B537" d="M6.413 30.422c2.453-.623 3.48-1.476 4.126-4.126.677 2.468 1.543 3.388 4.126 4.126-2.478.712-3.486 1.57-4.126 4.126-.812-2.772-1.722-3.666-4.126-4.126Z"/></g><defs><clipPath id="a"><path fill="#fff" d="M0 0h37.547v37.547H0z"/></clipPath></defs></svg>