<svg xmlns="http://www.w3.org/2000/svg" viewBox="0 0 92 52"><g fill="none" fill-rule="evenodd" transform="translate(.542)"><ellipse cx="55.313" cy="26.233" fill="#3d54ff" rx="6.785" ry="24.233"/><path fill="#0f1031" fill-rule="nonzero" d="M55.313.875c4.647 0 7.772 10.801 7.906 24.444l.004.914c0 14.072-3.16 25.358-7.91 25.358-.339 0-.67-.057-.992-.169a1.045 1.045 0 0 1-.187-.023l-.119-.032-24.968-8.239c-.33.85-.768 1.654-1.3 2.393a10.804 10.804 0 0 1-8.784 4.502c-5.975 0-10.818-4.844-10.818-10.819 0-.972.129-1.928.38-2.848l-6.878-2.27a1.125 1.125 0 0 1-.766-.948l-.006-.12V21.386c0-.429.244-.816.621-1.005l.117-.05L53.981 1.15c.064-.023.128-.04.193-.052a3.04 3.04 0 0 1 1.139-.224zm0 2.25a1.193 1.193 0 0 0-.445.09l-.07.03c-2.582 1.185-5.146 11.083-5.146 22.988l.002.442c.066 12.494 2.946 22.666 5.659 22.666 2.68 0 5.525-9.934 5.655-22.226l.005-.882c0-12.695-2.916-23.108-5.66-23.108zm-4.33 1.52L3.126 22.17v10.033l47.967 15.83c-2.232-4.267-3.598-11.97-3.685-20.887l-.005-.914c0-9.156 1.338-17.133 3.582-21.589zm-40.588 34.56a8.568 8.568 0 0 0 15.526 5.001c.399-.554.73-1.153.986-1.785l-16.242-5.359a8.586 8.586 0 0 0-.27 2.142zm58.94-2.933a1.125 1.125 0 0 1 1.561-.312l11.632 7.754.098.074a1.125 1.125 0 0 1-1.346 1.798l-11.632-7.754-.098-.074a1.125 1.125 0 0 1-.214-1.486zm19.558-11.164a1.125 1.125 0 0 1 .122 2.243l-.122.007H71.676a1.125 1.125 0 0 1-.123-2.243l.123-.007zM84.359 7.192a1.125 1.125 0 0 1-.214 1.487l-.098.073-11.632 7.755a1.125 1.125 0 0 1-1.346-1.799l.098-.074L82.8 6.88a1.125 1.125 0 0 1 1.56.312z"/><path fill="#3d54ff" d="m34.808 24.705-6.152-.176 13.956-12.836-6.108 11.471 6.152.176-13.093 13.903z"/></g></svg>