<svg xmlns="http://www.w3.org/2000/svg" viewBox="0 0 81 67"><g fill="none" fill-rule="evenodd"><path fill="#0f1031" fill-rule="nonzero" d="M47.726 1.666c.307-.275.745-.361 1.14-.215l30.358 11.248.12.052c.614.311.814 1.115.386 1.681l-5.543 7.33V53.46c0 .465-.286.882-.72 1.05L42.622 66.382a1.13 1.13 0 0 1-.35.074h-.175a1.118 1.118 0 0 1-.233-.036l-.117-.038-30.844-11.875a1.125 1.125 0 0 1-.714-.924l-.007-.125V38.604a1.125 1.125 0 0 1 2.244-.123l.006.123v14.081l28.593 11.008V34.552l-7.214 8.63a1.125 1.125 0 0 1-1.137.369l-.123-.039L2.048 32.013a1.125 1.125 0 0 1-.428-1.816l8.795-9.504c.084-.108.191-.203.322-.278l.02-.01c.048-.027.098-.05.152-.071l-.1.043a1.125 1.125 0 0 1 .103-.044L41.497 8.759l6.131-6.995zm24.21 21.27-28.593 9.332v31.425l28.594-11.007zm-60.293-.257-7.237 7.818 28.19 10.627 7.625-9.12zM41.13 11.304 14.695 21.306l27.522 8.961 27.454-8.958-26.292-9.917v13.982a1.125 1.125 0 0 1-2.243.122l-.007-.122zm7.68-7.475-4.747 5.417 28.61 10.79 4.35-5.754z"/><path fill="#3d54ff" d="m57.564 43.154-5.7.42 11.527-14.306-4.424 12.167 5.7-.42-10.618 15.3z"/></g></svg>