<svg xmlns="http://www.w3.org/2000/svg" viewBox="0 0 82 90"><g fill="none" fill-rule="evenodd"><path fill="#0f1031" fill-rule="nonzero" d="M21.965 71.758c0 .577-.434 1.053-.993 1.118l-.132.007H3.55a1.125 1.125 0 0 1-.131-2.242l.131-.008H20.84c.622 0 1.125.504 1.125 1.125zm53.537-57.433c2.22 1.862 3.25 3.36 3.26 4.859.006 1.13-.362 1.801-1.48 3.07l-.763.85a1.124 1.124 0 0 1-.18.3L37.065 70.205c-.149.178-.35.305-.573.364l-8.985 2.383A1.125 1.125 0 0 1 26.1 71.77l.786-9.261c.02-.231.11-.45.26-.628l39.271-46.803c.078-.092.166-.169.263-.23.101-.125.216-.272.375-.477 1.271-1.644 1.87-2.204 3.097-2.412 1.477-.252 3.131.503 5.351 2.366zm-39.335 51.27-3.134.549a1.125 1.125 0 0 1-1.31-.971l-.009-.137V62.43l-2.62.64-.412 4.866a1.496 1.496 0 0 1 1.594.062l.115.087c.495.415.653 1.083.444 1.656l4.665-1.238zm37.724-42.777-6.474-5.432L31.523 60.16l1.05-.256a1.125 1.125 0 0 1 1.391 1.093v2.698l3.485-.609a1.125 1.125 0 0 1 1.312 1.23l-.022.13-.084.363zm.165-6.77c-1.76-1.477-2.87-1.983-3.528-1.871-.392.066-.71.33-1.412 1.21l-.23.294 6.429 5.395.25-.277c.745-.845.95-1.204.947-1.601-.004-.639-.637-1.586-2.232-2.96z"/><path fill="#3d54ff" d="m24.358 31.577-6.152-.175 13.956-12.836-6.108 11.471 6.152.176-13.093 13.903z"/></g></svg>