<svg xmlns="http://www.w3.org/2000/svg" viewBox="0 0 82 58"><g fill="none" fill-rule="evenodd"><path fill="#3d54ff" d="m54.55 36.514-6.152-.175 13.956-12.836-6.108 11.471 6.152.176-13.094 13.903zM80.807 19.197v-5.22a6.4 6.4 0 0 0-6.41-6.508l-38.02.063a6.399 6.399 0 0 0-6.389 6.349v5.316z"/><path fill="#0f1031" fill-rule="nonzero" d="M69.257 1.496c.58 0 1.057.44 1.118 1.003l.007.122v3.721h4.014c4.13-.005 7.476 3.313 7.536 7.395v34.482a9.125 9.125 0 0 1-8.86 9.12l-.265.004H37.99a9.128 9.128 0 0 1-9.121-8.862l-.004-.264v-.455a1.125 1.125 0 0 1 2.243-.123l.007.123v.454a6.878 6.878 0 0 0 6.64 6.872l.236.004 34.815.001a6.875 6.875 0 0 0 6.871-6.638l.004-.236v-34.26a5.278 5.278 0 0 0-5.07-5.363l-.215-.004h-4.015v3.897a1.125 1.125 0 0 1-2.243.123l-.007-.123V8.592l-24.856.002v3.895a1.125 1.125 0 0 1-2.243.123l-.006-.123-.001-3.894-4.647.001c-2.878.004-5.242 2.385-5.266 5.285l.002 20.498a1.125 1.125 0 1 1-2.25 0l-.002-20.507c.033-4.056 3.263-7.387 7.273-7.522l.241-.004h4.649V2.62A1.125 1.125 0 0 1 43.27 2.5l.007.122-.001 3.723 24.856-.002v-3.72c0-.622.504-1.126 1.125-1.126zM36.51 35.402l.098.087 5.657 5.657c.408.408.437 1.051.087 1.493l-.087.098-5.657 5.657A1.125 1.125 0 0 1 34.93 46.9l.087-.098 3.736-3.738L12 43.066a1.125 1.125 0 0 1-.123-2.243l.123-.007h26.751l-3.734-3.736a1.125 1.125 0 0 1-.087-1.493l.087-.098a1.125 1.125 0 0 1 1.493-.087zM19.272 20.617l.098.088 5.657 5.656c.408.408.437 1.052.088 1.493l-.088.098-5.657 5.657a1.125 1.125 0 0 1-1.678-1.493l.087-.098 3.735-3.737H2a1.125 1.125 0 0 1-.123-2.243L2 26.032h19.514l-3.735-3.737a1.125 1.125 0 0 1-.087-1.492l.087-.098a1.125 1.125 0 0 1 1.493-.088z"/></g></svg>