<svg xmlns="http://www.w3.org/2000/svg" fill="none" viewBox="0 0 24 24"><path fill="#fff" d="M4.648 5.318h13.443v11.439H4.648z"/><path fill="#fff" fill-rule="evenodd" d="M4.54 14.003c.838 0 1.517-.664 1.517-1.483 0-.82-.68-1.483-1.517-1.483-.839 0-1.518.664-1.518 1.483 0 .819.68 1.483 1.518 1.483Zm0 4.554c1.796 0 3.252-.424 3.252-1.165 0-1.755-1.456-3.178-3.252-3.178-1.797 0-3.253 1.423-3.253 3.178 0 .847 1.456 1.165 3.253 1.165Z" clip-rule="evenodd"/><path fill="#334AFF" d="M17.742 5.252h5.014v3.654c-1.389 0-2.49.924-2.49 2.065 0 1.118 1.059 2.03 2.41 2.064h.08v3.655h-5.014V5.252Z"/><path fill="#334AFF" stroke="#334AFF" stroke-linecap="round" stroke-linejoin="round" d="m12.28 12.42-1.632 1.182.646-1.883-1.655-1.152 2.032.02.61-1.895.61 1.894 2.032-.019-1.656 1.152.647 1.883-1.633-1.183Z"/><path fill="#0F1031" fill-rule="evenodd" d="M4.841 5.477v3.909a.24.24 0 0 1-.217.237l-.027.001a.242.242 0 0 1-.242-.212l-.002-.026V5.243a.24.24 0 0 1 .218-.236l.026-.002L22.757 5c.125 0 .228.093.241.212l.002.026v3.655c0 .131-.11.238-.244.238-1.206 0-2.17.825-2.17 1.827 0 1 .965 1.826 2.17 1.826.126 0 .23.093.242.213l.002.026v3.654a.24.24 0 0 1-.217.237l-.027.001H9.926a.241.241 0 0 1-.245-.238.24.24 0 0 1 .218-.237l.026-.001h12.587V13.25l-.023-.002c-1.315-.113-2.357-1.059-2.39-2.232l-.002-.06c0-1.2 1.055-2.176 2.392-2.291l.023-.002V5.476H4.841ZM2.667 12.51c0-1.031.856-1.867 1.911-1.867 1.056 0 1.911.836 1.911 1.867 0 .652-.342 1.226-.86 1.56 1.463.438 2.527 1.77 2.527 3.343 0 2.116-7.156 2.116-7.156 0 0-1.574 1.064-2.905 2.527-3.343a1.855 1.855 0 0 1-.86-1.56Zm3.334 0c0-.768-.637-1.39-1.423-1.39s-1.423.622-1.423 1.39c0 .768.637 1.39 1.423 1.39s1.423-.622 1.423-1.39Zm-1.423 1.883c1.707 0 3.09 1.352 3.09 3.02 0 1.48-6.18 1.48-6.18 0 0-1.668 1.383-3.02 3.09-3.02Z" clip-rule="evenodd"/></svg>