<svg height="62" viewBox="0 0 71 62" width="71" xmlns="http://www.w3.org/2000/svg"><g fill="none" fill-rule="evenodd"><g transform="translate(15.833276 .049189)"><path d="m53.1032459 18.9473394-.2848489-5.5912601c.0608-3.58079976-2.8287999-6.51439959-6.4095996-6.50887861l-38.01999778.06327902c-3.50959979.0048-6.36079962 2.83759983-6.38879962 6.34879959l.38895998 5.3165597z" fill="#3d54ff"/><g fill="#0f1031" fill-rule="nonzero"><path d="m46.4073984 5.72112737c4.1295054-.00512911 7.4763665 3.3129388 7.5362841 7.39402713v34.4820578c0 5.039598-4.0858211 9.1248657-9.1254193 9.1248657l-25.2246058-.0016705c-.6213203-.0001107-1.1249103-.50388-1.1247996-1.1252004.0001107-.6213203.50388-1.1249102 1.1252004-1.1247996l25.224238.0016705c3.7178542.0000543 6.7464793-2.9510276 6.8711108-6.6385309l.00399-.2363513.0001621-34.2602156c.048885-2.8790691-2.2166749-5.25122826-5.0696083-5.36182114l-.2150444-.00402661-38.01856815.00368432c-2.80569206.00383728-5.12362953 2.26703573-5.25923976 5.06751193l-.0060986.2164519.00320004 7.2186488c.00027544.6213203-.50318089 1.1252232-1.12450117 1.1254987-.57989893.000257-1.05751427-.4382922-1.11884292-1.001923l-.00665569-.1225782-.00316438-7.2281186c.03234027-4.05546953 3.26287942-7.38688902 7.27218151-7.52128305l.24147329-.00420742z"/><path d="m14.1632.875c.579899 0 1.0573199.43876095 1.1183987 1.00241886l.0066013.12258114v9.8679994c0 .6213204-.5036796 1.125-1.125 1.125-.579899 0-1.0573198-.4387609-1.1183986-1.0024188l-.0066014-.1225812v-9.8679994c0-.62132034.5036797-1.125 1.125-1.125z"/><path d="m41.2687184.875c.579899 0 1.0573199.43876095 1.1183987 1.00241886l.0066013.12258114v9.8679994c0 .6213204-.5036797 1.125-1.125 1.125-.579899 0-1.0573199-.4387609-1.1183986-1.0024188l-.0066014-.1225812v-9.8679994c0-.62132034.5036797-1.125 1.125-1.125z"/><path d="m22.949724 44.9897758c3.78 0 5.985-1.806 5.985-4.431 0-1.932-.903-3.045-2.478-3.528 1.491-.525 2.205-1.638 2.205-3.318 0-2.436-1.995-4.179-5.565-4.179-3.738 0-5.817 1.953-5.817 4.893v.294h2.058v-.231c0-1.827 1.344-3.129 3.696-3.129 2.331 0 3.507 1.071 3.507 2.562 0 1.554-.945 2.415-3.024 2.415h-1.995v1.638h1.995c2.1 0 3.234.567 3.234 2.373 0 1.68-1.47 2.793-3.822 2.793-2.625 0-3.822-.987-3.822-3.234v-.294h-2.1v.399c0 3.402 1.785 4.977 5.943 4.977zm16.486-.294v-1.974h-3.171v-12.957h-1.68c-.294 1.638-1.029 2.373-2.772 2.457v1.596h2.415v8.904h-3.171v1.974z"/></g></g><path d="m14.9519863.14138898c4.257014 0 7.7080056 3.45099166 7.7080056 7.7080056 0 2.66258292-1.3500195 5.00985182-3.4028937 6.39464212 5.7886971 1.825381 9.9858993 7.2376131 9.9858993 13.6301542 0 8.7713872-28.58202239 8.7713872-28.58202239 0 0-6.3925411 4.19720222-11.8047732 9.98614819-13.6312377-2.0531231-1.3837068-3.40314259-3.7309757-3.40314259-6.39355862 0-4.25701394 3.45099169-7.7080056 7.70800559-7.7080056zm0 15.69179072c-6.65006685 0-12.04101119 5.3909444-12.04101119 12.0410112 0 5.7713872 24.08202239 5.7713872 24.08202239 0 0-6.6500668-5.3909443-12.0410112-12.0410112-12.0410112zm0-13.44179072c-3.0143732 0-5.45800559 2.44363234-5.45800559 5.4580056 0 3.01437322 2.44363239 5.45800562 5.45800559 5.45800562 3.0143733 0 5.4580056-2.4436324 5.4580056-5.45800562 0-3.01437326-2.4436323-5.4580056-5.4580056-5.4580056z" fill="#0f1031" fill-rule="nonzero" transform="translate(1.628262 25.09209)"/></g></svg>