<svg xmlns="http://www.w3.org/2000/svg" fill="none" viewBox="0 0 24 24"><path fill="#fff" d="M6.753 8.152h14.9v8.959c0 .99-.804 1.792-1.798 1.792H6.753V8.152Z"/><path fill="#334AFF" fill-rule="evenodd" d="M21.706 8.226v-1.63c.018-1.043-.842-1.897-1.907-1.896L8.486 4.72c-1.045.001-1.893.826-1.901 1.85v1.657h15.12Z" clip-rule="evenodd"/><path fill="#0F1031" d="M18.27 3c.15 0 .276.112.291.257l.002.031v1.124h1.235c1.208-.002 2.187.95 2.202 2.12v10.324c0 1.29-1.068 2.336-2.386 2.336H11.82a.291.291 0 0 1-.294-.289.29.29 0 0 1 .294-.287h7.794c.972 0 1.764-.756 1.797-1.7V6.534c-.016-.836-.699-1.515-1.553-1.544l-.06-.001h-1.235v1.175a.291.291 0 0 1-.294.288.292.292 0 0 1-.292-.257l-.002-.03V4.987h-7.477v1.175a.291.291 0 0 1-.294.288.292.292 0 0 1-.293-.257l-.001-.03V4.988H8.486A1.61 1.61 0 0 0 6.88 6.511l-.001.057v2.104a.291.291 0 0 1-.293.288.292.292 0 0 1-.293-.257l-.002-.031V6.566c.009-1.161.955-2.115 2.128-2.152l.067-.001H9.91V3.288c0-.16.131-.288.294-.288.151 0 .276.112.292.257l.002.031v1.125l7.477-.001V3.288c0-.16.132-.288.294-.288Z"/><path fill="#0F1031" fill-rule="evenodd" d="M14.6 14.522c0 .765-.657 1.291-1.782 1.291-1.237 0-1.768-.458-1.768-1.45v-.116h.625v.086c0 .654.356.942 1.137.942.7 0 1.137-.324 1.137-.814 0-.526-.337-.691-.962-.691h-.594v-.477h.594c.619 0 .9-.251.9-.704 0-.434-.35-.747-1.044-.747-.7 0-1.1.38-1.1.912v.068h-.612v-.086c0-.857.619-1.426 1.731-1.426 1.062 0 1.656.508 1.656 1.218 0 .49-.213.814-.656.966.468.141.737.466.737 1.028Zm3.124.63v.576H15.23v-.575h.944v-2.595h-.719v-.465c.52-.024.738-.238.825-.716h.5v3.776h.944Z" clip-rule="evenodd"/><path fill="#fff" fill-rule="evenodd" d="M6.23 14.04c1.01 0 1.83-.803 1.83-1.793 0-.99-.82-1.791-1.83-1.791-1.01 0-1.83.802-1.83 1.791 0 .99.82 1.792 1.83 1.792Zm0 5.503c2.165 0 3.921-.512 3.921-1.408 0-2.12-1.755-3.84-3.921-3.84s-3.922 1.72-3.922 3.84c0 1.024 1.756 1.408 3.922 1.408Z" clip-rule="evenodd"/><path fill="#0F1031" fill-rule="evenodd" d="M6.212 10.659c-.92 0-1.665.73-1.665 1.63 0 .9.745 1.63 1.665 1.63s1.664-.73 1.664-1.63c0-.9-.745-1.63-1.664-1.63Zm-2.253 1.63c0-1.219 1.008-2.206 2.253-2.206 1.244 0 2.253.987 2.253 2.206 0 .792-.427 1.487-1.068 1.876 1.75.501 3.026 2.084 3.026 3.958 0 .362-.17.665-.428.904-.254.235-.6.418-.988.558-.778.28-1.794.415-2.795.415s-2.018-.135-2.795-.415c-.388-.14-.735-.323-.988-.558-.259-.239-.429-.542-.429-.904 0-1.874 1.277-3.457 3.026-3.958a2.195 2.195 0 0 1-1.067-1.876Zm2.253 2.286c-2.002 0-3.624 1.588-3.624 3.548 0 .168.075.328.245.486.175.162.44.31.787.435.692.25 1.634.38 2.592.38.957 0 1.9-.13 2.591-.38.347-.124.613-.273.787-.435.17-.158.245-.318.245-.486 0-1.96-1.622-3.548-3.623-3.548Z" clip-rule="evenodd"/></svg>