<svg height="56" viewBox="0 0 86 56" width="86" xmlns="http://www.w3.org/2000/svg"><g fill="none" transform="translate(0 .549189)"><path d="m65.4000024 1.54999998h18.5v13.80133972c-5.1234234 0-9.189939 3.4915795-9.189939 7.7986611 0 4.2242531 3.9083071 7.664068 8.8954557 7.7948064l.2944833.0031928v13.8020017h-18.5z" fill="#3d54ff"/><path d="m45.25 28.6202063-6.0247988 4.4651188 2.3848151-7.1097217-6.1083456-4.3501266 7.4986956.0710691 2.2496337-7.1536449 2.2496337 7.1536449 7.4986956-.0710691-6.1083456 4.3501266 2.3848151 7.1097217z" fill="#3d54ff" stroke="#3d54ff" stroke-linecap="round" stroke-linejoin="round"/><g fill="#0f1031"><path d="m37.9000024 2.64453137-19.8750024-.00053137.0000024 9.898901c0 .5798989-.438761 1.0573198-1.0024189 1.1183986l-.1225811.0066014c-.579899 0-1.0573199-.438761-1.1183987-1.0024189l-.0066013-.1225811v-11.02336963c0-.57989899.4387609-1.05731987 1.0024188-1.11839865l.1225812-.00660135 20.7961264-.00110473.0812924-.01182529.1225812-.00660135h46c.5798989 0 1.0573198.43876095 1.1183986 1.00241886l.0066014.12258114v13.8013397c0 .6213204-.5036797 1.125-1.125 1.125-4.3298677 0-7.784069 3.0236769-7.784069 6.6736612s3.4542013 6.6736611 7.784069 6.6736611c.5798989 0 1.0573198.4387609 1.1183986 1.0024188l.0066014.1225812v13.8013397c0 .579899-.438761 1.0573199-1.0024189 1.1183987l-.1225811.0066013h-47.3415543c-.6213203 0-1.125-.5036796-1.125-1.125 0-.579899.438761-1.0573198 1.0024189-1.1183986l.1225811-.0066014 46.2165543-.0000017v-11.607l-.2759288-.0307212c-4.7645197-.5923612-8.4902279-4.1626263-8.6291245-8.5814212l-.0040157-.2558567c0-4.6218218 3.9208678-8.3727471 8.9091508-8.8681336l-.0000818-11.6078673-44.6711265.00210473-.0812924.01182529z"/><path d="m15.9210514.17965278c4.4655125 0 8.0855257 3.62001316 8.0855257 8.0855257 0 2.74407782-1.3669744 5.16888162-3.4571064 6.63059482 6.0453597 1.951537 10.4176321 7.6249742 10.4176321 14.3196104 0 9.1883844-30.0921028 9.1883844-30.0921028 0 0-6.6950052 4.37275446-12.368699 10.4180557-14.3208736-2.09047619-1.460309-3.45753-3.8851741-3.45753-6.62933162 0-4.46551254 3.6200132-8.0855257 8.0855257-8.0855257zm0 16.23967952c-7.06706405 0-12.7960514 5.7289874-12.7960514 12.7960514 0 6.1883844 25.5921028 6.1883844 25.5921028 0 0-7.067064-5.7289874-12.7960514-12.7960514-12.7960514zm0-13.98967952c-3.2228719 0-5.8355257 2.61265385-5.8355257 5.8355257 0 3.22287182 2.6126538 5.83552572 5.8355257 5.83552572 3.2228718 0 5.8355257-2.6126539 5.8355257-5.83552572 0-3.22287185-2.6126539-5.8355257-5.8355257-5.8355257z" transform="translate(.900002 17.542901)"/></g></g></svg>