<svg height="69" viewBox="0 0 84 69" width="84" xmlns="http://www.w3.org/2000/svg"><g fill="none" fill-rule="evenodd" transform="matrix(.93969262 -.34202014 .34202014 .93969262 .655967 24.867476)"><path d="m52.5 1.54999998h17.5v13.80133972c-4.8628341 0-8.80494 3.4915795-8.80494 7.7986611 0 4.2242531 3.7919444 7.664068 8.5254349 7.7948064l.2795051.0031928v13.8020017h-17.5z" fill="#3d54ff" fill-rule="nonzero"/><path d="m68.9000024.375c.5798989 0 1.0573198.43876095 1.1183986 1.00241886l.0066014.12258114v13.8013397c0 .6213204-.5036797 1.125-1.125 1.125-3.6857613 0-6.6736611 2.9878999-6.6736611 6.6736612 0 3.6857612 2.9878998 6.6736611 6.6736611 6.6736611.5798989 0 1.0573198.4387609 1.1183986 1.0024188l.0066014.1225812v13.8013397c0 .579899-.438761 1.0573199-1.0024189 1.1183987l-.1225811.0066013h-50.2773957c-.6213203 0-1.125-.5036796-1.125-1.125 0-.579899.4387609-1.0573198 1.0024189-1.1183986l.1225811-.0066014 49.1523933-.0000017v-11.623l-.1706089-.0217084c-4.2297842-.6152037-7.4977173-4.1974481-7.6242453-8.5671793l-.0038045-.2631114c0-4.4883661 3.3136699-8.2027831 7.6280498-8.8302908l.1706089-.0227101v-11.623l-15.3105765.001c-.579899 0-1.0573198-.43876095-1.1183986-1.00241886l-.0066014-.12258114c0-.57989899.438761-1.05731986 1.0024189-1.11839865l.1225811-.00660135zm-24.2266765 0c.6213203 0 1.125.50367966 1.125 1.125 0 .57989899-.438761 1.05731986-1.0024189 1.11839865l-.1225811.00660135-41.6483259-.001v11.623l.1706136.0227101c4.2297842.6152037 7.4977173 4.1974481 7.6242453 8.5671793l.0038046.2631115c0 4.488366-3.31367002 8.202783-7.6280499 8.8302907l-.1706136.0217084v11.623l7.8495598.0000017c.579899 0 1.0573199.438761 1.1183987 1.0024189l.0066013.1225811c0 .579899-.4387609 1.0573199-1.0024188 1.1183987l-.1225812.0066013h-8.97455744c-.57989899 0-1.05731986-.4387609-1.11839865-1.0024188l-.00660135-.1225812v-13.8013397c0-.6213204.50367966-1.125 1.125-1.125 3.68576126 0 6.67366111-2.9878999 6.67366111-6.6736611 0-3.6857613-2.98789985-6.6736612-6.67366111-6.6736612-.57989899 0-1.05731986-.4387609-1.11839865-1.0024188l-.00660135-.1225812v-13.8013397c0-.57989899.43876095-1.05731986 1.00241886-1.11839865l.12258114-.00660135z" fill="#0f1031" fill-rule="nonzero"/><path d="m35.5337808 18.3828852c-.0138535-.027535-.0151129-.0362961-.0201506-.0425541-.0176317-.021277-.0365228-.0425541-.0566734-.0625795-1.6246378-1.6345771-3.5880567-2.3567448-5.8889972-2.1639998-.6221481.0513152-1.2228863.207764-1.8059928.4280439-2.6548345 1.0125366-4.4469737 3.4869309-4.5705172 6.3092672-.001138.0300382.0076778.0600764.0139749.1026304 4.1144897-1.5244371 8.2163854-3.046371 12.3283563-4.5708081m7.7327722 2.7272155c-6.0804274 2.2541143-12.1532984 4.5057254-18.2450605 6.7648461.0377823.0450573.0617111.0775986.0919369.1088884.7405326.782244 1.6183407 1.3679883 2.6271275 1.7572329.7909089.3066397 1.6145625.4643401 2.4634043.4781076.5415459.0087611 1.0805731-.0362962 1.6082655-.1602036 2.135958-.5031394 3.7379264-1.7046661 4.7870142-3.6246058.0642299-.1176495.0629705-.1189011.2052837-.1051336 1.9898665.1864869 3.9809924.3729739 5.9721183.5619641.0264476.0025031.0541546.0100127.0931963.0175222-.0138535.0500637-.0251882.0951209-.0390417.1389266-1.1737694 3.7322426-3.9507666 6.7247952-7.6068314 8.1979171-.5717717.2290411-1.157397.4180312-1.7568757.5669705-.5516213.1351718-1.1082801.2428085-1.6750142.3041365-.4244209.0463088-.8501012.0750954-1.2783003.0813533-1.0113056.0175223-2.0100171-.0813533-2.9973938-.2966269-1.8702227-.4067669-3.5754627-1.1777466-5.1056448-2.3217002-1.9394901-1.4518449-3.3638819-3.2991923-4.2794723-5.5332812-.2556601-.6245436-.4596844-1.2653579-.6158511-1.9211913-.1372756-.5819895-.2392877-1.1714886-.2921829-1.7672456-.1964679-2.1752641.1146062-4.2791876.9835985-6.285487 1.4067601-3.2428708 3.7530393-5.5620678 7.0174279-6.9600943.5553994-.2365506 1.1284306-.4242891 1.7140558-.5782348.6473364-.1702163 1.3034885-.3041364 1.9709754-.366716 3.3966265-.32165869 6.4846978.5056426 9.2327286 2.5156968 2.1132885 1.5469657 3.5993914 3.572039 4.5023877 6.0176466.2266937.608273.4042704 1.2328166.5264331 1.8723793.0289664.1414297.0541545.284111.0806021.4255407.0062971.033793.0088159.0700891.0151129.1113916" fill="#3d54ff"/></g></svg>