<svg xmlns="http://www.w3.org/2000/svg" fill="none" viewBox="0 0 24 24"><g clip-path="url(#a)"><path fill="#fff" d="M4.971 9.34V6.392c0-1.148.937-2.079 2.092-2.079h11.532c1.156 0 2.092.93 2.092 2.079v10.515a2.085 2.085 0 0 1-2.092 2.08H10.48"/><path fill="#334AFF" d="M4.971 7.97V6.391c0-1.148.937-2.079 2.092-2.079h11.532c1.156 0 2.092.93 2.092 2.079v1.623L4.971 7.971V7.97Z"/><path fill="#231F20" fill-rule="evenodd" d="M7.063 4.673c-.959 0-1.732.772-1.732 1.719V9.34a.36.36 0 0 1-.72 0V6.392c0-1.35 1.1-2.439 2.452-2.439h11.532a2.445 2.445 0 0 1 2.452 2.439v10.515c0 1.35-1.1 2.44-2.452 2.44H10.48a.36.36 0 0 1 0-.72h8.115c.959 0 1.732-.772 1.732-1.72V6.392c0-.947-.773-1.719-1.732-1.719H7.063Z" clip-rule="evenodd"/><path fill="#fff" d="M5.599 19.69c2.367 0 4.286-1.908 4.286-4.26 0-2.353-1.919-4.26-4.286-4.26-2.367 0-4.286 1.907-4.286 4.26 0 2.352 1.919 4.26 4.286 4.26Z"/><path fill="#231F20" fill-rule="evenodd" d="M5.599 11.53c-2.17 0-3.926 1.748-3.926 3.9 0 2.151 1.756 3.9 3.926 3.9s3.926-1.749 3.926-3.9c0-2.152-1.755-3.9-3.926-3.9Zm-4.646 3.9c0-2.554 2.082-4.62 4.646-4.62s4.646 2.066 4.646 4.62c0 2.553-2.082 4.62-4.646 4.62S.953 17.982.953 15.43Z" clip-rule="evenodd"/><path fill="#fff" d="M5.042 13.185v3.152h2.893"/><path fill="#231F20" fill-rule="evenodd" d="M5.042 12.825a.36.36 0 0 1 .36.36v2.792h2.533a.36.36 0 0 1 0 .72H4.682v-3.512a.36.36 0 0 1 .36-.36ZM12.22 10.604a.36.36 0 0 1 .36-.36h5.892a.36.36 0 1 1 0 .72H12.58a.36.36 0 0 1-.36-.36ZM9.44 10.604a.36.36 0 0 1 .36-.36h1.086a.36.36 0 0 1 0 .72H9.8a.36.36 0 0 1-.36-.36ZM12.22 13.019a.36.36 0 0 1 .36-.36h5.892a.36.36 0 1 1 0 .72H12.58a.36.36 0 0 1-.36-.36ZM12.22 15.431a.36.36 0 0 1 .36-.36h5.892a.36.36 0 1 1 0 .72H12.58a.36.36 0 0 1-.36-.36Z" clip-rule="evenodd"/></g><defs><clipPath id="a"><path fill="#fff" d="M1 4h20v16H1z"/></clipPath></defs></svg>