<svg xmlns="http://www.w3.org/2000/svg" fill="none" viewBox="0 0 24 24"><path fill="#fff" d="m1.329 9.553 13.099-4.744 4.093 10.98-13.099 4.744-1.263-3.389s1.809-.813 1.127-2.847c-.683-2.033-2.643-1.22-2.643-1.22L1.329 9.553Z"/><path fill="#334AFF" d="m14.323 4.956 4.488-1.623 1.288 3.516c-1.247.45-1.932 1.706-1.53 2.803.394 1.076 1.688 1.601 2.914 1.195l.072-.025 1.288 3.517-4.488 1.622-4.032-11.005Z"/><path fill="#0F1031" fill-rule="evenodd" d="M12.65 5.533a.308.308 0 0 0-.393-.182L1.288 9.317l-.03.013a.304.304 0 0 0-.153.378l1.288 3.516.013.03a.308.308 0 0 0 .38.152 1.825 1.825 0 0 1 2.335 1.082 1.806 1.806 0 0 1-1.089 2.319.304.304 0 0 0-.183.39l1.288 3.517.013.03a.308.308 0 0 0 .38.152l2.302-.832.03-.014a.304.304 0 0 0 .153-.377l-.013-.03a.308.308 0 0 0-.38-.153l-2.013.728-1.085-2.96.042-.022a2.413 2.413 0 0 0 1.132-2.957l-.026-.067a2.439 2.439 0 0 0-2.754-1.475l-.046.01-1.085-2.961 10.68-3.862.03-.013a.304.304 0 0 0 .153-.378Zm6.2-2.277a.308.308 0 0 0-.38-.152l-4.215 1.524-.031.013a.304.304 0 0 0-.153.378l.014.03a.308.308 0 0 0 .38.153l3.926-1.42 1.085 2.96-.042.022a2.413 2.413 0 0 0-1.132 2.957l.026.067a2.439 2.439 0 0 0 2.754 1.476l.046-.01 1.085 2.96-12.604 4.558-.031.013a.304.304 0 0 0-.153.378c.058.158.234.24.394.182l12.893-4.662.03-.013a.304.304 0 0 0 .153-.378l-1.288-3.516-.013-.03a.308.308 0 0 0-.38-.152 1.825 1.825 0 0 1-2.335-1.081 1.806 1.806 0 0 1 1.089-2.32.304.304 0 0 0 .183-.39l-1.288-3.516-.013-.03Z" clip-rule="evenodd"/><path fill="#334AFF" fill-rule="evenodd" d="m11.543 10.787-.01-.01a1.949 1.949 0 0 0-2.156.26 1.913 1.913 0 0 0-.582 2.033l.013.024 2.735-2.307Zm2.237-.022L9.733 14.18c.014.008.023.014.034.019.263.13.543.199.838.204a1.945 1.945 0 0 0 1.963-1.664c.005-.036.005-.036.043-.046l1.583-.41.026-.004.003.039a3.527 3.527 0 0 1-1.583 3.1 3.53 3.53 0 0 1-.722.373 3.553 3.553 0 0 1-.796.202 3.588 3.588 0 0 1-1.526-.118 3.523 3.523 0 0 1-1.95-1.445 3.426 3.426 0 0 1-.574-2.116c.057-.956.442-1.765 1.149-2.423.12-.112.25-.213.385-.307a3.587 3.587 0 0 1 3.074-.491 3.488 3.488 0 0 1 1.716 1.116c.115.133.219.276.31.428l.06.1.014.028Z" clip-rule="evenodd"/></svg>