<svg xmlns="http://www.w3.org/2000/svg" fill="none" viewBox="0 0 24 24"><path fill="#fff" d="M21.19 2.675H2.984l2.177 2.58.011-.002.037-.002h11.438a.337.337 0 0 1 .037.673l-.037.002H5.726l3.737 4.427c.057.07.096.154.113.242l.008.054.003.054v6.098l5 4.379V10.703c0-.096.025-.19.073-.274l.026-.042.03-.04 6.475-7.672Z"/><path fill="#334AFF" fill-rule="evenodd" d="m14.935 21.686-5.61-4.667-.211-2.013h6.11v3.963l-.29 2.717Z" clip-rule="evenodd"/><path fill="#0F1031" fill-rule="evenodd" d="M21.9 2.874A.555.555 0 0 0 21.45 2H2.724l-.044.002-.043.005a.555.555 0 0 0-.34.896l6.619 7.844v6.109l.003.053c.013.14.08.272.187.366l5.24 4.588.034.027.035.025a.551.551 0 0 0 .843-.47V10.747l6.615-7.838.026-.035Zm-18.917-.2h18.208l-6.475 7.674-.03.04-.026.04a.554.554 0 0 0-.072.275V21.18L9.585 16.8v-6.097l-.002-.054-.008-.054a.556.556 0 0 0-.113-.242L5.727 5.926h10.919l.036-.002a.337.337 0 0 0 .299-.336.336.336 0 0 0-.335-.337H5.208l-.037.002-.01.001-2.178-2.58Z" clip-rule="evenodd"/><path fill="#0F1031" fill-rule="evenodd" d="M9.18 14.978c0-.186.15-.337.335-.337h5.32c.184 0 .334.15.334.337 0 .187-.15.338-.335.338h-5.32a.336.336 0 0 1-.335-.338Z" clip-rule="evenodd"/></svg>