<svg xmlns="http://www.w3.org/2000/svg" width="50" height="40" fill="none" viewBox="0 0 50 40"><g clip-path="url(#clip0_1483_4061)"><path fill="#334AFF" d="M9.928 9.924V5.98c0-2.87 2.341-5.198 5.23-5.198h28.83c2.889 0 5.23 2.327 5.23 5.198v4.058l-39.29-.11v-.004Z"/><path stroke="#231F20" stroke-linecap="round" stroke-miterlimit="10" stroke-width="1.8" d="M9.928 13.349V5.98c0-2.87 2.341-5.198 5.23-5.198h28.83c2.889 0 5.23 2.327 5.23 5.198v26.288c0 2.871-2.341 5.198-5.23 5.198H23.699"/><path fill="#fff" stroke="#231F20" stroke-miterlimit="10" stroke-width="1.8" d="M11.498 39.223c5.918 0 10.715-4.768 10.715-10.65 0-5.88-4.797-10.648-10.716-10.648C5.58 17.925.783 22.692.783 28.574c0 5.88 4.798 10.649 10.716 10.649Z"/><path fill="#fff" d="M10.105 22.962v7.881h7.232"/><path stroke="#231F20" stroke-linecap="round" stroke-miterlimit="10" stroke-width="1.8" d="M10.105 22.962v7.881h7.232M28.95 16.51h14.73M22 16.51h2.715M28.95 22.547h14.73M28.95 28.579h14.73"/></g><defs><clipPath id="clip0_1483_4061"><path fill="#fff" d="M0 0h50v40H0z"/></clipPath></defs></svg>