<svg height="65" viewBox="0 0 73 65" width="73" xmlns="http://www.w3.org/2000/svg"><g fill="none" fill-rule="evenodd" transform="translate(0 .764224)"><path d="m52.9113818 52.2c5.2707882-2.1755859 15.1776291-9.3383706 19.0886182-15.2 0 0-2.6320414-2.3426818-7.8961241-7.0280455-1.369982 1.7408947-3.5122923 2.8621358-5.9217059 2.8621358-4.1365779 0-7.4906446-3.3043045-7.4906446-7.3795105 0-2.0379888 2.1940077-5.2188256 2.1940077-5.2188256l-6.7003006-6.4357542c-1.7973094 2.6202992-5.5054239 6.9211139-10.2407153 10.3877162-2.1802045 1.5960795-4.578153 3.0153203-7.1076031 4.0122838" fill="#3d54ff"/><path d="m12.8213214 1.0892253.1022507.08390325 7.4955822 6.91504096c.4559776.42066163.4853575 1.13105275.0656727 1.58792954-.859589.93576455-1.3448986 2.15884455-1.3448986 3.46087095 0 2.8189076 2.2679854 5.1014126 5.0620995 5.1014126 1.4433602 0 2.7866962-.6101425 3.7400756-1.663819.4197125-.463867 1.1372283-.4962527 1.5970231-.072083l3.8453936 3.5474507c.4566752.4212918.4853591 1.1330246.0640674 1.5896998-.4212918.4566752-1.1330246.4853591-1.5896998.0640673l-3.0758878-2.8376984-.0175809.0158016c-1.2017861.9666804-2.6876009 1.5368577-4.2663361 1.6005924l-.2970551.0059886c-4.0399804 0-7.3120995-3.2930672-7.3120995-7.3514126 0-1.351178.3652642-2.6470461 1.0344201-3.77026346l.2076515-.32770654-5.892-5.435-.0280347.03374722c-5.89189877 6.78451358-9.25770131 13.93906008-9.56425834 20.17750068l-.01565007.4055428c-.15112088 5.3832434 2.01202915 7.8371836 5.85005668 8.4094494 8.29866113 1.2358897 16.77314393-2.1007441 26.04878253-8.9689765l.5030834-.3762709.4834402-.3808878c4.5113973-3.577101 7.5998517-6.5702494 9.7001105-9.7272384.3602938-.5415732 1.095183-.6593422 1.6042454-.2825744l.0986236.0819684 6.9202183 6.436916c.4771371.4438142.4785815 1.1989054.0031458 1.6445417l-.1793126.1730096c-1.1918453 1.2109378-1.8734739 2.8472807-1.8734739 4.5965817 0 3.5881455 2.8584689 6.4905175 6.375563 6.4905175 1.9926567 0 3.8315358-.9364404 5.033963-2.5113624.3763367-.4929204 1.0727727-.5828034 1.5595119-.22465l.1008986.0836212 6.9053176 6.423378c.3996898.3717945.4747984.9768687.1781408 1.4351017-5.5874802 8.6307168-20.135346 17.2594376-28.113155 18.0453067-7.1354232.7028883-12.012547-.3017396-17.5542559-4.0277834l-.3978199-.2713012-.4214224-.2948484c-3.9672161-2.8080127-10.7997262-8.5102809-20.5317505-17.1300353-2.98476606-1.5594626-4.68239199-4.7230584-4.54302861-9.6874747.20123145-7.1971918 4.10186157-15.35498627 10.94379051-22.91279406.3897775-.43056042 1.0361689-.48914899 1.4945915-.15575984zm33.5106786 14.4127747-.0310546.0448332c-2.1136659 2.852323-4.9687924 5.5790114-8.8625976 8.7032324l-1.0578322.8384275c-9.3557191 7.0325669-18.0332287 10.7126062-26.70023263 9.9484288l2.81746413 2.4569128c6.9411552 6.0183942 11.8955733 10.0399416 14.8440982 12.0513502l.1905457.1290648c5.0758335 3.4128062 9.4332764 4.3103862 16.0782528 3.6558103 6.9924518-.6888046 20.0534835-8.2874194 25.7283258-15.9936983l.1860304-.2583617-5.353-4.981-.170089.1648591c-1.4957305 1.3956162-3.4454005 2.2279731-5.5358167 2.3007584l-.2995545.0052095c-4.767476 0-8.625563-3.9173432-8.625563-8.7405175 0-1.9058851.6059502-3.7172683 1.6936427-5.2032176l.2523805-.3270919z" fill="#0f1031" fill-rule="nonzero"/><g fill="#fff"><path d="m53.9849761 41.7739006c-.900111.9750922-.837371 2.4931996.1397012 3.3915523.9779088.8983526 2.5012379.8349591 3.4013489-.140133.9009476-.9750922.8382075-2.4931996-.1397012-3.3907181s-2.5004014-.8357933-3.4013489.1392988"/><path d="m46.7643828 35.3742984c-.9009578.9750253-.8373805 2.4930289.1397028 3.390486.9779198.8991251 2.5012663.835736 3.4013876-.1392894.9009578-.9750254.8373804-2.4930289-.1405394-3.39132-.9779199-.8974571-2.5004298-.834902-3.400551.1401234"/><path d="m39.5431156 28.9744132c-.900111.97517-.8373709 2.4933988.1397013 3.390989.9779087.8984243 2.5012379.8350258 3.4013489-.1401442.9009475-.9743358.8382075-2.4933988-.1397013-3.390989-.9779087-.8975902-2.5004013-.8350258-3.4013489.1401442"/></g><g fill-rule="nonzero" transform="translate(13.8847 39.883921)"><path d="m23.709931 11.8550069c0 6.5470345-5.3073103 11.8543448-11.8551724 11.8543448-6.54703446 0-11.85434481-5.3073103-11.85434481-11.8543448 0-6.54703449 5.30731035-11.85517242 11.85434481-11.85517242 6.5478621 0 11.8551724 5.30813793 11.8551724 11.85517242" fill="#ffcf48"/><path d="m11.3017655 11.9455448-4.14537929-.1183448 9.40386209-8.64910345-4.1155862 7.72965515 4.1453793.1183449-8.82289657 9.3682758z" fill="#161b7d"/></g></g></svg>