<svg xmlns="http://www.w3.org/2000/svg" fill="none" viewBox="0 0 24 24"><path fill="#334AFF" fill-rule="evenodd" d="M14.681 11.815c0 1.963-1.628 3.554-3.636 3.554-2.009 0-3.636-1.591-3.636-3.554 0-1.963 1.627-3.554 3.636-3.554 2.008 0 3.636 1.591 3.636 3.554Z" clip-rule="evenodd"/><path fill="#fff" fill-rule="evenodd" d="M8.42 3.665a.683.683 0 0 1 .357-.91.711.711 0 0 1 .93.35.683.683 0 0 1-.356.908.711.711 0 0 1-.93-.348Zm10.877 2.32a.683.683 0 0 0-.357.91.711.711 0 0 0 .93.349.683.683 0 0 0 .357-.91.711.711 0 0 0-.93-.349Zm-16.524 5.73a.683.683 0 0 1 .357-.91.711.711 0 0 1 .93.35.683.683 0 0 1-.357.909l-.047.018a.71.71 0 0 1-.883-.367Zm14.29 4.2a.683.683 0 0 0-.357.91.711.711 0 0 0 .93.35.683.683 0 0 0 .358-.91.711.711 0 0 0-.93-.35Zm-9.312 4.072a.683.683 0 0 0-.357.909.711.711 0 0 0 .93.349.683.683 0 0 0 .358-.91.711.711 0 0 0-.93-.349Z" clip-rule="evenodd"/><path fill="#0F1031" fill-rule="evenodd" d="M9.704 4.62a1.37 1.37 0 0 0 .654-1.799 1.43 1.43 0 0 0-1.87-.701 1.372 1.372 0 0 0-.718 1.827c.224.49.703.791 1.215.82l.701 2.46.013.036c.066.162.249.253.425.205a.348.348 0 0 0 .256-.388l-.008-.04-.688-2.412.02-.009Zm11.173 1.432a1.37 1.37 0 0 1-.654 1.797l-.063.03a1.44 1.44 0 0 1-1.59-.297l-.032.022-3.11 1.79-.035.018a.36.36 0 0 1-.453-.14.343.343 0 0 1 .094-.455l.032-.021 3.11-1.791.043-.021c-.185-.65.14-1.351.788-1.634a1.43 1.43 0 0 1 1.87.702Zm-9.832 1.862c2.204 0 3.992 1.746 3.992 3.901s-1.788 3.902-3.992 3.902c-2.205 0-3.992-1.747-3.992-3.902 0-2.155 1.787-3.901 3.992-3.901Zm4.268 6.601.035.02.034.023 1.115.882a1.43 1.43 0 0 1 2.147.542 1.372 1.372 0 0 1-.718 1.827 1.43 1.43 0 0 1-1.87-.701 1.352 1.352 0 0 1-.001-1.123l-1.12-.886-.03-.026a.342.342 0 0 1-.023-.463.361.361 0 0 1 .43-.095Zm-5.287 2.028a.346.346 0 0 0-.218-.413.36.36 0 0 0-.443.167l-.016.034-1.137 2.91a1.44 1.44 0 0 0-.75.11 1.372 1.372 0 0 0-.718 1.828 1.43 1.43 0 0 0 1.87.701l.064-.03a1.37 1.37 0 0 0 .196-2.352l1.14-2.919.012-.036Zm-2.632 4.353a.683.683 0 0 1 .357-.91.711.711 0 0 1 .93.35.683.683 0 0 1-.356.909.711.711 0 0 1-.93-.35Zm9.312-4.07a.683.683 0 0 1 .357-.91.711.711 0 0 1 .93.349.683.683 0 0 1-.356.91.711.711 0 0 1-.93-.35Zm-8.942-5.01c0-1.772 1.469-3.207 3.28-3.207 1.813 0 3.281 1.435 3.281 3.206 0 1.77-1.468 3.206-3.28 3.206-1.812 0-3.28-1.435-3.28-3.206Zm-3.054-.944c.041.09.071.181.092.274l1.327.076.038.004a.35.35 0 0 1 .296.363.352.352 0 0 1-.337.327h-.039l-1.317-.075c-.116.369-.388.689-.778.858a1.43 1.43 0 0 1-1.87-.701 1.372 1.372 0 0 1 .718-1.828 1.43 1.43 0 0 1 1.87.702Zm-1.937.843a.683.683 0 0 1 .357-.91.711.711 0 0 1 .93.35.683.683 0 0 1-.357.909l-.047.018a.71.71 0 0 1-.883-.367Zm16.524-5.73a.683.683 0 0 0-.357.91.711.711 0 0 0 .93.349.683.683 0 0 0 .357-.91.711.711 0 0 0-.93-.349ZM8.42 3.665a.683.683 0 0 1 .357-.91.711.711 0 0 1 .93.35.683.683 0 0 1-.356.908.711.711 0 0 1-.93-.348Z" clip-rule="evenodd"/></svg>