<svg xmlns="http://www.w3.org/2000/svg" fill="none" viewBox="0 0 217 174"><g clip-path="url(#a)"><path fill="#334AFF" fill-rule="evenodd" d="M81.323 98.607 28.269 47.651s-38.776 44.488-20.584 67.918c0 0 10.292 16.386 52.981 8.768l20.657-25.73Z" clip-rule="evenodd"/><path fill="#fff" d="m123.666 89.869 51.873 47.788c-53.588 45.093-95.305 36.761-109.464 26.958l-42.48-38.394c55.55 4.574 89.86-22.329 100.071-36.352Z"/><path fill="#0F1031" fill-rule="evenodd" d="M25.953 46.7a2.504 2.504 0 0 1 2.314-1.535h.145c.906 0 1.735.485 2.177 1.258l52.474 50.47a2.477 2.477 0 0 1-.04 3.609l-.007.006-.045.043-.214.207c-.196.192-.501.497-.915.928-.827.861-2.087 2.223-3.78 4.194-2.683 3.123-6.452 7.77-11.306 14.363l.06-.017c22.629-6.255 44.602-18.893 54.718-33.047a2.516 2.516 0 0 1 3.785-.346l51.459 49.518a2.474 2.474 0 0 1-.04 3.608l-1.702-1.823c1.702 1.823 1.703 1.822 1.702 1.823l-.012.011-.028.026-.103.093a30.174 30.174 0 0 1-.387.345c-.339.299-.835.73-1.482 1.274a132.592 132.592 0 0 1-5.599 4.442 159.382 159.382 0 0 1-20.253 12.949c-16.905 9.07-40.161 17.4-64.947 13.766-9.235-1.362-17.907-5.292-25.115-11.01a1.44 1.44 0 0 1-.073-.06L14.95 124.291c-2.66-1.368-5.077-3.044-7.187-5.059C1.432 113.217-.29 105.34.479 97.293c.763-7.988 3.984-16.365 7.815-23.877 3.847-7.541 8.395-14.377 11.97-19.314a162.17 162.17 0 0 1 4.45-5.87c.516-.649.936-1.164 1.24-1.532Zm2.618 4.704a157.754 157.754 0 0 0-4.241 5.6c-3.484 4.812-7.877 11.421-11.568 18.658-3.707 7.267-6.62 15.002-7.297 22.1-.672 7.04.859 13.222 5.761 17.879l.005.005c5.34 5.102 13.447 7.872 23.278 8.523 7.605.504 16.08-.274 24.757-2.102 6.602-9.253 11.597-15.469 14.986-19.413 1.478-1.72 2.65-3.009 3.519-3.929l-49.2-47.321Zm-1.268 76.901L61.974 158c6.555 5.19 14.396 8.724 22.684 9.947 23.267 3.411 45.383-4.395 61.836-13.221a154.654 154.654 0 0 0 19.608-12.538 127.483 127.483 0 0 0 5.237-4.147L123.868 92.36c-11.623 14.447-33.677 26.565-55.71 32.656-11.65 3.22-23.477 4.809-33.982 4.113a62.607 62.607 0 0 1-6.873-.824Z" clip-rule="evenodd"/><path fill="#fff" d="M94.258 84.534 42.385 36.746C95.973-8.347 137.69-.014 151.849 9.788l42.479 38.394c-55.549-4.574-89.859 22.329-100.07 36.352Z"/><path fill="#334AFF" fill-rule="evenodd" d="m156.412 49.663-20.656 25.73 52.909 51.029s44.139-49.447 16.453-71.943c0 0-10.945-12.003-48.633-4.744l-.073-.072Z" clip-rule="evenodd"/><path fill="#0F1031" fill-rule="evenodd" d="M52.142 44.754a2.517 2.517 0 0 1 3.541-.021L93.294 81.62c11.628-14.438 33.671-26.548 55.693-32.635 11.651-3.221 23.477-4.81 33.982-4.114 10.475.694 19.908 3.683 26.417 9.9l.001.002c6.289 6.013 7.986 13.815 7.194 21.764-.785 7.886-4.024 16.122-7.867 23.492-3.858 7.399-8.414 14.091-11.991 18.921a156.723 156.723 0 0 1-4.454 5.74 110.686 110.686 0 0 1-1.659 1.989l-.095.11-.026.029-.007.008-.002.003c-.001.001-.001.001-1.892-1.629l1.891 1.63a2.516 2.516 0 0 1-3.615.173l-52.836-49.807a2.476 2.476 0 0 1 .078-3.676l.002-.002.001-.001.002-.001.035-.032a30.642 30.642 0 0 0 1.027-.99c.767-.772 1.952-2.018 3.572-3.871 2.696-3.086 6.593-7.849 11.771-14.9l-.186.051c-22.629 6.255-44.602 18.894-54.719 33.048a2.515 2.515 0 0 1-3.802.33L52.165 48.269a2.473 2.473 0 0 1-.022-3.515Zm105.839 7.158c-.028.045-.057.09-.088.133-6.925 9.722-12 15.984-15.366 19.835a95.98 95.98 0 0 1-3.176 3.479l49.021 46.209.005-.005c1.067-1.31 2.572-3.21 4.312-5.558 3.485-4.705 7.88-11.17 11.578-18.261 3.713-7.122 6.635-14.71 7.331-21.696.689-6.92-.811-13.034-5.684-17.694-5.34-5.101-13.447-7.871-23.278-8.523-7.575-.502-16.013.268-24.655 2.081Z" clip-rule="evenodd"/><path fill="#0F1031" fill-rule="evenodd" d="M68.202 14.9C85.107 5.833 108.363-2.497 133.15 1.136h.003c9.235 1.363 17.904 5.292 25.113 11.01l.072.06 44.139 37.804a2.473 2.473 0 0 1 .261 3.506 2.517 2.517 0 0 1-3.532.258L155.102 16c-6.555-5.19-14.396-8.724-22.685-9.947-23.266-3.41-45.381 4.395-61.834 13.222a154.488 154.488 0 0 0-19.609 12.538 127.123 127.123 0 0 0-5.386 4.272 78.843 78.843 0 0 0-1.74 1.506l-.083.076-.018.017-.003.003a2.517 2.517 0 0 1-3.539-.132 2.473 2.473 0 0 1 .133-3.513l1.63 1.743a244.505 244.505 0 0 1-1.628-1.745l.002-.002.009-.008.028-.025.102-.093.388-.346c.338-.298.835-.73 1.481-1.274a132.014 132.014 0 0 1 5.6-4.442A159.508 159.508 0 0 1 68.202 14.9Z" clip-rule="evenodd"/></g><defs><clipPath id="a"><path fill="#fff" d="M0 0h217v174H0z"/></clipPath></defs></svg>
