<svg xmlns="http://www.w3.org/2000/svg" fill="none" viewBox="0 0 24 24"><path fill="#fff" d="M14.782 3.46A1.535 1.535 0 0 0 13.24 2H3.543l-.065.001A1.533 1.533 0 0 0 2 3.524v16.952l.001.064c.035.812.712 1.46 1.542 1.46h9.697l.065-.001a1.533 1.533 0 0 0 1.478-1.523v-4.481l-.002-.037a.337.337 0 0 0-.337-.298V7.385c.187 0 .339-.15.339-.335V3.524l-.001-.064Z"/><path fill="#334AFF" d="M2.427 17.798h11.938v2.859a.898.898 0 0 1-.904.892H3.331a.898.898 0 0 1-.904-.892v-2.859Z"/><path fill="#0F1031" fill-rule="evenodd" d="M13.245 2c.83 0 1.507.648 1.541 1.46l.001.064V7.05a.337.337 0 0 1-.338.335.337.337 0 0 1-.337-.299l-.002-.036V3.524a.86.86 0 0 0-.815-.853l-.05-.002H3.547a.861.861 0 0 0-.864.805l-.001.05v16.952c0 .455.36.827.814.853l.051.002h9.698c.46 0 .837-.356.864-.805l.001-.05v-4.481c0-.185.152-.335.339-.335.174 0 .318.13.336.298l.002.037v4.48c0 .821-.655 1.49-1.477 1.524l-.065.001H3.547c-.83 0-1.507-.648-1.541-1.46l-.002-.064V3.524c0-.82.656-1.489 1.478-1.523L3.547 2h9.698Zm6.22 4.23a.342.342 0 0 1 .48.008c2.74 2.784 2.74 7.325 0 10.11a.342.342 0 0 1-.48.006.332.332 0 0 1-.006-.473c2.485-2.525 2.485-6.652 0-9.177a.332.332 0 0 1 .007-.473ZM9.38 6.705a.332.332 0 0 0-.006-.473.342.342 0 0 0-.48.007c-2.74 2.784-2.74 7.325 0 10.11.131.132.346.135.48.006a.332.332 0 0 0 .006-.473c-2.484-2.525-2.484-6.652 0-9.177Zm7.95 1.306a.341.341 0 0 1 .48.007c1.782 1.811 1.777 4.744-.015 6.565a.342.342 0 0 1-.479.007.332.332 0 0 1-.007-.473c1.537-1.562 1.541-4.082.014-5.633a.332.332 0 0 1 .007-.473Zm-5.814.473a.332.332 0 0 0-.007-.473.342.342 0 0 0-.479.007c-1.782 1.811-1.777 4.744.014 6.565.13.132.345.135.48.007a.332.332 0 0 0 .006-.473c-1.536-1.562-1.54-4.082-.014-5.633Zm2.904.997c.993 0 1.799.796 1.799 1.777 0 .982-.806 1.778-1.8 1.778a1.788 1.788 0 0 1-1.798-1.777c0-.982.805-1.778 1.799-1.778Zm-1.122 1.778c0-.612.502-1.108 1.122-1.108.62 0 1.121.496 1.121 1.108 0 .612-.502 1.108-1.121 1.108-.62 0-1.122-.496-1.122-1.108Z" clip-rule="evenodd"/></svg>