<svg xmlns="http://www.w3.org/2000/svg" fill="none" viewBox="0 0 24 24"><path fill="#fff" d="m5.393 4.048.024.019L7.516 5.97a.25.25 0 0 1 .015.356c-.25.268-.392.619-.392.991 0 .808.66 1.462 1.475 1.462.421 0 .813-.175 1.091-.477.096-.104.278.12.383.214l1.713 1.684s2.448-2.094 2.854-2.694c.082-.121.143-.294.26-.21l.022.02 1.938 1.771c.109.1.11.27 0 .37l-.051.048a1.844 1.844 0 1 0 2.758 2.436.26.26 0 0 1 .356-.05l.023.018 1.934 1.769a.25.25 0 0 1 .04.322c-1.554 2.361-5.612 4.727-7.83 4.942-1.943.188-3.28-.07-4.781-1.037l-.096-.063c-1.022-.675-2.895-2.195-5.628-4.567l-.35-.303c-.82-.419-1.286-1.271-1.248-2.619.056-1.966 1.143-4.2 3.05-6.27a.26.26 0 0 1 .341-.036Z"/><path fill="#334AFF" fill-rule="evenodd" d="M16.654 18.072c1.476-.599 4.25-2.57 5.346-4.184l-2.211-1.935c-.384.48-.984.788-1.659.788-1.158 0-2.097-.91-2.097-2.032 0-.56.614-1.436.614-1.436L14.771 7.5c-.504.721-1.542 1.905-2.868 2.86a9.05 9.05 0 0 1-1.99 1.104" clip-rule="evenodd"/><path fill="#0F1031" fill-rule="evenodd" d="m5.417 4.067-.024-.019a.26.26 0 0 0-.341.035c-1.907 2.071-2.994 4.305-3.05 6.271-.038 1.348.427 2.2 1.249 2.619l.349.303c2.733 2.372 4.606 3.892 5.628 4.567l.096.063c1.5.966 2.838 1.225 4.782 1.037 2.217-.215 6.275-2.581 7.83-4.942a.25.25 0 0 0-.041-.322L19.96 11.91l-.023-.018a.26.26 0 0 0-.356.05 1.844 1.844 0 1 1-2.758-2.436l.052-.049a.25.25 0 0 0-.001-.369l-1.938-1.772-.022-.018a.26.26 0 0 0-.367.063c-.614.908-1.525 1.764-2.87 2.801l-.12.087c-2.615 1.908-5.007 2.836-7.354 2.492-1.104-.161-1.731-.861-1.688-2.373l.004-.1c.083-1.743 1.04-3.74 2.716-5.629l.024-.027 1.731 1.57-.023.032a1.942 1.942 0 0 0-.343 1.104c0 1.086.89 1.967 1.99 1.967l.07-.001a1.995 1.995 0 0 0 1.201-.453L9.9 8.82l.9.815a.26.26 0 0 0 .362-.015.25.25 0 0 0-.014-.356l-1.077-.977a.26.26 0 0 0-.365.016c-.278.302-.67.477-1.09.477a1.469 1.469 0 0 1-1.476-1.462c0-.372.141-.723.392-.991a.25.25 0 0 0-.015-.356l-2.1-1.904Zm9.361 3.852.026-.035 1.531 1.4-.033.04a2.337 2.337 0 0 0-.533 1.488 2.353 2.353 0 0 0 2.357 2.349l.076-.001a2.353 2.353 0 0 0 1.592-.688l.012-.014 1.578 1.443-.046.065c-1.58 2.151-5.293 4.281-7.283 4.474-1.873.182-3.107-.068-4.54-1.016l-.147-.099c-.884-.606-2.35-1.784-4.39-3.532l-.605-.52c2.393.267 4.788-.672 7.367-2.528l.25-.182.137-.106c1.182-.92 2.033-1.71 2.651-2.538Z" clip-rule="evenodd"/><path fill="#fff" fill-rule="evenodd" d="M16.955 15.202a.652.652 0 0 0 .04.934c.273.247.7.23.952-.039a.651.651 0 0 0-.04-.933.684.684 0 0 0-.952.038ZM14.933 13.44a.651.651 0 0 0 .039.934c.274.247.7.23.953-.039a.652.652 0 0 0-.04-.933.684.684 0 0 0-.952.038ZM12.91 11.678a.652.652 0 0 0 .04.934c.274.247.7.23.952-.039a.651.651 0 0 0-.039-.933.684.684 0 0 0-.952.038Z" clip-rule="evenodd"/><path fill="#fff" d="m5.394 4.05.023.019 2.1 1.91a.25.25 0 0 1 .014.357c-.25.269-.392.62-.392.994 0 .81.661 1.466 1.476 1.466.42 0 .813-.175 1.09-.478.096-.104.279.12.384.215l1.712 1.689S14.25 8.12 14.656 7.52c.082-.122.143-.295.26-.21l.022.018 1.937 1.777c.11.1.11.27.001.37l-.052.05a1.847 1.847 0 0 0-.541 1.31c0 1.022.826 1.85 1.844 1.85.576 0 1.108-.268 1.456-.717a.26.26 0 0 1 .356-.05l.023.019 1.933 1.773a.25.25 0 0 1 .041.323c-1.555 2.369-5.613 4.743-7.83 4.958-1.944.189-3.28-.07-4.781-1.04l-.096-.063c-1.022-.677-2.895-2.202-5.628-4.581l-.35-.305c-.821-.42-1.287-1.275-1.248-2.627.056-1.972 1.142-4.213 3.05-6.29a.26.26 0 0 1 .34-.035Z"/><path fill="#334AFF" fill-rule="evenodd" d="M16.651 18.114c1.472-.599 4.237-2.57 5.329-4.184l-2.204-1.935c-.383.48-.98.788-1.653.788-1.155 0-2.091-.91-2.091-2.031 0-.561.612-1.437.612-1.437l-1.87-1.771c-.502.72-1.537 1.905-2.859 2.859-.609.44-1.278.83-1.984 1.104" clip-rule="evenodd"/><path fill="#0F1031" fill-rule="evenodd" d="m5.479 4.078-.028-.022a.303.303 0 0 0-.398.041c-1.907 2.078-2.995 4.32-3.05 6.298-.04 1.362.432 2.228 1.261 2.655 2.724 2.378 4.634 3.95 5.74 4.72l.113.079.107.072c1.544 1.023 2.902 1.3 4.89 1.106 2.223-.216 6.28-2.589 7.838-4.96a.292.292 0 0 0-.048-.378l-1.927-1.768-.027-.022a.303.303 0 0 0-.415.06 1.786 1.786 0 0 1-1.417.696c-.99 0-1.794-.805-1.794-1.8 0-.486.192-.94.527-1.276l.05-.048a.293.293 0 0 0 0-.432l-1.932-1.772-.026-.021a.302.302 0 0 0-.428.074c-.609.903-1.514 1.756-2.852 2.791l-.13.095c-2.594 1.895-4.964 2.816-7.287 2.475-1.078-.159-1.687-.84-1.645-2.33l.004-.109c.085-1.723 1.028-3.698 2.678-5.57l.014-.015L6.96 6.23l-.02.03a1.989 1.989 0 0 0-.33 1.1c0 1.11.906 2.01 2.026 2.01l.078-.002a2.03 2.03 0 0 0 1.198-.447l.003-.003.868.79c.122.11.311.103.423-.017a.292.292 0 0 0-.017-.418l-1.073-.976a.302.302 0 0 0-.425.019 1.426 1.426 0 0 1-1.055.463A1.423 1.423 0 0 1 7.209 7.36c0-.362.137-.702.38-.962a.293.293 0 0 0-.018-.417L5.479 4.078Zm9.323 3.927.01-.014 1.46 1.34-.012.016a2.393 2.393 0 0 0 1.858 3.9l.08-.002a2.385 2.385 0 0 0 1.55-.64l.046-.045 1.514 1.39-.054.073c-1.583 2.127-5.24 4.226-7.198 4.416-1.858.18-3.078-.067-4.498-1.009-.858-.568-2.36-1.775-4.502-3.614l-.516-.445c2.43.226 4.863-.786 7.487-2.731l.147-.114c1.167-.913 2.011-1.697 2.628-2.52Z" clip-rule="evenodd"/><path fill="#fff" fill-rule="evenodd" d="M16.744 14.855a.653.653 0 0 0-.04.933.68.68 0 0 0 .95.04.653.653 0 0 0 .039-.934.68.68 0 0 0-.95-.04ZM14.981 13.153a.653.653 0 0 0-.04.934.68.68 0 0 0 .95.04.653.653 0 0 0 .04-.934.68.68 0 0 0-.95-.04ZM13.228 11.382a.653.653 0 0 0-.04.933.68.68 0 0 0 .95.04.653.653 0 0 0 .04-.934.68.68 0 0 0-.95-.04Z" clip-rule="evenodd"/></svg>