<svg xmlns="http://www.w3.org/2000/svg" fill="none" viewBox="0 0 24 24"><path fill="#334AFF" fill-rule="evenodd" d="m9.49 12.67-4.9-4.696s-3.581 4.1-1.9 6.259c0 0 .95 1.51 4.893.808L9.49 12.67Z" clip-rule="evenodd"/><path fill="#fff" d="m13.401 11.864 4.791 4.404c-4.949 4.155-8.802 3.388-10.11 2.484L4.16 15.214c5.13.422 8.3-2.057 9.242-3.35Z"/><path fill="#0F1031" fill-rule="evenodd" d="M4.376 7.886a.231.231 0 0 1 .214-.141h.013c.084 0 .16.045.202.116l4.846 4.65a.228.228 0 0 1-.003.333h-.001l-.004.005-.02.019a9.492 9.492 0 0 0-.434.472c-.248.288-.596.716-1.044 1.323l.005-.001c2.09-.577 4.12-1.741 5.054-3.046a.232.232 0 0 1 .35-.031l4.753 4.563a.228.228 0 0 1-.004.332l-.157-.168.157.168v.001l-.004.003-.009.008-.018.017a4.308 4.308 0 0 1-.155.132c-.119.1-.294.242-.517.41-.446.335-1.088.774-1.87 1.193-1.562.836-3.71 1.603-6 1.268a4.908 4.908 0 0 1-2.325-1.02L3.36 15.036a2.828 2.828 0 0 1-.664-.466c-.585-.554-.743-1.28-.672-2.021.07-.737.367-1.508.721-2.2a14.949 14.949 0 0 1 1.631-2.462Zm.242.434c-.098.123-.234.3-.392.516a13.387 13.387 0 0 0-1.068 1.72c-.342.669-.611 1.382-.674 2.036-.062.648.08 1.218.532 1.647.494.47 1.243.726 2.15.786.703.047 1.486-.025 2.287-.194a25.473 25.473 0 0 1 1.384-1.788c.137-.159.245-.278.325-.362L4.618 8.32Zm-.117 7.086 3.202 2.737c.606.478 1.33.804 2.096.916 2.149.315 4.191-.405 5.71-1.218.758-.406 1.38-.831 1.812-1.155.207-.156.37-.288.483-.383l-4.384-4.21c-1.073 1.332-3.11 2.449-5.145 3.01-1.077.297-2.169.443-3.14.38a5.795 5.795 0 0 1-.634-.077Z" clip-rule="evenodd"/><path fill="#fff" d="M10.685 11.373 5.894 6.969c4.95-4.155 8.803-3.387 10.11-2.484l3.924 3.538c-5.13-.422-8.3 2.058-9.243 3.35Z"/><path fill="#334AFF" fill-rule="evenodd" d="m16.426 8.16-1.908 2.37 4.887 4.703s4.077-4.557 1.52-6.63c0 0-1.011-1.106-4.492-.437l-.007-.007Z" clip-rule="evenodd"/><path fill="#0F1031" fill-rule="evenodd" d="M6.795 7.707c.09-.09.236-.09.327-.002l3.474 3.4c1.074-1.331 3.11-2.447 5.144-3.008 1.076-.297 2.168-.443 3.139-.38.967.065 1.838.34 2.44.913.58.554.737 1.273.664 2.006-.072.727-.372 1.486-.726 2.165a14.582 14.582 0 0 1-1.64 2.418l-.033.037-.008.01-.003.003v.001l-.175-.15.174.15a.232.232 0 0 1-.334.016l-4.88-4.59a.228.228 0 0 1 .008-.338l.003-.004a7.675 7.675 0 0 0 .425-.448c.25-.284.609-.723 1.087-1.373l-.017.005c-2.09.577-4.12 1.741-5.054 3.046a.232.232 0 0 1-.351.03L6.797 8.03a.228.228 0 0 1-.002-.324Zm9.776.66a8.875 8.875 0 0 1-1.72 2.16l4.527 4.258c.099-.12.238-.296.398-.512.322-.434.728-1.03 1.07-1.683.343-.656.613-1.356.677-2 .064-.637-.075-1.2-.525-1.63-.493-.47-1.242-.725-2.15-.785-.7-.046-1.479.025-2.277.192Z" clip-rule="evenodd"/><path fill="#0F1031" fill-rule="evenodd" d="M8.279 4.956c1.561-.836 3.709-1.603 5.998-1.268a4.908 4.908 0 0 1 2.327 1.02L20.68 8.19a.228.228 0 0 1 .025.323.233.233 0 0 1-.327.024l-4.073-3.48a4.443 4.443 0 0 0-2.095-.917c-2.15-.315-4.192.405-5.712 1.218-.757.406-1.379.831-1.81 1.155a11.73 11.73 0 0 0-.659.533l-.007.007-.002.001a.233.233 0 0 1-.327-.011.228.228 0 0 1 .012-.324l.15.16-.15-.16.001-.001.003-.003.01-.008a4.402 4.402 0 0 1 .172-.15 14.736 14.736 0 0 1 2.388-1.603Z" clip-rule="evenodd"/></svg>