<svg xmlns="http://www.w3.org/2000/svg" fill="none" viewBox="0 0 24 24"><path fill="#fff" d="m5.394 4.049.023.019 2.1 1.881c.103.094.11.251.014.353-.25.265-.392.611-.392.98 0 .798.661 1.445 1.476 1.445.42 0 .813-.173 1.09-.472.096-.103.279.118.384.212l1.712 1.665s2.449-2.07 2.855-2.663c.082-.12.143-.291.26-.208l.022.019 1.937 1.751a.245.245 0 0 1 .001.365l-.052.049c-.344.34-.541.8-.541 1.29 0 1.008.826 1.824 1.844 1.824.576 0 1.108-.264 1.456-.706a.262.262 0 0 1 .356-.05l.023.018 1.933 1.749a.245.245 0 0 1 .041.318c-1.555 2.334-5.613 4.673-7.83 4.886-1.944.186-3.28-.07-4.781-1.025l-.096-.062c-1.022-.668-2.895-2.17-5.628-4.515l-.35-.3c-.821-.414-1.287-1.257-1.248-2.59.056-1.943 1.142-4.15 3.05-6.199a.262.262 0 0 1 .34-.034Z"/><path fill="#334AFF" fill-rule="evenodd" d="M16.651 17.91c1.472-.59 4.237-2.534 5.329-4.124l-2.204-1.907a2.12 2.12 0 0 1-1.653.777c-1.155 0-2.091-.897-2.091-2.002 0-.553.612-1.416.612-1.416l-1.87-1.746c-.502.711-1.537 1.878-2.859 2.818A9.05 9.05 0 0 1 9.931 11.4" clip-rule="evenodd"/><path fill="#0F1031" fill-rule="evenodd" d="m5.479 4.077-.028-.022a.306.306 0 0 0-.398.04c-1.907 2.049-2.995 4.259-3.05 6.207-.04 1.342.432 2.196 1.261 2.616 2.724 2.345 4.634 3.893 5.74 4.653l.113.077.107.071c1.544 1.009 2.902 1.28 4.89 1.09 2.223-.213 6.28-2.551 7.838-4.889a.285.285 0 0 0-.048-.371l-1.927-1.742-.027-.022a.306.306 0 0 0-.415.058c-.339.43-.856.687-1.417.687-.99 0-1.794-.794-1.794-1.775 0-.478.192-.926.527-1.257l.05-.047a.285.285 0 0 0 0-.426L14.969 7.28l-.026-.021a.305.305 0 0 0-.428.073c-.609.89-1.514 1.73-2.852 2.75l-.13.094c-2.594 1.868-4.964 2.775-7.287 2.44-1.078-.157-1.687-.829-1.645-2.296l.004-.108c.085-1.698 1.028-3.645 2.678-5.49l.014-.015L6.96 6.2l-.02.029a1.94 1.94 0 0 0-.33 1.084c0 1.094.906 1.98 2.026 1.98h.078a2.047 2.047 0 0 0 1.198-.441l.003-.003.868.778a.306.306 0 0 0 .423-.017.285.285 0 0 0-.017-.411l-1.073-.962a.306.306 0 0 0-.425.018 1.436 1.436 0 0 1-1.055.456c-.788 0-1.428-.625-1.428-1.398 0-.356.137-.692.38-.948a.285.285 0 0 0-.018-.41L5.479 4.076Zm9.323 3.87.01-.014 1.46 1.32-.012.016a2.328 2.328 0 0 0-.536 1.486c0 1.3 1.071 2.357 2.394 2.357l.08-.001a2.403 2.403 0 0 0 1.55-.63l.046-.045 1.514 1.369-.054.072c-1.583 2.097-5.24 4.165-7.198 4.353-1.858.178-3.078-.066-4.498-.994-.858-.56-2.36-1.75-4.502-3.563l-.516-.438c2.43.223 4.863-.774 7.487-2.692l.147-.112c1.167-.899 2.011-1.672 2.628-2.484Z" clip-rule="evenodd"/><path fill="#FFCF48" d="M10.015 17.438c0 1.776-1.482 3.216-3.31 3.216-1.827 0-3.308-1.44-3.308-3.216 0-1.776 1.481-3.216 3.309-3.216 1.827 0 3.309 1.44 3.309 3.216Z"/><path fill="#161B7D" d="m6.551 17.463-1.157-.032 2.625-2.347-1.149 2.097 1.158.032-2.463 2.542.986-2.292Z"/><path fill="#fff" fill-rule="evenodd" d="M16.744 14.697a.637.637 0 0 0-.04.92.687.687 0 0 0 .95.04.637.637 0 0 0 .039-.92.687.687 0 0 0-.95-.04ZM14.981 13.02a.637.637 0 0 0-.04.92.687.687 0 0 0 .95.04.637.637 0 0 0 .04-.92.687.687 0 0 0-.95-.04ZM13.228 11.275a.637.637 0 0 0-.04.92.687.687 0 0 0 .95.038.637.637 0 0 0 .04-.92.687.687 0 0 0-.95-.038Z" clip-rule="evenodd"/></svg>