<svg xmlns="http://www.w3.org/2000/svg" fill="none" viewBox="0 0 24 24"><path fill="#fff" d="M4.131 9.441c-.344-.949.136-2.002 1.07-2.346l11.01-4.051c.951-.35 1.998.174 2.308 1.155l2.206 6.987c.037.118.06.24.065.364.083 2.285-.994 5.63-4.328 7.255l-2.978 1.215-4.64 1.578a.296.296 0 0 1-.374-.183L4.13 9.441Z"/><path fill="#334AFF" fill-rule="evenodd" d="m19.082 5.898-.502-1.495c-.348-1.028-1.455-1.565-2.457-1.191L5.49 7.178c-.982.366-1.491 1.471-1.141 2.476l.503 1.405 14.231-5.162Z" clip-rule="evenodd"/><path fill="#0F1031" fill-rule="evenodd" d="M14.22 2.19a.333.333 0 0 0-.415-.17.344.344 0 0 0-.2.439l.39 1.096L7.013 6.16 6.63 5.09l-.014-.035a.333.333 0 0 0-.415-.17.344.344 0 0 0-.2.438l.382 1.072-1.163.434-.068.027c-1.11.455-1.677 1.726-1.274 2.884l4.118 11.83.017.043a.629.629 0 0 0 .791.35l4.534-1.692a.337.337 0 0 0 .055-.026.332.332 0 0 0 .091-.037c1.072-.622 1.876-1.732 2.55-3.258.143-.324.276-.658.415-1.032l.031-.086.328-.913c.057-.155.1-.267.139-.353l.03-.066.01-.02.082.004c1.318.036 2.405-.267 3.098-.814-.481 2.181-2.005 4.074-4.216 4.898a.344.344 0 0 0-.2.439.333.333 0 0 0 .43.203c3.806-1.42 5.763-5.717 4.37-9.599l-1.808-5.348-.025-.07c-.434-1.163-1.709-1.762-2.864-1.332l-1.229.459-.39-1.095-.015-.034Zm.005 2.007.385 1.078.014.035c.075.154.253.23.415.17a.344.344 0 0 0 .2-.439l-.385-1.079 1.23-.459.061-.021a1.564 1.564 0 0 1 1.965 1.004l1.81 5.354.038.106c.224.658.343 1.327.367 1.99a.347.347 0 0 0-.004.062c.036 1.108-1.306 1.914-3.442 1.794-.313-.018-.4.081-.64.73l-.11.3-.18.503-.127.35c-.134.363-.263.684-.4.995-.62 1.405-1.347 2.408-2.27 2.944l-.004.003a.336.336 0 0 0-.04.012l-4.493 1.676L4.51 9.512l-.021-.064c-.246-.811.173-1.683.961-1.977l1.162-.433.393 1.102.015.034c.074.155.253.23.415.17a.344.344 0 0 0 .2-.438l-.394-1.103 6.984-2.606Z" clip-rule="evenodd"/><path fill="#334AFF" fill-rule="evenodd" d="M15.839 10.234a.818.818 0 0 0 1.055.499.843.843 0 0 0 .49-1.076.818.818 0 0 0-1.055-.5.844.844 0 0 0-.49 1.077Zm-3.684 1.374a.818.818 0 0 0 1.055.5.843.843 0 0 0 .49-1.076.818.818 0 0 0-1.055-.5.843.843 0 0 0-.49 1.076Zm-2.63 1.874a.818.818 0 0 1-1.054-.5.843.843 0 0 1 .49-1.075.818.818 0 0 1 1.054.499.844.844 0 0 1-.49 1.076Zm3.938 1.379a.818.818 0 0 0 1.055.499.843.843 0 0 0 .49-1.076.818.818 0 0 0-1.055-.5.844.844 0 0 0-.49 1.077Zm-2.703 1.901a.818.818 0 0 1-1.055-.5.843.843 0 0 1 .49-1.075.818.818 0 0 1 1.054.5.843.843 0 0 1-.49 1.075Z" clip-rule="evenodd"/><path fill="#FFCF48" d="M9.062 16.971c0 1.989-1.58 3.6-3.531 3.6-1.95 0-3.53-1.611-3.53-3.6s1.58-3.6 3.53-3.6c1.95 0 3.53 1.611 3.53 3.6Z"/><path fill="#161B7D" d="m5.366 16.999-1.234-.036 2.8-2.627-1.225 2.347 1.234.036-2.627 2.846 1.052-2.566Z"/></svg>