<svg height="79" viewBox="0 0 88 79" width="88" xmlns="http://www.w3.org/2000/svg"><g fill="none" fill-rule="evenodd" transform="matrix(.93969262 -.34202014 .34202014 .93969262 .629177 25.343737)"><path d="m70.8400458 18.3471793-.2848489-5.59126c.0608-3.58079979-2.8287998-6.51439961-6.4095996-6.50887864l-38.0199977.06327902c-3.5095998.0048-6.3607996 2.83759983-6.3887996 6.34879962l.3889599 5.3165597z" fill="#3d54ff"/><path d="m64.1438479 5.12206133c4.1295207-.00639354 7.4767084 3.31158902 7.5364828 7.41085847v.2420155l-.3153352 18.6239809c.0217956 13.6071784-10.990936 24.6562043-24.5975952 24.6779991-.6213195.0009953-1.1258053-.501877-1.1268005-1.1231965-.0009952-.6213196.501877-1.1258054 1.1231966-1.1268006 7.8818417-.0126249 14.8058531-4.0973248 18.7850755-10.2658237-2.8165244.8303346-6.5786397.485078-10.6628356-1.1296189l-.2600363-.1054756-.0498832.0486771c-.2162135.2065271-.4827127.496013-.8602994.9333991l-1.8055918 2.1441157-.5984707.7019307c-.8593408.9982912-1.6559995 1.878064-2.4732671 2.7174814-3.8426961 3.9468413-7.6281493 6.4574298-11.7112596 7.1529386-.0614186.0104619-.1225215.0157325-.1828596.0161302-.1078086.0337421-.2233004.0526893-.3432042.0528856l-16.2100686.0264396c-1.1225433-.0089299-2.0348609-.8866784-2.1039006-1.9900403l-.0041281-.1517965.3287686-41.3280129c.0322614-4.04557927 3.2523866-7.32562258 7.265238-7.46051817l.2466549-.00430889zm.0036204 2.25002492-38.0203301.06323238c-2.8183379.00385458-5.1214379 2.22068866-5.2590396 5.01127807l-.0063342.2214718-.3287644 41.2019315 16.064481-.0264386.0754448-.0212847.0764839-.0157857c3.5150942-.5987541 6.9360824-2.8676221 10.4769605-6.5044656.6515548-.6692134 1.2926671-1.3688258 1.9694405-2.1424106l.6022189-.69658 2.2636713-2.6861675.4657124-.5373875c1.1940845-1.3502679 1.6064953-1.5389457 2.4373216-1.2085665l.0982026.040564c5.9703891 2.5523205 10.8041137 2.0792061 12.5387961-.5348062.9392703-2.4186575 1.4709738-5.0415446 1.5110131-7.7841182l.002411-.3708507.3152014-18.644882c.0488863-2.87914912-2.2166808-5.25104569-5.0679727-5.36077336z" fill="#0f1031" fill-rule="nonzero"/><g fill="#334aff"><path d="m55.6579742 27.9231311c.0024035 1.5247999 1.2408034 2.7583998 2.7656033 2.7560033 1.5247999-.0024035 2.7591998-1.2400034 2.7568033-2.7656033-.0024035-1.5247999-1.2400034-2.7591999-2.7656033-2.7568034-1.5247999.0032035-2.7591998 1.2416035-2.7568033 2.7664034"/><path d="m42.4868549 27.9442511c.0024035 1.5247999 1.2408035 2.7591998 2.7656034 2.7568033 1.5247999-.0024035 2.7591998-1.2400034 2.7568033-2.7656033-.0024035-1.5247999-1.2400034-2.7591999-2.7656033-2.7568034-1.5247999.0024035-2.7591999 1.2408035-2.7568034 2.7656034"/><path d="m29.3158157 27.9660911c.0024035 1.5247999 1.2408034 2.7591998 2.7656034 2.7568033 1.5247999-.0032035 2.7591998-1.2408034 2.7568033-2.7664033-.0032035-1.5239999-1.2408034-2.7583999-2.7664033-2.7560034-1.5248.0024035-2.7583999 1.2408035-2.7560034 2.7656034"/><path d="m42.9525322 39.5098504c.0024062 1.5247999 1.2408061 2.7583998 2.765606 2.7560033 1.5248-.0024035 2.7583999-1.2400034 2.7560034-2.7656033-.0024035-1.5247999-1.2400034-2.7591999-2.7656034-2.7568033-1.5247999.0032034-2.7591998 1.2416034-2.756006 2.7664033"/><path d="m29.5158157 39.5317704c.0024035 1.5247999 1.2408034 2.7591998 2.7656033 2.756006 1.5248-.0024062 2.7591999-1.2400061 2.7560061-2.765606-.0024062-1.5247999-1.2400061-2.7583999-2.7656061-2.7560034-1.5247999.0024035-2.7583998 1.2408035-2.7560033 2.7656034"/></g><g fill-rule="nonzero"><path d="m31.4460793.27483998c.5798989 0 1.0573198.43876094 1.1183986 1.00241885l.0066014.12258115v9.86799942c0 .6213203-.5036797 1.125-1.125 1.125-.579899 0-1.0573199-.438761-1.1183987-1.0024189l-.0066013-.1225811v-9.86799942c0-.62132035.5036796-1.125 1.125-1.125z" fill="#0f1031"/><path d="m58.6451799.01772495c.5798989 0 1.0573198.43876094 1.1183986 1.00241885l.0066014.12258115v9.86799945c0 .6213203-.5036797 1.125-1.125 1.125-.579899 0-1.0573199-.438761-1.1183987-1.0024189l-.0066013-.1225811v-9.86799945c0-.62132035.5036796-1.125 1.125-1.125z" fill="#0f1031"/><g transform="matrix(.93969262 .34202014 -.34202014 .93969262 8.535102 21.491279)"><path d="m23.709931 11.8550069c0 6.5470345-5.3073103 11.8543448-11.8551724 11.8543448-6.54703446 0-11.85434481-5.3073103-11.85434481-11.8543448 0-6.54703449 5.30731035-11.85517242 11.85434481-11.85517242 6.5478621 0 11.8551724 5.30813793 11.8551724 11.85517242" fill="#ffcf48"/><path d="m11.3017655 11.9455448-4.14537929-.1183448 9.40386209-8.64910345-4.1155862 7.72965515 4.1453793.1183449-8.82289657 9.3682758z" fill="#161b7d"/></g></g></g></svg>