<svg height="71" viewBox="0 0 67 71" width="67" xmlns="http://www.w3.org/2000/svg"><g fill="none" fill-rule="evenodd" transform="translate(.221073 .424189)"><circle cx="33.139581" cy="32.862532" fill="#3d54ff" r="12.08959"/><g fill="#0f1031" fill-rule="nonzero"><path d="m33.1395809 19.7229515c-7.2569289 0-13.1395809 5.882652-13.1395809 13.1395809 0 7.2563334 5.8829465 13.1395809 13.1395809 13.1395809s13.1395809-5.8832475 13.1395809-13.1395809c0-7.2569289-5.8826521-13.1395809-13.1395809-13.1395809zm0 2.2524996c6.0129077 0 10.8870813 4.8741736 10.8870813 10.8870813 0 6.012338-4.8744939 10.8870813-10.8870813 10.8870813-6.0125875 0-10.8870813-4.8747433-10.8870813-10.8870813 0-6.0129077 4.8741736-10.8870813 10.8870813-10.8870813z"/><path d="m26.4076127 0c2.554317 0 4.625 2.07068303 4.625 4.625 0 1.79376192-1.0211597 3.34901922-2.5138617 4.1161546l1.8882421 8.5022472c.1198074.5391332-.2201234 1.0733101-.7592566 1.1931175-.5006237.1112497-.9969738-.1739074-1.1612513-.646872l-.0318662-.1123846-1.8740063-8.4312627-.173.004c-2.4833637 0-4.5095889-1.95724284-4.6202408-4.41329379l-.0047592-.21170621c0-2.55431697 2.070683-4.625 4.625-4.625zm0 2.25c-1.3116763 0-2.375 1.06332372-2.375 2.375s1.0633237 2.375 2.375 2.375 2.375-1.06332372 2.375-2.375-1.0633237-2.375-2.375-2.375z"/><path d="m26.1219545 47.9512626c2.554317 0 4.625 2.070683 4.625 4.625 0 1.7917688-1.0188916 3.3455628-2.5088877 4.1135945l2.4683232 10.541311c.1198074.5391333-.2201234 1.0733102-.7592566 1.1931176-.5006237.1112497-.9969739-.1739075-1.1612513-.6468721l-2.4839276-10.580151-.18.004c-2.4833637 0-4.5095888-1.9572429-4.6202407-4.4132938l-.0047593-.2117062c0-2.554317 2.0706831-4.625 4.625-4.625zm0 2.25c-1.3116762 0-2.375 1.0633237-2.375 2.375s1.0633238 2.375 2.375 2.375c1.3116763 0 2.375-1.0633237 2.375-2.375s-1.0633237-2.375-2.375-2.375z" transform="matrix(-.83867057 -.54463904 .54463904 -.83867057 16.331793 121.237274)"/><path d="m60.8394288 10.752688c2.554317 0 4.625 2.0706831 4.625 4.625 0 2.554317-2.070683 4.625-4.625 4.625-1.2086861 0-2.3090807-.4636509-3.1330301-1.2227989l-10.4568671 6.1363758c-.4757236.2805449-1.0888004.1223213-1.3693453-.3534024-.260506-.4417434-.1426861-1.0019188.2563654-1.3043101l10.4227843-6.1251077c-.2223177-.5413791-.3449072-1.1342517-.3449072-1.7557567 0-2.5543169 2.0706831-4.625 4.625-4.625zm0 2.25c-1.3116762 0-2.375 1.0633238-2.375 2.375 0 1.3116763 1.0633238 2.375 2.375 2.375 1.3116763 0 2.375-1.0633237 2.375-2.375 0-1.3116762-1.0633237-2.375-2.375-2.375z"/><path d="m47.0503828 42.1164864 3.9660503 3.0955782c.8139755-.7140242 1.8807295-1.1468766 3.0485817-1.1468766 2.5543169 0 4.625 2.0706831 4.625 4.625 0 2.554317-2.0706831 4.625-4.625 4.625-2.554317 0-4.625-2.070683-4.625-4.625 0-.6641689.1399978-1.2956396.3920935-1.8665122l-3.930477-3.0740621c-.4323954-.343588-.504388-.9726468-.1608-1.4050421.319046-.40151.8842377-.4922645 1.3095515-.2280852zm7.014632 4.1987016c-1.3116763 0-2.375 1.0633238-2.375 2.375 0 1.3116763 1.0633237 2.375 2.375 2.375 1.3116762 0 2.375-1.0633237 2.375-2.375 0-1.3116762-1.0633238-2.375-2.375-2.375z"/><path d="m4.55917186 25.9519356 3.96605026 3.0955782c.81397554-.7140242 1.88072958-1.1468765 3.04858168-1.1468765 2.554317 0 4.625 2.070683 4.625 4.625 0 2.5543169-2.070683 4.625-4.625 4.625-2.55431694 0-4.62499997-2.0706831-4.62499997-4.625 0-.664169.13999779-1.2956397.39209352-1.8665123l-3.93047703-3.0740621c-.43239536-.343588-.50438796-.9726468-.16079998-1.4050421.31904598-.40151.8842377-.4922645 1.30955152-.2280852zm7.01463194 4.1987017c-1.3116762 0-2.37499997 1.0633237-2.37499997 2.375 0 1.3116762 1.06332377 2.375 2.37499997 2.375 1.3116763 0 2.375-1.0633238 2.375-2.375 0-1.3116763-1.0633237-2.375-2.375-2.375z" transform="matrix(-.82903757 .5591929 -.5591929 -.82903757 35.188753 52.194458)"/></g></g></svg>