<svg height="57" viewBox="0 0 57 57" width="57" xmlns="http://www.w3.org/2000/svg"><g fill="none" fill-rule="evenodd" transform="translate(.333276 .338691)"><path d="m0 2 7.93033787 9h39.68942493l7.3802372-9z"/><path d="m0 2 7.93033787 9h39.68942493l7.3802372-9z"/><path d="m36.0541696 36.376282-15.6357853 12.9241278v5.5758722h15.6357853z" fill="#3d54ff" transform="matrix(1 0 0 -1 0 91.252564)"/><path d="m54.213499.16873636c1.4032603 0 2.2005042 1.57221076 1.4118744 2.71525643l-.0872797.11663313-18.3930937 21.65237408.0003649 29.5541588c0 1.384176-1.5232011 2.1675745-2.6344145 1.4679569l-.1134042-.0777006-.1099887-.088498-14.6057639-12.706434c-.3360584-.291108-.5443819-.6999217-.5865271-1.1378901l-.0079398-.1654318-.0003267-16.8471612-18.40790039-21.67105041c-.85411256-1.05310736-.21165932-2.59016451 1.05860153-2.79042498l.13846212-.01625825.14302933-.00553zm-19.3182032 37.25600004h-13.559l.0007042 3.8352636 13.558 11.796zm18.1857042-35.0067364h-49.928l5.73729577 6.75473636 31.93238463-.00170222c.6213203 0 1.125.50367966 1.125 1.12499996 0 .579899-.438761 1.0573199-1.0024189 1.1183987l-.1225811.0066013-30.0233846-.0002977 10.1518463 11.9508841c.1785468.21975.2990597.4789196.353349.7535508l.0245612.1664425.0082744.1690032-.0010309 10.7141194h13.559l.0000691-10.7141194c0-.2844253.070117-.5629136.2068668-.8165974l.090018-.1490828.1058427-.1422241z" fill="#0f1031" fill-rule="nonzero"/></g></svg>