<svg xmlns="http://www.w3.org/2000/svg" fill="none" viewBox="0 0 24 24"><path fill="#0F1031" d="M4.79 6.864c.076.024.107.142.069.264-.035.114-.117.191-.19.183l-.016-.004-3.516-1.092c-.076-.024-.106-.142-.068-.264.035-.114.117-.191.19-.183l.016.004L4.79 6.864ZM5.766 5.422c.05.061.012.177-.087.259-.091.076-.202.096-.258.05l-.012-.012-2.353-2.832c-.05-.06-.012-.177.087-.258.091-.076.202-.097.258-.05l.012.012 2.353 2.831ZM7.54 4.818c.004.08-.095.15-.223.158-.119.007-.22-.042-.238-.113l-.003-.016-.227-3.675c-.005-.08.095-.15.223-.158.119-.007.22.042.238.113l.002.016.227 3.675Z"/><path fill="#334AFF" d="M17.856 18.485s-.885.016-1.295-1.91c-.41-1.924.71-2.57 1.453-3.28a3.17 3.17 0 0 0 .981-1.887c.065-.429.68-1.278 1.06-1.957.38-.68.697-.882.697-.882l.769-.695c-.154-.461-.834-.477-.834-.477s-.194-.138-1.368.517c-1.174.655-1.691 2.062-1.691 2.062-.454-.396.024-3.162.024-3.162s.526-2.328.793-3.323c.267-.995.186-1.343.186-1.343s-.413-.8-1.23.534c-.818 1.334-1.535 5.16-1.535 4.99 0-.17.199-3.478.199-3.478s.292-2.094.292-2.304c0-.21-.251-1.335-1.125.315s-1.006 6.238-1.039 5.55c-.032-.686-.03-3.938-.03-3.938s.075-1.358-.378-1.371c-.452-.014-.725.969-.725.969-.861 2.58-.644 5.197-.644 5.197s-.26-1.778-.19-2.75c.03-.407.067-1.1-.027-1.234a.263.263 0 0 0-.365-.059c-.685.478-.784 2.16-.784 2.16l-.378 3.668s-.254 1.774.346 3.244c.09.22.194.42.302.6a19.896 19.896 0 0 1 1.86 4.003l.033.099"/><g clip-path="url(#a)"><path fill="#fff" d="M13.314 21.177s1.449-1.105 1.478-4.087c.02-2.137-1.68-7.192-1.954-7.563-.274-.372-.438-.402-.663-.378-.287.03-.231.365-.231.365l.295 3.676s-.404-2.143-.77-3.7C11.1 7.933 10.5 6.812 9.85 6.945c-.024.01-.173.046-.168.194.006.174.97 6.312.988 6.629 0 .008-.744-3.27-.746-3.278l-.668-3.086c-.188-.891-.738-1.295-1.24-1.11-.346.126-.11 1.318.059 2.614.136 1.05.38 2.791.427 3.353l.13 1.167C8.334 11.586 7.37 8.55 7.36 8.526c-.008-.014-.305-.5-.752-.394-.449.106-.29.834-.286.848.002.02.24 1.944.572 3.857.31 1.786.102 2.552.07 2.652-.001.005-.008.006-.011.002l-.053-.061c-.678-.84-1.038-1.239-1.596-1.239-.56 0-.484.337-.48.359l.001.002c.01.017.178.289.622.902.458.636 1.223 2.923 1.223 2.923s.52 1.052 1.236 1.783c.715.732 1.446 1.527 1.064 3.022"/><path fill="#000" d="m9.433 23-.463-.12c.358-1.402-.334-2.109-1.002-2.796-.735-.75-1.255-1.799-1.28-1.847-.219-.658-.844-2.39-1.202-2.887-.439-.61-.615-.887-.63-.916l-.024-.048a.525.525 0 0 1 .091-.448c.124-.148.33-.225.61-.225.583 0 .974.353 1.509.993.029-.396.024-1.064-.153-2.066a87.712 87.712 0 0 1-.572-3.866c-.1-.463 0-1.002.467-1.112.487-.12.864.263 1.012.501.02.038.162.492.353 1.14l-.081-.605c-.029-.206-.057-.41-.081-.606-.181-1.303-.291-2.09.176-2.263a.946.946 0 0 1 .793.067c.334.186.587.55.72 1.04v-.028a.43.43 0 0 1 .325-.425c.797-.162 1.489.826 1.933 2.71 0-.09.023-.223.11-.338a.503.503 0 0 1 .338-.186c.31-.033.559.033.878.472.287.387 2.024 5.527 2 7.708-.029 3.063-1.508 4.228-1.57 4.276l-.291-.378.143.191-.143-.19s1.355-1.089 1.384-3.9c.019-2.142-1.695-7.12-1.91-7.42-.224-.306-.314-.296-.443-.282-.02.01-.024.062-.02.09l.297 3.695-.473.062s-.405-2.157-.768-3.69c-.396-1.684-.955-2.4-1.313-2.371.034.262.225 1.494.406 2.691.344 2.239.568 3.718.578 3.89l.014.22-.22.028c-.095.014-.167.019-.262-.224v-.015c-.139-.353-.334-1.207-.74-3.23-.19-.888-.663-3.06-.668-3.083-.09-.44-.286-.769-.53-.902a.448.448 0 0 0-.396-.034c-.095.143.034 1.07.13 1.747.028.2.056.406.08.61l.13.984c.123.92.262 1.966.295 2.381l.02.167c.042.396.075.668.085.85.01.043.014.086.024.129h-.015c0 .248-.052.252-.186.272l-.233.033-.039-.234c-.286-1.751-1.164-4.548-1.255-4.834-.052-.072-.243-.32-.482-.267-.181.043-.133.458-.11.563.015.105.253 2.004.573 3.865.315 1.814.11 2.62.062 2.763l-.043.134-.281.057-.148-.171c-.664-.821-.979-1.155-1.418-1.155-.18 0-.233.043-.243.047.067.105.243.372.577.835.473.659 1.222 2.888 1.256 2.988 0 0 .505 1.002 1.178 1.694.692.706 1.551 1.584 1.127 3.25l.014.019Z"/></g><defs><clipPath id="a"><path fill="#fff" d="M4.818 5.772h10.446V23H4.818z"/></clipPath></defs></svg>