<svg height="56" viewBox="0 0 74 56" width="74" xmlns="http://www.w3.org/2000/svg"><g fill="none" fill-rule="evenodd" transform="translate(.833276 .5)"><path d="m44.9662456 43.4893617 11.8206564-9.0510133c.7023575-.5377914 1.6745761-.550297 2.3905342-.0307494l12.5150428 9.0817627v5.4521009l-4.505346 4.5053459h-11.9016147z" fill="#3d54ff"/><path d="m66.692479.875c3.3827441 0 6.125 2.74225591 6.125 6.125v41.4468085c0 3.3827441-2.7422559 6.125-6.125 6.125h-59.692479c-3.38274409 0-6.125-2.7422559-6.125-6.125v-41.4468085c0-3.38274409 2.74225591-6.125 6.125-6.125zm-41.4884445 27.8849005-.1317052.097278-21.9473293 17.7248215v1.8648085c0 2.0732252 1.62815979 3.7661733 3.67559301 3.8699579l.19940699.0050421 45.441-.0008085-24.9075843-23.37245c-.6424102-.6028009-1.6106146-.6728028-2.3293812-.1886495zm41.4884445-25.6349005h-59.692479c-2.14010341 0-3.875 1.73489659-3.875 3.875v36.689l20.5336289-16.582236c1.5447682-1.2476128 3.7486049-1.212398 5.2504736.055114l.1639164.1459033 26.6569811 25.0132187 10.962479.0008085c2.0732251 0 3.7661732-1.6281598 3.8699578-3.675593l.0050422-.199407v-41.4468085c0-2.14010341-1.7348966-3.875-3.875-3.875zm-20.8493616 10.1768159c3.6588866 0 6.625 2.9661135 6.625 6.625s-2.9661134 6.625-6.625 6.625c-3.6588864 0-6.625-2.9661135-6.625-6.625 0-3.6588864 2.9661136-6.625 6.625-6.625zm0 2.25c-2.4162457 0-4.375 1.9587542-4.375 4.375s1.9587543 4.375 4.375 4.375c2.4162459 0 4.375-1.9587542 4.375-4.375s-1.9587541-4.375-4.375-4.375z" fill="#0f1031" fill-rule="nonzero"/></g></svg>