<svg xmlns="http://www.w3.org/2000/svg" fill="none" viewBox="0 0 24 24"><path fill="#fff" d="M20.63 4c.74 0 1.343.59 1.37 1.33V17.62c0 .745-.587 1.352-1.32 1.38H3.37c-.74 0-1.343-.59-1.37-1.33V5.38c0-.745.587-1.352 1.32-1.38H20.63Z"/><path fill="#334AFF" fill-rule="evenodd" d="m14.272 15.941 2.449-1.888a2 2 0 0 1 2.4-.03l2.627 1.918v1.536s-.167.762-.378.976c-.212.213-.882.294-.882.294h-3.33l-2.886-2.806Z" clip-rule="evenodd"/><path fill="#0F1031" fill-rule="evenodd" d="M20.63 4c.74 0 1.343.59 1.37 1.33V17.62c0 .745-.587 1.352-1.32 1.38H3.37c-.74 0-1.343-.59-1.37-1.33V5.38c0-.745.587-1.352 1.32-1.38H20.63ZM8.81 11.656l-.03.022-6.276 5.104v.838a.87.87 0 0 0 .822.872l.045.001h13.151l-7.19-6.795a.418.418 0 0 0-.522-.042ZM3.37 4.507h17.26l.044.001a.87.87 0 0 1 .822.872v12.285a.87.87 0 0 1-.867.828h-3.371l-7.582-7.165-.037-.032a.918.918 0 0 0-1.175-.013l-5.96 4.848V5.335a.87.87 0 0 1 .867-.828Zm11.147 2.994c.989 0 1.79.807 1.79 1.803 0 .995-.801 1.803-1.79 1.803s-1.79-.808-1.79-1.803c0-.996.801-1.803 1.79-1.803ZM13.23 9.304c0-.716.576-1.296 1.287-1.296.71 0 1.287.58 1.287 1.296 0 .715-.576 1.296-1.287 1.296-.71 0-1.287-.58-1.287-1.296Z" clip-rule="evenodd"/></svg>