<svg width="100" height="100" fill="none" xmlns="http://www.w3.org/2000/svg"><path fill-rule="evenodd" clip-rule="evenodd" d="M4.637 95.461h90.678V26.435H4.637V95.46Z" fill="#008BFF"/><path fill-rule="evenodd" clip-rule="evenodd" d="M65.017 29.53c-3.629 0-6.581 3.082-6.581 6.873v13.431a6.23 6.23 0 0 0-2.82-.668c-1.843 0-3.507.795-4.701 2.071-1.194-1.276-2.858-2.071-4.7-2.071a6.233 6.233 0 0 0-2.821.668V36.403c0-3.79-2.952-6.873-6.58-6.873-3.63 0-6.582 3.082-6.582 6.873v34.363c0 11.91 9.28 21.6 20.683 21.6 11.338 0 20.58-9.582 20.674-21.403.01-.07.01-.128.01-.197V36.403c0-3.79-2.953-6.873-6.582-6.873Z" fill="#fff"/><path fill-rule="evenodd" clip-rule="evenodd" d="M50.821 87.684c-8.971 0-16.262-7.624-16.262-16.983V37.678c0-1.557 1.22-2.831 2.71-2.831s2.71 1.274 2.71 2.83v23.588c0 1.548.353 3.633 1.301 5.586 1.464 3.01 4.346 5.737 9.541 5.737h.66c-1.455 1.726-2.467 4.17-2.467 7.548 0 1.038.813 1.887 1.807 1.887s1.807-.85 1.807-1.887c0-7.274 6.496-7.54 7.228-7.548.994 0 1.807-.85 1.807-1.887 0-1.038-.813-1.887-1.807-1.887H50.82c-2.403 0-4.002-.802-5.068-1.887-1.139-1.151-1.671-2.614-1.934-3.775h16.028c.216 0 .921.029 1.816.246 1.87.444 4.572 1.736 5.258 5.416.108.565.163 1.198.163 1.887 0 .641-.036 1.264-.1 1.887-.903 8.473-7.815 15.096-16.163 15.096Zm-7.228-31.136c0-1.557 1.22-2.83 2.71-2.83 1.491 0 2.711 1.273 2.711 2.83v2.83h-5.42v-2.83Zm9.035 0c0-1.557 1.22-2.83 2.71-2.83 1.491 0 2.71 1.273 2.71 2.83v2.83h-5.42v-2.83Zm9.035-18.87c0-1.557 1.22-2.831 2.71-2.831s2.71 1.274 2.71 2.83v24.325c-1.689-1.425-3.695-2.16-5.42-2.463V37.678Zm2.71-6.605c-3.487 0-6.324 2.963-6.324 6.605v12.907a5.992 5.992 0 0 0-2.71-.642c-1.771 0-3.37.765-4.518 1.991-1.147-1.226-2.747-1.99-4.517-1.99-.967 0-1.889.226-2.71.641V37.678c0-3.642-2.837-6.605-6.325-6.605-3.487 0-6.324 2.963-6.324 6.605V70.7c0 11.445 8.917 20.757 19.876 20.757 10.896 0 19.777-9.209 19.868-20.569.008-.066.008-.122.008-.188V37.678c0-3.642-2.836-6.605-6.324-6.605Z" fill="#0F1031"/><path fill-rule="evenodd" clip-rule="evenodd" d="M6.14 93.92h87.618V27.995H6.139v65.927Zm75.393-79.39v2.686c0 3.67-2.858 6.655-6.372 6.655-1.702 0-3.302-.693-4.506-1.95a6.761 6.761 0 0 1-1.865-4.706v-2.686H31.105v2.687c0 3.67-2.859 6.655-6.373 6.655-1.702 0-3.302-.693-4.505-1.95-1.204-1.257-1.867-2.93-1.866-4.706v-2.686H.046v84.587H99.85V14.529H81.533Z" fill="#0F1031"/><path fill-rule="evenodd" clip-rule="evenodd" d="M24.733 19.547c1.232 0 2.232-1.043 2.232-2.331V2.33c0-1.287-1-2.331-2.232-2.331C23.5 0 22.5 1.044 22.5 2.331v14.884c0 1.29 1 2.332 2.232 2.332ZM75.184 19.547c1.233 0 2.232-1.043 2.232-2.331V2.33c0-1.287-1-2.331-2.232-2.331-1.231 0-2.23 1.044-2.23 2.331v14.884c-.002 1.29.997 2.332 2.23 2.332Z" fill="#0F1031"/><path fill-rule="evenodd" clip-rule="evenodd" d="M70.697 70.7c0 .067 0 .123-.008.19-.091 11.36-8.972 20.568-19.868 20.568-10.96 0-19.876-9.312-19.876-20.757V37.678c0-3.642 2.837-6.605 6.324-6.605 3.488 0 6.324 2.963 6.324 6.605v12.907a5.993 5.993 0 0 1 2.711-.642c1.77 0 3.37.765 4.517 1.991 1.147-1.226 2.747-1.99 4.518-1.99.966 0 1.888.226 2.71.641V37.678c0-3.642 2.837-6.605 6.324-6.605 3.488 0 6.324 2.963 6.324 6.605V70.7Zm-6.324-41.384c-4.415 0-8.007 3.751-8.007 8.362v10.576a7.73 7.73 0 0 0-1.027-.068 7.69 7.69 0 0 0-4.518 1.46 7.69 7.69 0 0 0-4.517-1.46c-.348 0-.69.023-1.029.068V37.678c0-4.61-3.591-8.362-8.006-8.362s-8.007 3.751-8.007 8.362V70.7c0 12.414 9.671 22.514 21.559 22.514 11.757 0 21.406-9.961 21.549-22.223.01-.121.01-.22.01-.291V37.678c0-4.61-3.592-8.362-8.007-8.362Z" fill="#008BFF"/></svg>