<svg xmlns="http://www.w3.org/2000/svg" fill="none" viewBox="0 0 24 24"><path fill="#334AFF" fill-rule="evenodd" d="M2.332 2.335h9.622c.358 0 .67.24.76.585l2.221 8.571H4.921" clip-rule="evenodd"/><path fill="#334AFF" fill-rule="evenodd" d="M14.15 6.404h6.697l-2.005 4.536 2.647 4.62h-9.745l-.842-3.518" clip-rule="evenodd"/><path fill="#0F1031" fill-rule="evenodd" d="M11.954 2c.489 0 .919.317 1.065.78l.016.056.848 3.27h7.419l-2.13 4.817L22 15.858H11.518l-1.063-4.032H5.4l2.797 9.746a.335.335 0 0 1-.227.415.33.33 0 0 1-.398-.194l-.012-.035L2.01 2.416l-.007-.035L2 2.34V2.32l.004-.036.007-.033.008-.027.013-.032.015-.029.019-.027.018-.023.027-.028.035-.027.022-.014.025-.012.032-.013.037-.01L2.303 2 2.332 2h9.622Zm8.44 4.702h-6.357l1.219 4.705-2.098 3.856h7.82l-2.466-4.305 1.881-4.256ZM2.771 2.669h9.182l.041.002c.19.017.35.15.399.334l2.111 8.151H5.208L2.772 2.67Z" clip-rule="evenodd"/><path fill="#fff" fill-rule="evenodd" d="M8.88 5.512H7.785l.342 1.144h1.092c.36 0 .563-.221.462-.565a.829.829 0 0 0-.8-.58ZM6.095 4.406h2.64c1.185 0 2.057.77 2.325 1.693.265.915-.158 1.67-1.332 1.67H8.459l.516 1.724h-1.34l-1.54-5.087Z" clip-rule="evenodd"/></svg>