<svg height="61" viewBox="0 0 60 61" width="60" xmlns="http://www.w3.org/2000/svg"><g fill="none" fill-rule="evenodd" transform="translate(0 .597644)"><path d="m2 2h28.1278378c1.0464465 0 1.9605572.69812046 2.2221688 1.69705093l6.4920987 24.82926487h-29.27219741" fill="#3d54ff"/><path d="m36.5473317 13.7894737h19.5766123l-5.8613258 13.1406475 7.7373818 13.3856683h-28.4855396l-2.4618288-10.1928603" fill="#3d54ff"/><path d="m30.1278378.875c1.4908186 0 2.8047298.95599278 3.2565859 2.35281324l.0539926.1846516 2.4533482 9.38347916 21.7731936-.0064703-6.2819581 14.0805263 8.3500777 14.4457895h-31.0058462l-2.820467-11.6648455h-14.732l8.1163966 28.0362407c.1727632.5968181-.1710013 1.220687-.7678194 1.3934501-.5570303.1612456-1.1376248-.1274618-1.3530245-.651908l-.0404257-.1159115-16.23031086-56.07869691-.01794539-.11119733-.00664813-.0985071.00221632-.09540256.01112826-.10329711.02327021-.11105203.0423759-.12888714.04963524-.1081174.03230558-.05778741.06231218-.0926188.06231824-.0764367.09244251-.09202274.1184835-.09217454.07436852-.04589153.08342874-.04279676.10840036-.0432734.1268599-.03478587.13865084-.0209112.09681658-.00395877zm6.2824418 13.9051597 3.5202354 13.46157c.1048554.4010231-.0194723.7968971-.2794808 1.0665284l-5.3542697 10.0067419h21.9692355l-7.1245163-12.3262171 5.4405163-12.1997829-18.0346683.0004737c-.0464934 0-.0922456-.0031729-.1370521-.009314zm-6.2824418-11.6552157h-26.63207329l7.02799999 24.276056h26.8612355l-6.1232906-23.41893305c-.1213023-.46317722-.5270381-.80153993-1.0112916-.85085504z" fill="#0f1031" fill-rule="nonzero"/><path d="m21.142607 11.2034646h-3.2029375l1.0000799 3.3150731h3.1918957c1.0552894 0 1.6460307-.6409946 1.3510544-1.6356673-.3012859-1.0157879-1.2808595-1.6794058-2.3400925-1.6794058zm-8.142607-3.2034646h7.7174941c3.4655769 0 6.0138879 2.2314152 6.7962849 4.9054937.7760873 2.6507011-.4613934 4.8383778-3.8938446 4.8383778h-3.7077097l1.5064296 4.9929706h-3.916717z" fill="#fff"/></g></svg>