<svg xmlns="http://www.w3.org/2000/svg" fill="none" viewBox="0 0 24 24"><g clip-path="url(#a)"><path fill="#334AFF" d="M19.68 5.794a1.474 1.474 0 1 0 0-2.949 1.474 1.474 0 0 0 0 2.949Z"/><path fill="#0F1031" d="M19.68 6.139a1.822 1.822 0 0 1-1.819-1.82c0-1.003.817-1.819 1.82-1.819 1.002 0 1.819.816 1.819 1.82 0 1.002-.817 1.819-1.82 1.819Zm0-2.949a1.13 1.13 0 1 0 .002 2.26 1.13 1.13 0 0 0-.001-2.26Z"/><path fill="#fff" d="M19.68 10.967a1.474 1.474 0 1 0 0-2.948 1.474 1.474 0 0 0 0 2.948Z"/><path fill="#0F1031" d="M19.68 11.312a1.822 1.822 0 0 1-1.819-1.82c0-1.002.817-1.819 1.82-1.819 1.002 0 1.819.817 1.819 1.82 0 1.003-.817 1.82-1.82 1.82Zm0-2.948a1.13 1.13 0 1 0 .002 2.259 1.13 1.13 0 0 0-.001-2.26Z"/><path fill="#334AFF" d="M19.68 16.142a1.474 1.474 0 1 0 0-2.948 1.474 1.474 0 0 0 0 2.948Z"/><path fill="#0F1031" d="M19.68 16.487a1.822 1.822 0 0 1-1.819-1.82c0-1.002.817-1.819 1.82-1.819 1.002 0 1.819.817 1.819 1.82 0 1.003-.817 1.82-1.82 1.82Zm0-2.948a1.13 1.13 0 1 0 .001 2.259 1.13 1.13 0 0 0 0-2.26Z"/><path fill="#334AFF" d="M19.68 21.315a1.474 1.474 0 1 0 0-2.948 1.474 1.474 0 0 0 0 2.948Z"/><path fill="#0F1031" d="M19.68 21.66a1.822 1.822 0 0 1-1.819-1.819c0-1.003.817-1.82 1.82-1.82 1.002 0 1.819.817 1.819 1.82 0 1.003-.817 1.82-1.82 1.82Zm0-2.948a1.13 1.13 0 1 0 .002 2.259 1.13 1.13 0 0 0-.001-2.259Z"/><path fill="#fff" d="M14.506 5.794a1.474 1.474 0 1 0 0-2.949 1.474 1.474 0 0 0 0 2.949Z"/><path fill="#0F1031" d="M14.505 6.139a1.822 1.822 0 0 1-1.819-1.82c0-1.003.817-1.819 1.82-1.819 1.002 0 1.819.816 1.819 1.82 0 1.002-.816 1.819-1.82 1.819Zm0-2.949a1.13 1.13 0 1 0 .001 2.26 1.13 1.13 0 0 0 0-2.26Z"/><path fill="#334AFF" d="M14.506 10.967a1.474 1.474 0 1 0 0-2.948 1.474 1.474 0 0 0 0 2.948Z"/><path fill="#0F1031" d="M14.505 11.312a1.822 1.822 0 0 1-1.819-1.82c0-1.002.817-1.819 1.82-1.819 1.002 0 1.819.817 1.819 1.82 0 1.003-.816 1.82-1.82 1.82Zm0-2.948a1.13 1.13 0 1 0 .001 2.259 1.13 1.13 0 0 0 0-2.26Z"/><path fill="#fff" d="M14.506 16.142a1.474 1.474 0 1 0 0-2.948 1.474 1.474 0 0 0 0 2.948Z"/><path fill="#0F1031" d="M14.505 16.487a1.822 1.822 0 0 1-1.819-1.82c0-1.002.817-1.819 1.82-1.819 1.002 0 1.819.817 1.819 1.82 0 1.003-.816 1.82-1.82 1.82Zm0-2.948a1.13 1.13 0 1 0 .001 2.259 1.13 1.13 0 0 0 0-2.26Z"/><path fill="#334AFF" d="M14.506 21.315a1.474 1.474 0 1 0 0-2.948 1.474 1.474 0 0 0 0 2.948Z"/><path fill="#0F1031" d="M14.505 21.66a1.822 1.822 0 0 1-1.819-1.819c0-1.003.817-1.82 1.82-1.82 1.002 0 1.819.817 1.819 1.82 0 1.003-.816 1.82-1.82 1.82Zm0-2.948a1.13 1.13 0 1 0 .001 2.259 1.13 1.13 0 0 0 0-2.259Z"/><path fill="#fff" d="M9.332 5.794a1.474 1.474 0 1 0 0-2.949 1.474 1.474 0 0 0 0 2.949Z"/><path fill="#0F1031" d="M9.332 6.139a1.822 1.822 0 0 1-1.82-1.82c0-1.003.817-1.819 1.82-1.819 1.003 0 1.82.816 1.82 1.82 0 1.002-.817 1.819-1.82 1.819Zm0-2.949a1.13 1.13 0 1 0 .001 2.26 1.13 1.13 0 0 0 0-2.26Z"/><path fill="#334AFF" d="M9.332 10.967a1.474 1.474 0 1 0 0-2.948 1.474 1.474 0 0 0 0 2.948Z"/><path fill="#0F1031" d="M9.332 11.312a1.822 1.822 0 0 1-1.82-1.82c0-1.002.817-1.819 1.82-1.819 1.003 0 1.82.817 1.82 1.82 0 1.003-.817 1.82-1.82 1.82Zm0-2.948a1.13 1.13 0 1 0 .001 2.259 1.13 1.13 0 0 0 0-2.26Z"/><path fill="#334AFF" d="M9.332 16.142a1.474 1.474 0 1 0 0-2.948 1.474 1.474 0 0 0 0 2.948Z"/><path fill="#0F1031" d="M9.332 16.487a1.822 1.822 0 0 1-1.82-1.82c0-1.002.817-1.819 1.82-1.819 1.003 0 1.82.817 1.82 1.82 0 1.003-.817 1.82-1.82 1.82Zm0-2.948a1.13 1.13 0 1 0 .001 2.259 1.13 1.13 0 0 0 0-2.26Z"/><path fill="#334AFF" d="M9.332 21.315a1.474 1.474 0 1 0 0-2.948 1.474 1.474 0 0 0 0 2.948Z"/><path fill="#0F1031" d="M9.332 21.66a1.822 1.822 0 0 1-1.82-1.819c0-1.003.817-1.82 1.82-1.82 1.003 0 1.82.817 1.82 1.82 0 1.003-.817 1.82-1.82 1.82Zm0-2.948a1.13 1.13 0 1 0 .001 2.259 1.13 1.13 0 0 0 0-2.259Z"/><path fill="#fff" d="M4.32 5.794a1.474 1.474 0 1 0 0-2.949 1.474 1.474 0 0 0 0 2.949Z"/><path fill="#0F1031" d="M4.32 6.139a1.822 1.822 0 0 1-1.82-1.82c0-1.003.816-1.819 1.82-1.819 1.002 0 1.819.816 1.819 1.82 0 1.002-.817 1.819-1.82 1.819Zm0-2.949a1.13 1.13 0 1 0 0 2.26 1.13 1.13 0 0 0 0-2.26Z"/><path fill="#fff" d="M4.32 10.967a1.474 1.474 0 1 0 0-2.948 1.474 1.474 0 0 0 0 2.948Z"/><path fill="#0F1031" d="M4.32 11.312a1.822 1.822 0 0 1-1.82-1.82c0-1.002.816-1.819 1.82-1.819 1.002 0 1.819.817 1.819 1.82 0 1.003-.817 1.82-1.82 1.82Zm0-2.948a1.13 1.13 0 0 0-1.13 1.129A1.13 1.13 0 1 0 4.32 8.364Z"/><path fill="#334AFF" d="M4.32 16.142a1.474 1.474 0 1 0 0-2.948 1.474 1.474 0 0 0 0 2.948Z"/><path fill="#0F1031" d="M4.32 16.487a1.822 1.822 0 0 1-1.82-1.82c0-1.002.816-1.819 1.82-1.819 1.002 0 1.819.817 1.819 1.82 0 1.003-.817 1.82-1.82 1.82Zm0-2.948a1.13 1.13 0 1 0 0 2.259 1.13 1.13 0 0 0 0-2.26Z"/><path fill="#334AFF" d="M4.32 21.315a1.474 1.474 0 1 0 0-2.948 1.474 1.474 0 0 0 0 2.948Z"/><path fill="#0F1031" d="M4.32 21.66a1.822 1.822 0 0 1-1.82-1.819c0-1.003.816-1.82 1.82-1.82 1.002 0 1.819.817 1.819 1.82 0 1.003-.817 1.82-1.82 1.82Zm0-2.948a1.13 1.13 0 1 0 0 2.259 1.13 1.13 0 0 0 0-2.259Z"/></g><defs><clipPath id="a"><path fill="#fff" d="M2.5 2.5h19v19.16h-19z"/></clipPath></defs></svg>