<svg xmlns="http://www.w3.org/2000/svg" fill="none" viewBox="0 0 24 24"><g clip-path="url(#a)"><path fill="#231F20" d="M22.855 10.504c-.106-.66-.61-1-.98-1.25-.121-.082-.306-.207-.332-.264-.279-.891-.432-2.294-.57-3.214a15.77 15.77 0 0 0-.398-1.936C20.087 2.142 18.996 2 18.012 2H15.12c-.35 0-1.198 0-1.864.61-.229.21-.077.592.233.592.069 0 .133-.03.183-.078.408-.394.942-.465 1.448-.465h2.892c.872 0 1.567.1 1.931 1.363.136.467.267 1.103.376 1.827.144.95.298 2.387.595 3.338.084.27.331.436.594.613.313.21.636.43.695.806.125.793.257 1.899-.048 2.365-.257.393-.712.597-1.026.597h-.811l-.017-.002h-.002a.348.348 0 0 0-.347.355l.802 3.288a.348.348 0 0 0 .351.348h.002a.348.348 0 0 0 .348-.355l-.773-2.975h.448c.594 0 1.228-.36 1.58-.895.334-.513.378-1.358.146-2.828ZM10.776 2.654C10.23 2.07 9.506 2 8.834 2H5.942c-.506 0-2.05 0-2.585 1.838a16.365 16.365 0 0 0-.417 1.897c-.165 1-.307 2.492-.597 3.447-.067.22-.328.463-.558.677-.264.246-.513.476-.582.758-.396 1.612-.135 2.252.14 2.723.249.427.882.887 1.472.887h.512l-.774 2.982c.005.19.161.341.35.341h.009c.02 0 .038-.003.056-.006a.348.348 0 0 0 .284-.352l.802-3.283a.351.351 0 0 0-.35-.341h-.891c-.325 0-.751-.3-.901-.559-.174-.297-.436-.747-.07-2.233.022-.091.244-.297.39-.434.293-.27.622-.578.741-.97.307-1.01.45-2.533.62-3.56.12-.73.275-1.38.395-1.79C4.34 2.821 5.174 2.66 5.942 2.66h2.89c.576 0 1.074.046 1.451.439a.34.34 0 0 0 .248.102c.283.002.438-.338.245-.546Z"/><path fill="#231F20" d="M4.125 10.881a.33.33 0 0 0-.33.33c0 .181.149.33.33.33h1.246c.435 0 .445-.66.017-.66H4.125Z"/><path fill="#334AFF" d="M16.2 6.188c-.494-1.709-1.544-1.834-2.577-1.834H10.31c-1.034 0-2.145.27-2.601 1.834-.342 1.174-.378 4.113-.975 6.08-.199.655-1.188 1.166-1.3 1.626-.452 1.835-.112 2.441.12 2.84.233.4.84.83 1.36.83h10.091c.52 0 1.144-.324 1.494-.856.349-.533.344-1.515.111-2.977-.154-.98-1.343-1.213-1.49-1.681-.586-1.878-.548-4.57-.92-5.862Z"/><path fill="#fff" d="M15.205 14.977H8.78c-.274 0-.494-.184-.494-.414 0-.229.22-.413.494-.413h6.425c.274 0 .495.184.495.413 0 .23-.221.414-.495.414Z"/><path fill="#231F20" d="M19.848 10.881a.33.33 0 0 1 .33.33.33.33 0 0 1-.33.33h-1.246c-.435 0-.445-.66-.016-.66h1.262Z"/><path fill="#231F20" d="M18.935 13.68c-.117-.735-.685-1.12-1.1-1.4-.15-.1-.378-.253-.401-.327-.32-1.026-.452-2.227-.569-3.289-.092-.845-.18-1.973-.351-2.566-.552-1.912-1.782-2.072-2.893-2.072h-3.313c-.572 0-2.314 0-2.918 2.072-.153.527-.243 1.625-.349 2.513-.137 1.156-.29 2.465-.623 3.562-.08.266-.384.55-.653.798-.296.275-.577.537-.652.846-.487 1.981-.083 2.672.156 3.084.279.476.986.992 1.645.992h.305l-.66 3.552a.494.494 0 0 0 .447.538l.081.001a.496.496 0 0 0 .458-.448l.668-3.643h7.574l.67 3.651c.022.244.22.432.457.448l.081-.001a.494.494 0 0 0 .447-.538l-.66-3.558h.226c.665 0 1.375-.404 1.769-1.004.376-.58.424-1.54.158-3.211Zm-.713 2.846c-.304.464-.843.706-1.219.706H6.913c-.388 0-.896-.358-1.075-.664-.203-.348-.508-.872-.084-2.595.028-.117.268-.34.461-.52.33-.307.702-.653.834-1.09.35-1.154.508-2.494.648-3.677.1-.86.19-1.93.326-2.407.41-1.408 1.385-1.597 2.285-1.597h3.313c1.019 0 1.833.117 2.26 1.595.155.538.239 1.639.33 2.455.12 1.09.255 2.327.595 3.413.092.295.367.482.66.678.368.247.747.504.818.956.145.92.297 2.2-.063 2.747Z"/></g><defs><clipPath id="a"><path fill="#fff" d="M1 2h22v19.991H1z"/></clipPath></defs></svg>