<svg fill="none" height="48" viewBox="0 0 228 48" width="228" xmlns="http://www.w3.org/2000/svg"><g clip-rule="evenodd" fill="#0f1031" fill-rule="evenodd"><path d="m21.14 31.2949c-1.5627.634-3.0089.976-4.0604.9193-1.362-.0759-1.9435-.6766-1.9456-.9025-.001-.1608.5067-.6647 2.0743-.7787.2458-.0175.5053-.0287.7724-.0287 1.0711 0 2.2631.1763 3.1593.7906zm2.9233 13.8116c-5.73 1.5805-11.7853.1227-15.42857-3.717-2.57814-2.717-3.44253-6.1172-2.37218-9.3286 2.15329-6.4613 12.47285-10.3395 19.06805-10.3395.0709 0 .1416.0004.2115.0014 2.4575.0315 4.1594.6256 4.4416 1.5512.158.5178-.2158 1.4245-1.0001 2.4246-1.384 1.7648-3.4869 3.3642-5.6259 4.5373-1.356-1.4878-3.5313-2.1648-6.3133-1.9644-3.0971.2248-4.1888 1.7277-4.1776 3.0593.0123 1.4518 1.42 2.9991 4.087 3.1474 1.6141.0881 3.5432-.4091 5.4804-1.2567.2843 1.1154.1962 2.5788-.2689 4.3237-.1612.6045.1983 1.2263.8032 1.3875.6043.1612 1.226-.1983 1.3875-.8036.6322-2.3708.6791-4.3594.1427-5.9392 2.5292-1.4193 4.8671-3.3047 6.2689-5.0919 1.3155-1.6774 1.7813-3.1866 1.3851-4.486-.2878-.9434-.9655-1.6917-1.9865-2.2225.078-8.5194 1.5882-14.40406 2.9477-14.4121h.0084c.1997 0 .47.04476.8011.3738 1.1046 1.09797 2.4208 4.7024 2.4208 15.6398 0 10.792-.9238 19.9803-12.2809 23.1155zm-10.8174-25.1705c-.0014-.0283.0021-.0563-.0014-.0849-.0049-.041-.0098-.0843-.015-.1263-.163-2.3264.116-4.1597.8255-5.143.3525-.4881.7945-.7497 1.3914-.8231.8322-.1004 1.5092.1143 2.0777.6605 1.1012 1.0585 1.7439 3.3471 1.6827 5.8508-1.8879.4657-3.8209 1.1291-5.6574 1.983-.1448-.8127-.2448-1.5869-.3035-2.317zm9.7666-3.9507c.4176-.4542.9501-.6752 1.6295-.6752 1.0798 0 1.5491.3532 1.8085.6189.6203.6354.9546 1.8677 1.0004 3.6622-.5808-.0805-1.207-.1273-1.8798-.1357-.0766-.0011-.1528-.0014-.2301-.0014-1.0235 0-2.1389.0888-3.3033.2581-.0504-1.6446.2933-2.9845.9748-3.7269zm12.5096-11.24227c-.6801-.67626-1.5102-1.03328-2.4019-1.03328h-.0199c-2.9873.01783-4.0178 4.47476-4.5335 7.82565-.1511.9833-.2679 1.9869-.3588 2.9583-.0444-.0497-.0881-.1011-.1346-.1487-.8434-.864-1.9981-1.3021-3.4314-1.3021-1.3123 0-2.4533.4867-3.2995 1.4084-.2413.263-.4486.5676-.636.8942-.3738-.9837-.8966-1.8743-1.611-2.5614-1.0616-1.02-2.418-1.4616-3.9258-1.2763-1.2151.1493-2.2365.7528-2.9536 1.7466-.0028.0046-.0053.0095-.0084.0133-1.2424-6.19619-3.60446-13.678144-7.7257-13.2501445-1.01405.1066505-1.91026.6524895-2.59108 1.5777245-3.17922 4.32195-1.687518 17.17382-.30526 24.08612.10805.5389.58115.912 1.11056.912.07378 0 .14861-.0074.22379-.0224.61367-.1227 1.01195-.72.88922-1.334-2.31484-11.5742-1.79837-19.9782-.09162-22.29793.40108-.54514.76369-.64165 1.00181-.66647 2.27498-.23673 5.0776 7.71203 6.26058 17.7445.0947 1.2424.2829 2.4057.4643 3.31.0007.0042.0028.008.0035.0122-3.40683 1.9638-6.2182 4.6489-7.33646 8.0047-1.34414 4.0314-.29477 8.2621 2.87851 11.6064 3.09815 3.2645 7.66905 5.0496 12.46725 5.0496 1.7263-.0003 3.4827-.2315 5.2094-.7081 12.8788-3.5548 13.9453-13.9963 13.9453-25.3009 0-9.672-.9819-15.15238-3.0897-17.24797z"/><path d="m59.9223 17.2525h-10.1c-.1206 0-.2185.0979-.2185.2185v1.7327c0 .1206.0979.2185.2185.2185h3.8569v11.1812c0 .1202.0983.2185.2185.2185h1.9687c.1206 0 .2185-.0983.2185-.2185v-11.1812h3.8374c.1206 0 .2185-.0979.2185-.2185v-1.7327c0-.1206-.0979-.2185-.2185-.2185z"/><path d="m66.9172 20.6391c-1.1176 0-2.2873.4657-3.1485 1.2504v-4.4185c0-.1202-.0979-.2185-.2185-.2185h-1.7718c-.1207 0-.2186.0983-.2186.2185v13.1324c0 .1206.0979.2185.2186.2185h1.7718c.1206 0 .2185-.0979.2185-.2185v-6.7201c.4707-.615 1.3917-1.2319 2.4002-1.2319 1.2682 0 1.8092.5469 1.8092 1.8288v6.1232c0 .1206.0979.2185.2185.2185h1.7721c.1203 0 .2186-.0979.2186-.2185v-6.7138c0-2.1263-1.1309-3.2505-3.2701-3.2505z"/><path d="m76.8254 22.5332c1.6651 0 2.5313 1.1966 2.6603 2.3977h-5.3294c.1829-1.2015 1.0725-2.3977 2.6691-2.3977zm0-1.8944c-2.8408 0-4.9829 2.2355-4.9829 5.1996 0 3.0733 2.1138 5.2196 5.1406 5.2196 1.6099 0 2.983-.5119 3.9723-1.4798.0772-.0756.0881-.1948.0251-.2829l-.8269-1.1616c-.0378-.0532-.0966-.0864-.1612-.0916-.064-.0032-.1287.0202-.1735.0657-.6339.6514-1.6525 1.056-2.6585 1.056-1.9093 0-2.7957-1.3438-2.9821-2.5159h7.2739c.1207 0 .2186-.0982.2186-.2185v-.4336c0-3.1541-1.9925-5.357-4.8454-5.357z"/><path d="m95.7522 17.2525h-8.8205c-.1203 0-.2186.0979-.2186.2185v13.1324c0 .1202.0983.2185.2186.2185h8.8205c.1206 0 .2185-.0983.2185-.2185v-1.7327c0-.1206-.0979-.2185-.2185-.2185h-6.6333v-3.6579h6.4952c.1206 0 .2185-.0983.2185-.2186v-1.7326c0-.1207-.0979-.2186-.2185-.2186h-6.4952v-3.4023h6.6333c.1206 0 .2185-.0979.2185-.2185v-1.7327c0-.1206-.0979-.2185-.2185-.2185z"/><path d="m106.719 20.8753h-1.909c-.09 0-.17.0539-.204.1378l-2.769 6.9522-2.7701-6.9526c-.0332-.0835-.1133-.1374-.2032-.1374h-1.8899c-.0731 0-.1406.0364-.1815.0969-.0406.0608-.0483.1374-.0203.2049l3.918 9.5097c.034.0818.113.1349.201.1349h1.91c.089 0 .168-.0531.202-.1349l3.918-9.5097c.028-.0675.021-.1441-.02-.2049-.041-.0605-.108-.0969-.182-.0969z"/><path d="m112.177 22.5332c1.666 0 2.532 1.1966 2.661 2.3977h-5.33c.183-1.2015 1.073-2.3977 2.669-2.3977zm0-1.8944c-2.84 0-4.982 2.2355-4.982 5.1996 0 3.0733 2.113 5.2196 5.14 5.2196 1.61 0 2.983-.5119 3.972-1.4798.078-.0756.089-.1948.026-.2829l-.827-1.1616c-.038-.0532-.097-.0864-.162-.0916-.063-.0032-.128.0202-.173.0657-.634.6514-1.653 1.056-2.659 1.056-1.909 0-2.796-1.3438-2.982-2.5159h7.274c.121 0 .219-.0982.219-.2185v-.4336c0-3.1541-1.993-5.357-4.846-5.357z"/><path d="m124.016 20.6392c-1.575 0-2.683.8242-3.149 1.2491v-.7942c0-.1206-.098-.2185-.218-.2185h-1.772c-.121 0-.219.0979-.219.2185v9.5094c0 .1206.098.2185.219.2185h1.772c.12 0 .218-.0979.218-.2185v-6.72c.471-.6151 1.392-1.2319 2.4-1.2319 1.252 0 1.81.5759 1.81 1.8683v6.0836c0 .1206.098.2185.218.2185h1.772c.121 0 .219-.0979.219-.2185v-6.6742c0-2.1522-1.131-3.2901-3.27-3.2901z"/><path d="m134.304 28.8203c-.025-.0735-.087-.1287-.162-.1437-.07-.0151-.156.0094-.208.0671-.131.1455-.438.3021-.802.3021-.656 0-.707-.7217-.707-.9431v-5.2349h1.711c.12 0 .219-.0983.219-.2185v-1.5557c0-.1203-.099-.2186-.219-.2186h-1.711v-2.3802c0-.1206-.098-.2186-.218-.2186h-1.772c-.121 0-.219.098-.219.2186v2.3802h-1.356c-.121 0-.219.0983-.219.2186v1.5557c0 .1202.098.2185.219.2185h1.356v5.6287c0 1.6518.882 2.5613 2.483 2.5613.87 0 1.525-.2192 2.001-.6699.062-.0588.084-.1483.056-.2287z"/><path d="m140.23 24.7003c-1.192-.278-2.036-.5245-2.036-1.1651 0-.6304.663-1.0217 1.731-1.0217 1.067 0 2.105.4248 2.646 1.0819.042.0507.103.0797.169.0797.001 0 .013-.0004.014-.0004.069-.0042.133-.0419.171-.101l.787-1.2407c.056-.0877.042-.2035-.034-.2755-.976-.9277-2.28-1.4183-3.773-1.4183-2.639 0-3.841 1.5728-3.841 3.0338 0 2.2169 2.038 2.689 3.675 3.068 1.167.2637 2.133.5452 2.133 1.3225 0 .714-.684 1.1403-1.829 1.1403-1.269 0-2.46-.6676-3.029-1.2879-.041-.0451-.099-.071-.16-.071-.006 0-.012.0004-.018.0007-.067.006-.129.0427-.166.0986l-.846 1.2998c-.056.0853-.045.1996.027.272.989 1.0088 2.411 1.5424 4.113 1.5424 2.465 0 4.058-1.2298 4.058-3.1323 0-2.367-2.102-2.8429-3.792-3.2258z"/><path d="m155.834 19.2254c1.375 0 2.662.6924 3.358 1.8068.059.0948.187.1301.288.078l1.674-.8861c.054-.0294.094-.0801.109-.1392.015-.0601.005-.1238-.03-.1752-1.271-1.9067-3.088-2.8736-5.399-2.8736-3.964 0-6.952 3.0139-6.952 7.011s2.988 7.0113 6.952 7.0113c2.287 0 4.103-.9665 5.398-2.8723.035-.0514.046-.1153.031-.1755-.014-.0598-.054-.1105-.109-.1402l-1.674-.8864c-.1-.0514-.229-.0165-.288.0779-.696 1.1148-1.983 1.8068-3.358 1.8068-2.475 0-4.137-1.9375-4.137-4.8216 0-2.9292 1.624-4.8217 4.137-4.8217z"/><path d="m168.826 26.9771v1.4641c-.474.5885-1.304.9395-2.222.9395-1.159 0-1.967-.6874-1.967-1.6714 0-.9843.808-1.6718 1.967-1.6718.919 0 1.748.3511 2.222.9396zm-1.828-6.3383c-1.595 0-2.958.5444-4.052 1.6183-.073.0713-.086.186-.031.272l.767 1.2211c.036.0563.094.093.161.1007.066.0091.133-.0168.179-.063.804-.8046 1.687-1.1958 2.699-1.1958 1.279 0 2.105.656 2.105 1.6714v1.0494c-.731-.6238-1.728-.9529-2.892-.9529-1.698 0-3.526 1.0417-3.526 3.3292 0 2.1883 1.817 3.3688 3.526 3.3688 1.133 0 2.131-.3399 2.892-.9836v.5287c0 .1206.098.2185.219.2185h1.772c.12 0 .218-.0979.218-.2185v-6.4183c0-2.2536-1.471-3.546-4.037-3.546z"/><path d="m175.621 17.2525h-1.772c-.12 0-.218.0979-.218.2185v13.1324c0 .1202.098.2185.218.2185h1.772c.121 0 .219-.0983.219-.2185v-13.1324c0-.1206-.098-.2185-.219-.2185z"/><path d="m182.808 22.5332c1.665 0 2.531 1.1966 2.66 2.3977h-5.329c.182-1.2015 1.072-2.3977 2.669-2.3977zm0-1.8944c-2.841 0-4.983 2.2355-4.983 5.1996 0 3.0733 2.113 5.2196 5.14 5.2196 1.61 0 2.983-.5119 3.973-1.4798.077-.0756.088-.1948.025-.2829l-.827-1.1616c-.038-.0532-.097-.0864-.161-.0916-.061-.0032-.129.0202-.174.0657-.634.6514-1.652 1.056-2.658 1.056-1.91 0-2.796-1.3438-2.982-2.5159h7.273c.121 0 .219-.0982.219-.2185v-.4336c0-3.1541-1.992-5.357-4.845-5.357z"/><path d="m194.646 20.6392c-1.575 0-2.683.8242-3.149 1.2491v-.7942c0-.1206-.098-.2185-.218-.2185h-1.772c-.121 0-.219.0979-.219.2185v9.5094c0 .1206.098.2185.219.2185h1.772c.12 0 .218-.0979.218-.2185v-6.72c.471-.6151 1.392-1.2319 2.4-1.2319 1.251 0 1.81.5759 1.81 1.8683v6.0836c0 .1206.097.2185.218.2185h1.772c.121 0 .219-.0979.219-.2185v-6.6742c0-2.1522-1.131-3.2901-3.27-3.2901z"/><path d="m206.915 23.896v3.9247c-.493.7217-1.486 1.2253-2.42 1.2253-1.589 0-2.656-1.2812-2.656-3.1877 0-1.9183 1.067-3.2072 2.656-3.2072.911 0 1.926.5232 2.42 1.2449zm1.99-6.6435h-1.772c-.12 0-.218.0979-.218.2185v4.4112c-.788-.8029-1.811-1.2431-2.892-1.2431-2.675 0-4.472 2.0977-4.472 5.2192 0 3.1103 1.797 5.1996 4.472 5.1996 1.064 0 2.112-.4462 2.892-1.2277v.7732c0 .1202.098.2185.218.2185h1.772c.121 0 .219-.0983.219-.2185v-13.1324c0-.1206-.098-.2185-.219-.2185z"/><path d="m217.586 26.9771v1.4641c-.474.5885-1.304.9395-2.223.9395-1.158 0-1.966-.6874-1.966-1.6714 0-.9843.808-1.6718 1.966-1.6718.919 0 1.749.3511 2.223.9396zm-1.829-6.3383c-1.594 0-2.957.5444-4.051 1.6183-.073.0713-.086.186-.032.272l.768 1.2211c.035.0563.094.093.161.1007.065.0091.132-.0168.178-.063.805-.8046 1.688-1.1958 2.7-1.1958 1.279 0 2.105.656 2.105 1.6714v1.0494c-.731-.6238-1.729-.9529-2.892-.9529-1.698 0-3.526 1.0417-3.526 3.3292 0 2.1883 1.817 3.3688 3.526 3.3688 1.133 0 2.131-.3399 2.892-.9836v.5287c0 .1206.098.2185.219.2185h1.772c.12 0 .218-.0979.218-.2185v-6.4183c0-2.2536-1.472-3.546-4.038-3.546z"/><path d="m227.492 20.6589c-1.027 0-2.075.4755-2.892 1.3084v-.8734c0-.1207-.099-.2186-.219-.2186h-1.772c-.121 0-.219.0979-.219.2186v9.5093c0 .1207.098.2186.219.2186h1.772c.12 0 .219-.0979.219-.2186v-6.5539c.41-.6402 1.494-1.2207 2.282-1.2207.216 0 .4.0178.562.0538.064.0133.133-.0017.185-.043.052-.0419.081-.1042.081-.1703v-1.7917c0-.1206-.098-.2185-.218-.2185z"/><path d="m86.3343 45.1823c1.4173 0 2.5363-1.1003 2.5363-3.3382s-1.119-3.3382-2.5363-3.3382c-1.4174 0-2.5363 1.1003-2.5363 3.3382s1.1189 3.3382 2.5363 3.3382zm-30.4494-.0747c1.3334 0 2.154-.6993 2.154-1.9674 0-.8299-.3636-1.3428-.9791-1.5946.4103-.2144.6434-.6713.6434-1.2028 0-1.1843-.7553-1.7624-1.8649-1.7624h-2.2006v6.5272zm-.1119-3.9907h-.9231v-1.4173h.8951c.5129 0 .7926.1771.7926.7086s-.2797.7087-.7646.7087zm-.9231 2.872h.9231c.7553 0 1.0537-.3171 1.0537-.8766 0-.5594-.2984-.8765-1.0537-.8765h-.9231zm9.4552 1.1187v-2.4057l2.07-4.1215h-1.3054l-1.3241 2.8254-1.3241-2.8254h-1.3055l2.0701 4.1215v2.4057zm12.5274-4.0375v4.0375h-1.0909v-6.5272h1.1469l1.3334 3.245 1.3334-3.245h1.147v6.5272h-1.091v-4.0375l-1.0817 2.3498h-.6154zm8.1779.7738c0 1.6411.6061 2.2193 1.3241 2.2193.7179 0 1.324-.5782 1.324-2.2193s-.6061-2.2193-1.324-2.2193c-.718 0-1.3241.5782-1.3241 2.2193zm8.9795 3.2637c1.6318 0 3.1331-.979 3.1331-3.2636 0-2.2845-1.5013-3.2636-3.1331-3.2636h-1.837v6.5272zm-.6247-1.1187h.5222c.8578 0 2.0048-.4103 2.0048-2.1447s-1.147-2.1446-2.0048-2.1446h-.5222zm11.3848 1.1187v-1.1189h-3.021v-1.7997h2.462v-1.1189h-2.462v-1.3707h2.928v-1.119h-4.14v6.5272zm4.896-2.816v2.816h-1.212v-6.5272h2.378c1.305 0 1.986.774 1.986 1.8556 0 .8579-.429 1.5106-1.222 1.753l1.809 2.9186h-1.352l-1.753-2.816zm1.175-1.1188h-1.175v-1.4732h1.175c.438 0 .765.2051.765.7366s-.327.7366-.765.7366zm6.853-.2426v4.1774h-1.119v-6.5272h1.119l2.21 4.1961v-4.1961h1.119v6.5272h-1.119zm16.193 4.1774v-5.4082h1.836v-1.119h-4.886v1.119h1.837v5.4082zm6.48-2.816v2.816h-1.212v-6.5272h2.378c1.305 0 1.986.774 1.986 1.8556 0 .8579-.429 1.5106-1.222 1.753l1.809 2.9186h-1.352l-1.753-2.816zm1.175-1.1188h-1.175v-1.4732h1.175c.438 0 .765.2051.765.7366s-.327.7366-.765.7366zm9.949 2.8159v1.1189h-3.972v-1.1189h1.38v-4.2893h-1.38v-1.119h3.972v1.119h-1.38v4.2893zm6.378 1.1189c1.334 0 2.154-.6993 2.154-1.9674 0-.8299-.363-1.3428-.979-1.5946.411-.2144.644-.6713.644-1.2028 0-1.1843-.756-1.7624-1.865-1.7624h-2.201v6.5272zm-1.035-3.9907h.924c.485 0 .764-.1772.764-.7087s-.279-.7086-.792-.7086h-.896zm.924 2.872h-.924v-1.7531h.924c.755 0 1.053.3171 1.053.8765 0 .5595-.298.8766-1.053.8766zm10.163-.0002v1.1189h-4.233v-6.5272h4.14v1.119h-2.928v1.3707h2.462v1.1189h-2.462v1.7997z"/></g></svg>