<svg xmlns="http://www.w3.org/2000/svg" fill="none" viewBox="0 0 24 24"><path fill="#fff" d="M3.365 9.441a1.813 1.813 0 0 1 1.113-2.346L15.93 3.044c.99-.35 2.077.174 2.4 1.155l2.294 6.987c.04.118.064.24.069.364.085 2.285-1.035 5.63-4.502 7.255l-3.098 1.215-4.826 1.578a.311.311 0 0 1-.389-.183L3.365 9.441Z"/><path fill="#334AFF" fill-rule="evenodd" d="m19.005 5.898-.523-1.495c-.361-1.028-1.513-1.565-2.555-1.192L4.867 7.18c-1.022.366-1.551 1.47-1.188 2.476l.524 1.405 14.801-5.162Z" clip-rule="evenodd"/><path fill="#0F1031" fill-rule="evenodd" d="M13.948 2.19a.351.351 0 0 0-.432-.17.34.34 0 0 0-.208.439l.406 1.096L6.451 6.16 6.053 5.09l-.015-.035a.351.351 0 0 0-.431-.17.34.34 0 0 0-.209.438l.398 1.072-1.21.434-.07.027C3.361 7.311 2.771 8.582 3.19 9.74l4.283 11.83.017.043a.663.663 0 0 0 .824.35l4.715-1.692a.354.354 0 0 0 .058-.026.354.354 0 0 0 .095-.037c1.114-.622 1.95-1.732 2.65-3.258.15-.324.288-.658.433-1.032l.033-.086.34-.912a6.12 6.12 0 0 1 .144-.353l.032-.067.01-.02.086.004c1.37.036 2.501-.267 3.222-.814a6.836 6.836 0 0 1-4.384 4.898.34.34 0 0 0-.208.439.35.35 0 0 0 .447.203c3.958-1.42 5.994-5.717 4.546-9.599l-1.882-5.348-.026-.07c-.451-1.163-1.777-1.762-2.979-1.332l-1.278.459-.406-1.095-.015-.034Zm.005 2.007.4 1.078.015.035c.077.154.263.23.432.17a.34.34 0 0 0 .208-.439l-.4-1.079 1.279-.459.063-.021c.841-.265 1.752.177 2.043 1.004l1.884 5.354.038.106a6.69 6.69 0 0 1 .382 1.99.338.338 0 0 0-.003.062c.036 1.108-1.359 1.914-3.58 1.794-.327-.018-.417.081-.667.73l-.114.3-.186.503-.133.35c-.14.363-.273.684-.416.995-.645 1.405-1.4 2.408-2.36 2.944l-.005.003a.363.363 0 0 0-.042.012l-4.673 1.676-4.27-11.793-.022-.064a1.595 1.595 0 0 1 1-1.977l1.209-.433.409 1.102.015.034c.077.155.263.23.431.17a.34.34 0 0 0 .209-.438l-.41-1.103 7.264-2.606Z" clip-rule="evenodd"/><path fill="#334AFF" fill-rule="evenodd" d="M15.631 10.234a.86.86 0 0 0 1.097.499.834.834 0 0 0 .51-1.076.86.86 0 0 0-1.097-.5.835.835 0 0 0-.51 1.077ZM11.8 11.608a.86.86 0 0 0 1.097.5.834.834 0 0 0 .51-1.076.86.86 0 0 0-1.098-.5.834.834 0 0 0-.51 1.076ZM7.968 12.982a.86.86 0 0 0 1.097.5.835.835 0 0 0 .51-1.076.86.86 0 0 0-1.098-.5.834.834 0 0 0-.51 1.076ZM13.16 14.86a.86.86 0 0 0 1.098.5.834.834 0 0 0 .509-1.076.86.86 0 0 0-1.097-.5.834.834 0 0 0-.51 1.077ZM9.252 16.263a.86.86 0 0 0 1.097.5.834.834 0 0 0 .509-1.077.86.86 0 0 0-1.097-.499.834.834 0 0 0-.51 1.076Z" clip-rule="evenodd"/></svg>