<svg xmlns="http://www.w3.org/2000/svg" fill="none" viewBox="0 0 24 24"><g clip-path="url(#a)"><path fill="#334AFF" fill-rule="evenodd" d="m17.058 3.31-2.989-.113-2.742 1.377 5.031 11.96 2.753-1.01 1.856-.04 2.124-.021.543.152-2.229-4.58-1.092-.085-1.21-.778-.85-1.438.145-1.124.617-.642.572-.18-1.594-3.543-.935.065Z" clip-rule="evenodd"/><path fill="#fff" fill-rule="evenodd" d="m11.587 4.152 5.138 12.422-3.745 2.78-3.818 1.3-3.818-.402L.787 8.608 5.41 8.7l4.162-2.504 2.016-2.043Z" clip-rule="evenodd"/><path fill="#000" d="M7.796 21.086c-.789 0-1.669-.06-2.661-.19a.363.363 0 0 1-.29-.226L.025 8.692a.365.365 0 0 1 .385-.496c5.426.72 7.03-.862 8.726-2.535 1.702-1.678 3.46-3.411 8.899-2.776a.36.36 0 0 1 .289.212l1.594 3.544a.367.367 0 0 1-.01.32.357.357 0 0 1-.259.187c-.005.002-.713.137-.987.644-.168.307-.147.713.058 1.207.71 1.707 2.498 1.535 2.573 1.526.152-.015.3.063.367.201l2.302 4.731a.364.364 0 0 1-.37.52c-5.107-.596-6.865.858-8.726 2.398-1.615 1.337-3.275 2.711-7.07 2.711Zm-2.356-.885c5.287.656 7.073-.822 8.962-2.387 1.818-1.506 3.698-3.06 8.62-2.628l-1.91-3.925c-.897.016-2.396-.38-3.063-1.986-.294-.709-.303-1.329-.023-1.84.261-.478.72-.74 1.06-.874l-1.34-2.978c-4.931-.531-6.47.987-8.099 2.594C7.965 7.837 6.227 9.55.93 8.988L5.44 20.201Z"/><path fill="#334AFF" d="M12.12 15.732c1.302-.552 1.798-2.316 1.109-3.94-.69-1.622-2.304-2.49-3.605-1.937-1.301.553-1.797 2.317-1.108 3.94.69 1.623 2.303 2.49 3.605 1.937Z"/><path fill="#334AFF" fill-rule="evenodd" d="M3.193 11.886a.865.865 0 1 0 1.624-.596.865.865 0 0 0-1.624.596ZM6.076 18.63a.864.864 0 1 0 1.623-.594.864.864 0 0 0-1.623.594Z" clip-rule="evenodd"/><path fill="#fff" fill-rule="evenodd" d="M14.027 5.71a.865.865 0 0 0 1.264.605.864.864 0 1 0-1.264-.605ZM15.562 9.403a.865.865 0 0 0 1.264.605.864.864 0 1 0-1.264-.605ZM17.08 13.097a.864.864 0 1 0 1.701-.308.864.864 0 0 0-1.701.308Z" clip-rule="evenodd"/></g><defs><clipPath id="a"><path fill="#fff" d="M0 2.75h24v18.336H0z"/></clipPath></defs></svg>