<svg height="71" viewBox="0 0 71 71" width="71" xmlns="http://www.w3.org/2000/svg"><g fill="none" transform="translate(.793711)"><path d="m2.28855983 55.5960357h40.87437687v10c0 1.6568542-1.3431458 3-3 3h-34.87437687c-1.65685425 0-3-1.3431458-3-3z" fill="#3d54ff"/><path d="m39.4514965.875c2.7578835 0 5.0069789 2.17838048 5.120504 4.90835904l.004496.21664096v12.3433863c0 .6213204-.5036796 1.125-1.125 1.125-.579899 0-1.0573198-.4387609-1.1183986-1.0024188l-.0066014-.1225812v-12.3433863c0-1.53111085-1.1968816-2.78267501-2.7060719-2.8701195l-.1689281-.0048805h-33.4514965c-1.53111085 0-2.78267501 1.19688163-2.8701195 2.70607191l-.0048805.16892809v59c0 1.5311108 1.19688163 2.782675 2.70607191 2.8701195l.16892809.0048805h33.4514965c1.5311109 0 2.782675-1.1968816 2.8701195-2.7060719l.0048805-.1689281v-15.6543393c0-.6213203.5036797-1.125 1.125-1.125.579899 0 1.0573199.438761 1.1183987 1.0024189l.0066013.1225811v15.6543393c0 2.7578835-2.1783805 5.0069789-4.908359 5.1205039l-.216641.0044961h-33.4514965c-2.75788346 0-5.0069789-2.1783805-5.12050393-4.908359l-.00449607-.216641v-59c0-2.75788346 2.17838048-5.0069789 4.90835904-5.12050393l.21664096-.00449607zm21.203701 14.6542367c.4454836-.433109 1.1577235-.4230775 1.5908325.0224061 9.3700985 9.6378155 9.3700985 25.3532724 0 34.9910879-.433109.4454836-1.1453489.4555151-1.5908325.0224061-.4454835-.433109-.455515-1.1453489-.022406-1.5908324 8.5210832-8.7645428 8.5210832-23.0896925 0-31.8542352-.433109-.4454836-.4230775-1.1577235.022406-1.5908325zm-34.6055859 0c.4454835.433109.455515 1.1453489.0224061 1.5908325-8.5210833 8.7645427-8.5210833 23.0896924 0 31.8542352.4331089.4454835.4230774 1.1577234-.0224061 1.5908324-.4454836.433109-1.1577235.4230775-1.5908325-.0224061-9.3700985-9.6378155-9.3700985-25.3532724 0-34.9910879.433109-.4454836 1.1453489-.4555151 1.5908325-.0224061zm27.2928341 6.1672768c.4454835-.433109 1.1577235-.4230774 1.5908325.0224061 6.0899971 6.2639971 6.0739593 16.4090333-.0483546 22.7062704-.433109.4454835-1.1453489.4555151-1.5908325.0224061-.4454835-.433109-.455515-1.145349-.0224061-1.5908325 5.2743957-5.4250926 5.2882356-14.1798257.0483546-19.5694176-.433109-.4454835-.4230774-1.1577235.0224061-1.5908325zm-19.9800864 0c.4454835.433109.455515 1.145349.0224061 1.5908325-5.239881 5.3895919-5.2260411 14.144325.0483545 19.5694176.433109.4454835.4230774 1.1577235-.0224061 1.5908325s-1.1577235.4230774-1.5908325-.0224061c-6.1223139-6.2972371-6.1383516-16.4422733-.0483545-22.7062704.433109-.4454835 1.1453489-.4555151 1.5908325-.0224061zm9.9900449 5.1053024c3.3827442 0 6.125 2.7422559 6.125 6.125s-2.7422558 6.125-6.125 6.125c-3.3827441 0-6.125-2.7422559-6.125-6.125s2.7422559-6.125 6.125-6.125zm0 2.25c-2.1401034 0-3.875 1.7348966-3.875 3.875s1.7348966 3.875 3.875 3.875c2.1401035 0 3.875-1.7348965 3.875-3.875 0-2.1401034-1.7348965-3.875-3.875-3.875z" fill="#0f1031"/></g></svg>