<svg xmlns="http://www.w3.org/2000/svg" width="60" height="60" fill="none" viewBox="0 0 60 60"><path fill="#334AFF" d="M25.292 8.51c-1.264-.183-2.656-.41-3.908-.593-1.59-.233-3.166-.464-4.718-.687-.458-.066-.87.17-.922.527l-1.333 6.037c-.026.178.14.35.369.382l6.674 1.01 3.838-6.676Z"/><path fill="#000" fill-rule="evenodd" d="m25.14 8.793.818-1.422-8.231-1.184a3.037 3.037 0 0 0-3.435 2.585l-2.323 16.286h1.533l2.292-16.07a1.519 1.519 0 0 1 1.718-1.292l7.628 1.097Z" clip-rule="evenodd"/><path fill="#000" d="m10.095 39.728.682-4.78.174.1v7.14a2.834 2.834 0 0 1-.856-2.46Z"/><path fill="#334AFF" d="M29.942 5.573 25.91 11.56c-.099.171-.016.404.185.52l20.087 11.77c.2.117.443.073.54-.098l3.189-6.6c.196-.341.03-.807-.371-1.04l-5.89-3.414c-.2-.116-.442-.071-.555.09-1.128 1.61-3.24 2.038-4.942 1.05-1.184-.685-1.696-1.825-1.62-3.03.069-1.104-.182-2.342-1.138-2.896l-4.373-2.535c-.4-.233-.885-.144-1.081.197Z"/><path fill="#000" fill-rule="evenodd" d="M17.238 25.058 28.76 5.014a1.73 1.73 0 0 1 2.37-.638l5.784 3.354c.855.496 1.057 1.523.706 2.285-.66 1.43-.21 2.835.773 3.404 1.034.6 2.492.324 3.403-.98.48-.69 1.47-1.027 2.324-.531l6.228 3.611a1.746 1.746 0 0 1 .635 2.38l-4.116 7.159h-1.752l4.554-7.922a.218.218 0 0 0-.08-.297l-6.228-3.611c-.1-.058-.243-.029-.323.086-1.301 1.863-3.6 2.47-5.404 1.425-1.807-1.048-2.306-3.383-1.391-5.365.058-.127.012-.266-.088-.324l-5.784-3.354a.216.216 0 0 0-.296.08L18.99 25.058h-1.752Z" clip-rule="evenodd"/><path fill="#fff" d="M10.084 31.64a3.476 3.476 0 0 1 3.469-3.483h33.821c.719 0 1.3.584 1.3 1.306v22.642c0 .722-.581 1.306-1.3 1.306H13.553a3.476 3.476 0 0 1-3.469-3.483V31.64Z"/><path fill="#000" fill-rule="evenodd" d="M13.553 26.85h33.821a2.607 2.607 0 0 1 2.602 2.613v22.642a2.607 2.607 0 0 1-2.602 2.613H13.553c-2.634 0-4.77-2.145-4.77-4.79V31.64c0-2.646 2.136-4.79 4.77-4.79Zm0 1.524A3.259 3.259 0 0 0 10.3 31.64v18.288a3.259 3.259 0 0 0 3.252 3.266h33.821c.599 0 1.084-.488 1.084-1.089V29.463c0-.602-.485-1.089-1.084-1.089H13.553Z" clip-rule="evenodd"/><path fill="#fff" d="M10.3 31.64a3.259 3.259 0 0 1 3.253-3.266h33.821c.599 0 1.084.488 1.084 1.089v22.642c0 .601-.485 1.089-1.084 1.089H13.553a3.259 3.259 0 0 1-3.252-3.266V31.64Z"/><ellipse cx="41.521" cy="40.131" fill="#334AFF" rx="2.385" ry="2.395"/></svg>