<svg xmlns="http://www.w3.org/2000/svg" fill="none" viewBox="0 0 24 24"><path fill="#fff" d="M19 9.5H7.5L11 4l8 5v.5ZM6.5 9.5l3-5L6 5l-.5 4.5h1Z"/><path fill="#334AFF" d="M10.507 2.729c-.516-.075-1.084-.168-1.595-.242-.65-.096-1.293-.19-1.926-.281-.187-.027-.355.07-.376.215l-.544 2.464c-.01.073.057.143.15.156l2.724.413 1.567-2.725Z"/><path fill="#000" fill-rule="evenodd" d="m10.445 2.844.334-.58-3.36-.484a1.24 1.24 0 0 0-1.402 1.056L5.07 9.483h.626l.935-6.56a.62.62 0 0 1 .701-.527l3.114.448Z" clip-rule="evenodd"/><path fill="#000" d="m4.304 15.47.279-1.95.07.04v2.915a1.157 1.157 0 0 1-.349-1.004Z"/><path fill="#334AFF" d="m12.405 1.53-1.646 2.443c-.04.07-.006.165.076.212l8.199 4.805c.082.047.18.03.22-.04l1.302-2.694c.08-.14.012-.33-.152-.425L18 4.437c-.082-.047-.18-.028-.226.037-.46.658-1.322.832-2.017.43a1.289 1.289 0 0 1-.662-1.238c.028-.45-.074-.956-.464-1.182l-1.785-1.035c-.163-.095-.361-.059-.441.08Z"/><path fill="#000" fill-rule="evenodd" d="m7.22 9.483 4.703-8.181a.706.706 0 0 1 .967-.26l2.361 1.368a.726.726 0 0 1 .288.933c-.27.583-.085 1.157.316 1.39.422.244 1.017.132 1.389-.4a.719.719 0 0 1 .948-.218l2.543 1.474a.713.713 0 0 1 .259.972l-1.68 2.922h-.716l1.86-3.233a.09.09 0 0 0-.033-.122l-2.543-1.474c-.04-.023-.099-.012-.131.035-.531.76-1.47 1.009-2.206.582-.738-.428-.941-1.38-.568-2.19.024-.052.005-.108-.036-.132l-2.36-1.369a.088.088 0 0 0-.121.033l-4.525 7.87h-.716Z" clip-rule="evenodd"/><path fill="#fff" d="M4.3 12.17c0-.786.634-1.422 1.416-1.422H19.52c.293 0 .531.238.531.533v9.242a.532.532 0 0 1-.53.533H5.715A1.419 1.419 0 0 1 4.3 19.634v-7.465Z"/><path fill="#000" fill-rule="evenodd" d="M5.715 10.214H19.52c.587 0 1.062.478 1.062 1.067v9.242c0 .588-.475 1.066-1.062 1.066H5.715a1.95 1.95 0 0 1-1.946-1.955v-7.465a1.95 1.95 0 0 1 1.946-1.955Zm0 .622a1.33 1.33 0 0 0-1.327 1.333v7.465a1.33 1.33 0 0 0 1.327 1.333H19.52a.443.443 0 0 0 .443-.444V11.28a.443.443 0 0 0-.443-.445H5.715Z" clip-rule="evenodd"/><path fill="#fff" d="M4.388 12.17a1.33 1.33 0 0 1 1.327-1.334H19.52c.245 0 .443.2.443.445v9.242a.443.443 0 0 1-.443.444H5.715a1.33 1.33 0 0 1-1.327-1.333v-7.465Z"/><ellipse cx="17.131" cy="15.635" fill="#334AFF" rx=".973" ry=".977"/></svg>