<svg xmlns="http://www.w3.org/2000/svg" fill="none" viewBox="0 0 257 295"><path fill="#F6F7F7" d="M160.45 268.782c3.381 0 6.806-.113 10.275-.391 67.896-5.227 118.611-60.761 113.031-123.853-5.458-62.26-64.703-110.368-133.261-105.15C82.555 44.605 31.84 100.19 37.42 163.303c5.182 59.148 59.244 105.479 123.03 105.479Z"/><path fill="#334AFF" d="M386.283 67.263C366.572-36.127 252.283-43.9 226.278-44.32c-3.555-.058-6.958.224-10.445.921-25.635 5.122-134.743 34.793-60.241 159.12 84.004 140.183 204.411 121.011 253.757 92.521 49.345-28.49-.798-24.167-23.066-140.98Z"/><path fill="#E5472F" d="M26.448 268.721c-14.247-14.246-14.224-37.368.023-51.614 14.245-14.244 37.364-14.267 51.609-.023 14.247 14.246 14.224 37.368-.023 51.614-14.246 14.244-37.364 14.267-51.61.023Z"/><path stroke="#0F1031" stroke-linecap="round" stroke-linejoin="round" stroke-width="1.831" d="M75.49 69.162c28.015 138.164 131.86 116.622 141.309 81.36 9.448-35.262-55.126-7.181-29.542 41.265 25.584 48.445 122.138-105.728 167.039-25.006"/><path fill="#FFCF48" d="M37 96c18.747 0 34 15.253 34 34H51.752c0-8.134-6.618-14.752-14.752-14.752-8.135 0-14.752 6.618-14.752 14.752H3c0-18.747 15.253-34 34-34Z"/></svg>